<svg xmlns="http://www.w3.org/2000/svg" width="926pt" height="244" viewBox="0 0 926 183"><g class="graph" data-name="G"><path fill="#fff" stroke="transparent" d="M0 183V0h926v183H0z"/><g class="cluster"><path fill="none" stroke="transparent" d="M12 166V17h328v149H12z"/><text text-anchor="middle" x="60.344" y="-129.4" font-family="Helvetica,sans-Serif" font-size="14" fill="#4d4d4d" transform="translate(4 179)">Python Server</text></g><g class="cluster"><path fill="#91a4a8" stroke="transparent" d="M22 156V68h308v88H22z"/><text text-anchor="middle" x="96.292" y="-86" font-family="Helvetica,sans-Serif" font-size="10" fill="#edebdf" transform="translate(4 179)">PerspectiveManager - Thread 2</text></g><g class="cluster"><path fill="#cadee1" stroke="#cadee1" d="M348 171V12h566v159H348z"/><text text-anchor="middle" x="377.665" y="-134.4" font-family="Helvetica,sans-Serif" font-size="14" fill="#4d4d4d" transform="translate(4 179)">Browser</text></g><g class="cluster"><path fill="#2d4c68" stroke="transparent" d="M358 161V63h308v98H358z"/><text text-anchor="middle" x="392.555" y="-91" font-family="Helvetica,sans-Serif" font-size="10" fill="#edebdf" transform="translate(4 179)">WebWorker 2</text></g><g class="cluster"><path fill="#fff" stroke="transparent" d="M682 161V68h222v93H682z"/><text text-anchor="middle" x="697.846" y="-90.8" font-family="monospace" font-size="8" fill="#4d4d4d" transform="translate(4 179)">&amp;#60;html&amp;#62;</text></g><g class="node" data-name="table_thread_2"><path fill="#e6e2da" stroke="transparent" d="M104 110H32v36h72v-36z"/><text text-anchor="middle" x="64" y="-48.6" font-family="monospace" font-size="8" transform="translate(4 179)">table(df)</text></g><g class="node" data-name="view_thread_2"><path fill="#edebdf" stroke="transparent" d="M320 109.7H140v36.6h180v-36.6z"/><text x="144" y="-58.2" font-family="monospace" font-size="8" transform="translate(4 179)">view({</text><text x="144" y="-48.6" font-family="monospace" font-size="8" transform="translate(4 179)">&amp;#160;&amp;#160;&amp;#160;row_pivot: [&quot;State&quot;]]</text><text x="144" y="-39" font-family="monospace" font-size="8" transform="translate(4 179)">})</text></g><g class="edge" data-name="table_thread_2-&gt;view_thread_2" stroke="#edebdf"><path fill="none" d="M104.356 128h27.342"/><path fill="#edebdf" d="M131.875 125.2l8 2.8-8 2.8v-5.6z"/></g><g class="node" data-name="table12"><path fill="#e6e2da" stroke="transparent" d="M440 110h-72v36h72v-36z"/><text text-anchor="middle" x="400" y="-48.6" font-family="monospace" font-size="8" transform="translate(4 179)">table(...)</text></g><path fill="none" stroke="#d1a043" stroke-width="2" stroke-dasharray="5,2" d="M320.058 128h47.724" data-name="view_thread_2-&gt;table12"/><g class="node" data-name="view12" data-comment="view_thread_1"><path fill="#edebdf" stroke="transparent" d="M656 104.598H476v46.804h180v-46.804z"/><text x="480" y="-63" font-family="monospace" font-size="8" transform="translate(4 179)">view({</text><text x="480" y="-53.4" font-family="monospace" font-size="8" transform="translate(4 179)">&amp;#160;&amp;#160;&amp;#160;row_pivot: [&quot;Category&quot;]</text><text x="480" y="-43.8" font-family="monospace" font-size="8" transform="translate(4 179)">&amp;#160;&amp;#160;&amp;#160;filter: [[&quot;State&quot;,&quot;==&quot;,&quot;Texas&quot;]]</text><text x="480" y="-34.2" font-family="monospace" font-size="8" transform="translate(4 179)">})</text></g><g class="edge" data-name="table12-&gt;view12" data-comment="view_thread_1" stroke="#e6e2da"><path fill="none" d="M440.356 128h27.342"/><path fill="#e6e2da" d="M467.875 125.2l8 2.8-8 2.8v-5.6z"/></g><g class="node" data-name="viewer5" data-comment="view_thread_1"><path fill="#fff" stroke="#b3b3b3" d="M894 104.598H692v46.804h202v-46.804z"/><text x="696" y="-63" font-family="monospace" font-size="8" transform="translate(4 179)">&amp;#60;perspective-viewer</text><text x="696" y="-53.4" font-family="monospace" font-size="8" transform="translate(4 179)">&amp;#160;&amp;#160;&amp;#160;view=&quot;heatmap&quot;</text><text x="696" y="-43.8" font-family="monospace" font-size="8" transform="translate(4 179)">&amp;#160;&amp;#160;&amp;#160;row-pivots=&apos;[&quot;State&quot;]</text><text x="696" y="-34.2" font-family="monospace" font-size="8" transform="translate(4 179)">&amp;#160;&amp;#160;&amp;#160;column-pivots=&apos;[&quot;Segment&quot;]&apos;&amp;#62;</text></g><path fill="none" stroke="#000" stroke-width="2" stroke-dasharray="5,2" d="M656.042 128h35.797" data-name="view12-&gt;viewer5" data-comment="view_thread_1"/></g></svg>