<svg xmlns="http://www.w3.org/2000/svg" width="926pt" height="509pt" viewBox="0 0 926 509"><g class="graph" data-name="G"><path fill="#fff" stroke="transparent" d="M0 509V0h926v509H0z"/><g class="cluster"><path fill="none" stroke="transparent" d="M12 496V184h328v312H12z"/><text text-anchor="middle" x="60.344" y="-288.4" font-family="Helvetica,sans-Serif" font-size="14" fill="#4d4d4d" transform="translate(4 505)">Python Server</text></g><g class="cluster"><path fill="#91a4a8" stroke="transparent" d="M22 378V235h308v143H22z"/><text text-anchor="middle" x="96.292" y="-245" font-family="Helvetica,sans-Serif" font-size="10" fill="#edebdf" transform="translate(4 505)">PerspectiveManager - Thread 2</text></g><g class="cluster"><path fill="#91a4a8" stroke="transparent" d="M22 486v-98h308v98H22z"/><text text-anchor="middle" x="96.292" y="-92" font-family="Helvetica,sans-Serif" font-size="10" fill="#edebdf" transform="translate(4 505)">PerspectiveManager - Thread 1</text></g><g class="cluster"><path fill="#cadee1" stroke="#cadee1" d="M348 497V12h566v485H348z"/><text text-anchor="middle" x="377.665" y="-460.4" font-family="Helvetica,sans-Serif" font-size="14" fill="#4d4d4d" transform="translate(4 505)">Browser</text></g><g class="cluster"><path fill="#2d4c68" stroke="transparent" d="M358 270V63h308v207H358z"/><text text-anchor="middle" x="392.555" y="-417" font-family="Helvetica,sans-Serif" font-size="10" fill="#edebdf" transform="translate(4 505)">WebWorker 1</text></g><g class="cluster"><path fill="#2d4c68" stroke="transparent" d="M358 383v-98h308v98H358z"/><text text-anchor="middle" x="392.555" y="-195" font-family="Helvetica,sans-Serif" font-size="10" fill="#edebdf" transform="translate(4 505)">WebWorker 2</text></g><g class="cluster"><path fill="#fff" stroke="transparent" d="M682 487V63h222v424H682z"/><text text-anchor="middle" x="697.846" y="-421.8" font-family="monospace" font-size="8" fill="#4d4d4d" transform="translate(4 505)">&amp;#60;html&amp;#62;</text></g><g class="node" data-name="table_thread_2"><path fill="#e6e2da" stroke="transparent" d="M104 305H32v36h72v-36z"/><text text-anchor="middle" x="64" y="-179.6" font-family="monospace" font-size="8" transform="translate(4 505)">table(df)</text></g><g class="node" data-name="view_thread_2"><path fill="#edebdf" stroke="transparent" d="M320 331.7H140v36.6h180v-36.6z"/><text x="144" y="-162.2" font-family="monospace" font-size="8" transform="translate(4 505)">view({</text><text x="144" y="-152.6" font-family="monospace" font-size="8" transform="translate(4 505)">&amp;#160;&amp;#160;&amp;#160;row_pivot: [&quot;State&quot;]]</text><text x="144" y="-143" font-family="monospace" font-size="8" transform="translate(4 505)">})</text></g><g class="edge" data-name="table_thread_2-&gt;view_thread_2" stroke="#edebdf"><path fill="none" d="M104.356 329.06l27.342 4.556"/><path fill="#edebdf" d="M132.444 330.902l7.43 4.077-8.351 1.447.92-5.524z"/></g><g class="node" data-name="view_thread_2_2"><path fill="#edebdf" stroke="transparent" d="M320 276.7H140v36.6h180v-36.6z"/><text x="144" y="-217.2" font-family="monospace" font-size="8" transform="translate(4 505)">view({</text><text x="144" y="-207.6" font-family="monospace" font-size="8" transform="translate(4 505)">&amp;#160;&amp;#160;&amp;#160;row_pivot: [&quot;City&quot;]]</text><text x="144" y="-198" font-family="monospace" font-size="8" transform="translate(4 505)">})</text></g><g class="edge" data-name="table_thread_2-&gt;view_thread_2_2" stroke="#edebdf"><path fill="none" d="M104.356 316.716l27.632-4.776"/><path fill="#edebdf" d="M131.514 309.18l8.36 1.397-7.406 4.122-.953-5.518z"/></g><g class="node" data-name="table12"><path fill="#e6e2da" stroke="transparent" d="M440 332h-72v36h72v-36z"/><text text-anchor="middle" x="400" y="-152.6" font-family="monospace" font-size="8" transform="translate(4 505)">table(...)</text></g><path fill="none" stroke="#d1a043" stroke-width="2" stroke-dasharray="5,2" d="M320.058 350h47.724" data-name="view_thread_2-&gt;table12"/><g class="node" data-name="table_thread_1"><path fill="#e6e2da" stroke="transparent" d="M104 435H32v36h72v-36z"/><text text-anchor="middle" x="64" y="-49.6" font-family="monospace" font-size="8" transform="translate(4 505)">table(arrow)</text></g><g class="node" data-name="view_thread_1"><path fill="#edebdf" stroke="transparent" d="M320 429.598H140v46.804h180v-46.804z"/><text x="144" y="-64" font-family="monospace" font-size="8" transform="translate(4 505)">view({</text><text x="144" y="-54.4" font-family="monospace" font-size="8" transform="translate(4 505)">&amp;#160;&amp;#160;&amp;#160;row_pivots:&apos;[&quot;State&quot;]</text><text x="144" y="-44.8" font-family="monospace" font-size="8" transform="translate(4 505)">&amp;#160;&amp;#160;&amp;#160;column_pivots:&apos;[&quot;Segment&quot;]&apos;</text><text x="144" y="-35.2" font-family="monospace" font-size="8" transform="translate(4 505)">})</text></g><g class="edge" data-name="table_thread_1-&gt;view_thread_1" stroke="#edebdf"><path fill="none" d="M104.356 453h27.342"/><path fill="#edebdf" d="M131.875 450.2l8 2.8-8 2.8v-5.6z"/></g><g class="node" data-name="viewer4"><path fill="#fff" stroke="#b3b3b3" d="M894 430.598H692v46.804h202v-46.804z"/><text x="696" y="-63" font-family="monospace" font-size="8" transform="translate(4 505)">&amp;#60;perspective-viewer</text><text x="696" y="-53.4" font-family="monospace" font-size="8" transform="translate(4 505)">&amp;#160;&amp;#160;&amp;#160;view=&quot;heatmap&quot;</text><text x="696" y="-43.8" font-family="monospace" font-size="8" transform="translate(4 505)">&amp;#160;&amp;#160;&amp;#160;row-pivots=&apos;[&quot;State&quot;]</text><text x="696" y="-34.2" font-family="monospace" font-size="8" transform="translate(4 505)">&amp;#160;&amp;#160;&amp;#160;column-pivots=&apos;[&quot;Segment&quot;]&apos;&amp;#62;</text></g><path fill="none" stroke="#d1a043" stroke-width="2" stroke-dasharray="5,2" d="M320.143 453.16l371.565.66" data-name="view_thread_1-&gt;viewer4"/><g class="node" data-name="table1"><path fill="#e6e2da" stroke="transparent" d="M440 135h-72v36h72v-36z"/><text text-anchor="middle" x="400" y="-349.6" font-family="monospace" font-size="8" transform="translate(4 505)">table(csv)</text></g><g class="node" data-name="view1"><path fill="#edebdf" stroke="transparent" d="M656 159.598H476v46.804h180v-46.804z"/><text x="480" y="-334" font-family="monospace" font-size="8" transform="translate(4 505)">view({</text><text x="480" y="-324.4" font-family="monospace" font-size="8" transform="translate(4 505)">&amp;#160;&amp;#160;&amp;#160;row_pivot: [&quot;Category&quot;]</text><text x="480" y="-314.8" font-family="monospace" font-size="8" transform="translate(4 505)">&amp;#160;&amp;#160;&amp;#160;filter: [[&quot;State&quot;,&quot;==&quot;,&quot;Texas&quot;]]</text><text x="480" y="-305.2" font-family="monospace" font-size="8" transform="translate(4 505)">})</text></g><g class="edge" data-name="table1-&gt;view1" stroke="#edebdf"><path fill="none" d="M440.356 159.733l27.632 5.117"/><path fill="#edebdf" d="M468.518 162.1l7.357 4.21-8.377 1.296 1.02-5.506z"/></g><g class="node" data-name="view2"><path fill="#edebdf" stroke="transparent" d="M656 104.7H476v36.6h180v-36.6z"/><text x="480" y="-389.2" font-family="monospace" font-size="8" transform="translate(4 505)">view({</text><text x="480" y="-379.6" font-family="monospace" font-size="8" transform="translate(4 505)">&amp;#160;&amp;#160;&amp;#160;row_pivot: [&quot;Sub-Category&quot;]</text><text x="480" y="-370" font-family="monospace" font-size="8" transform="translate(4 505)">})</text></g><g class="edge" data-name="table1-&gt;view2" stroke="#edebdf"><path fill="none" d="M440.356 146.267l27.632-5.117"/><path fill="#edebdf" d="M467.498 138.394l8.377 1.296-7.357 4.21-1.02-5.506z"/></g><g class="node" data-name="table_remote_view"><path fill="#e6e2da" stroke="transparent" d="M440 224h-72v36h72v-36z"/><text text-anchor="middle" x="400" y="-260.6" font-family="monospace" font-size="8" transform="translate(4 505)">table(json)</text></g><g class="node" data-name="view3"><path fill="#edebdf" stroke="transparent" d="M656 224H476v36h180v-36z"/><text x="480" y="-260.6" font-family="monospace" font-size="8" transform="translate(4 505)">view()</text></g><g class="edge" data-name="table_remote_view-&gt;view3" stroke="#edebdf"><path fill="none" d="M440.356 242h27.342"/><path fill="#edebdf" d="M467.875 239.2l8 2.8-8 2.8v-5.6z"/></g><g class="node" data-name="viewer1"><path fill="#fff" stroke="#b3b3b3" d="M894 154.598H692v46.804h202v-46.804z"/><text x="696" y="-339" font-family="monospace" font-size="8" transform="translate(4 505)">&amp;#60;perspective-viewer</text><text x="696" y="-329.4" font-family="monospace" font-size="8" transform="translate(4 505)">&amp;#160;&amp;#160;&amp;#160;view=&quot;Y Bar&quot;</text><text x="696" y="-319.8" font-family="monospace" font-size="8" transform="translate(4 505)">&amp;#160;&amp;#160;&amp;#160;row-pivots=&apos;[&quot;Category&quot;]&apos;</text><text x="696" y="-310.2" font-family="monospace" font-size="8" transform="translate(4 505)">&amp;#160;&amp;#160;&amp;#160;filters=&apos;[[&quot;State&quot;,&quot;==&quot;,&quot;Texas&quot;]]&apos;&amp;#62;</text></g><path fill="none" stroke="#000" stroke-width="2" stroke-dasharray="5,2" d="M656.042 181.017l35.797-.789" data-name="view1-&gt;viewer1"/><g class="node" data-name="viewer2"><path fill="#fff" stroke="#d3d3d3" d="M894 99.7H692v36.6h202V99.7z"/><text x="696" y="-394.2" font-family="monospace" font-size="8" transform="translate(4 505)">&amp;#60;perspective-viewer</text><text x="696" y="-384.6" font-family="monospace" font-size="8" transform="translate(4 505)">&amp;#160;&amp;#160;&amp;#160;view=&quot;xy_scatter&quot;</text><text x="696" y="-375" font-family="monospace" font-size="8" transform="translate(4 505)">&amp;#160;&amp;#160;&amp;#160;row-pivots=&apos;[&quot;Sub-Category&quot;]&apos;&amp;#62;</text></g><path fill="none" stroke="#000" stroke-width="2" stroke-dasharray="5,2" d="M656.042 121.017l35.797-.789" data-name="view2-&gt;viewer2"/><g class="node" data-name="viewer3"><path fill="#fff" stroke="#b3b3b3" d="M894 219H692v36h202v-36z"/><text x="696" y="-270.4" font-family="monospace" font-size="8" transform="translate(4 505)">&amp;#60;perspective-viewer</text><text x="696" y="-260.8" font-family="monospace" font-size="8" transform="translate(4 505)">&amp;#160;&amp;#160;&amp;#160;view=&quot;grid&quot;&amp;#62;</text></g><path fill="none" stroke="#000" stroke-width="2" stroke-dasharray="5,2" d="M656.042 240.017l35.797-.789" data-name="view3-&gt;viewer3"/><g class="node" data-name="view12"><path fill="#edebdf" stroke="transparent" d="M656 326.598H476v46.804h180v-46.804z"/><text x="480" y="-167" font-family="monospace" font-size="8" transform="translate(4 505)">view({</text><text x="480" y="-157.4" font-family="monospace" font-size="8" transform="translate(4 505)">&amp;#160;&amp;#160;&amp;#160;row_pivot: [&quot;Category&quot;]</text><text x="480" y="-147.8" font-family="monospace" font-size="8" transform="translate(4 505)">&amp;#160;&amp;#160;&amp;#160;filter: [[&quot;State&quot;,&quot;==&quot;,&quot;Texas&quot;]]</text><text x="480" y="-138.2" font-family="monospace" font-size="8" transform="translate(4 505)">})</text></g><g class="edge" data-name="table12-&gt;view12" stroke="#e6e2da"><path fill="none" d="M440.356 350h27.342"/><path fill="#e6e2da" d="M467.875 347.2l8 2.8-8 2.8v-5.6z"/></g><g class="node" data-name="viewer5"><path fill="#fff" stroke="#b3b3b3" d="M894 326.598H692v46.804h202v-46.804z"/><text x="696" y="-167" font-family="monospace" font-size="8" transform="translate(4 505)">&amp;#60;perspective-viewer</text><text x="696" y="-157.4" font-family="monospace" font-size="8" transform="translate(4 505)">&amp;#160;&amp;#160;&amp;#160;view=&quot;heatmap&quot;</text><text x="696" y="-147.8" font-family="monospace" font-size="8" transform="translate(4 505)">&amp;#160;&amp;#160;&amp;#160;row-pivots=&apos;[&quot;State&quot;]</text><text x="696" y="-138.2" font-family="monospace" font-size="8" transform="translate(4 505)">&amp;#160;&amp;#160;&amp;#160;column-pivots=&apos;[&quot;Segment&quot;]&apos;&amp;#62;</text></g><path fill="none" stroke="#000" stroke-width="2" stroke-dasharray="5,2" d="M656.042 350h35.797" data-name="view12-&gt;viewer5"/></g></svg>