<svg width="174" height="21" viewBox="0 0 174 21" fill="none" xmlns="http://www.w3.org/2000/svg">
    <path
        d="M0.436 21H2.956V13.216H10.796L13.876 10.136V3.08L10.796 -1.66893e-06H0.436V21ZM2.956 10.696V2.52H9.76L11.356 4.116V9.1L9.76 10.696H2.956ZM18.018 21H30.842V18.48H20.538V11.34H30.002V8.82H20.538V2.52H30.702V-1.66893e-06H18.018V21ZM44.9477 12.544L47.8597 9.632V3.08L44.7797 -1.66893e-06H34.6157V21H37.1357V12.712H41.5037L45.4517 16.66V21H47.9717V15.596L44.9477 12.544ZM37.1357 2.52H43.7437L45.3397 4.116V8.596L43.7437 10.192H37.1357V2.52ZM51.3271 8.54L54.4071 11.62H60.9871L62.5831 13.216V16.884L60.9871 18.48H51.7751V21H62.0231L65.1031 17.92V12.18L62.0231 9.1H55.4711L53.8471 7.504V4.116L55.4711 2.52H64.3471V-1.66893e-06H54.4071L51.3271 3.08V8.54ZM68.9868 21H71.5068V13.216H79.3468L82.4268 10.136V3.08L79.3468 -1.66893e-06H68.9868V21ZM71.5068 10.696V2.52H78.3108L79.9068 4.116V9.1L78.3108 10.696H71.5068ZM86.5688 21H99.3928V18.48H89.0888V11.34H98.5528V8.82H89.0888V2.52H99.2528V-1.66893e-06H86.5688V21ZM102.83 17.92L105.91 21H115.01V18.48H106.946L105.35 16.884V4.116L106.946 2.52H115.01V-1.66893e-06H105.91L102.83 3.08V17.92ZM123.609 21H126.129V2.52H131.981V-1.66893e-06H117.785V2.52H123.609V21ZM135.213 21H137.733V-1.66893e-06H135.213V21ZM142.26 14.896L148.364 21H150.436L156.54 14.896V-1.66893e-06H154.02V13.832L149.4 18.452L144.78 13.832V-1.66893e-06H142.26V14.896ZM161.081 21H173.905V18.48H163.601V11.34H173.065V8.82H163.601V2.52H173.765V-1.66893e-06H161.081V21Z"
        fill="#F4F5F6" />
</svg>