<svg width="14" height="14" viewBox="0 0 14 14" fill="none" xmlns="http://www.w3.org/2000/svg">
<path d="M4.5 3L4.5 11" stroke="#042121" stroke-linecap="round"/>
<path d="M9.5 3L9.5 11" stroke="#042121" stroke-linecap="round"/>
<path d="M6 8.5C6 9.32843 5.32843 10 4.5 10C3.67157 10 3 9.32843 3 8.5C3 7.67157 3.67157 7 4.5 7C5.32843 7 6 7.67157 6 8.5Z" fill="#FDFFFD" stroke="#042121"/>
<path d="M11 5.5C11 6.32843 10.3284 7 9.5 7C8.67157 7 8 6.32843 8 5.5C8 4.67157 8.67157 4 9.5 4C10.3284 4 11 4.67157 11 5.5Z" fill="#FDFFFD" stroke="#042121"/>
</svg>
