<svg width="26" height="19" viewBox="0 0 26 19" fill="none" xmlns="http://www.w3.org/2000/svg">
    <g transform="translate(1, 1)">
        <path
            d="M 0 4 C 0 1.791 1.791 0 4 0 L 26 0 L 26 17 L 4 17 C 1.791 17 0 15.209 0 13 Z M 5.646 5.52 L 8.626 8.5 L 5.646 11.48 C 5.451 11.675 5.451 11.992 5.646 12.187 C 5.842 12.382 6.158 12.382 6.353 12.187 L 9.687 8.854 L 10.04 8.5 L 6.353 4.813 C 6.158 4.618 5.842 4.618 5.646 4.813 C 5.451 5.008 5.451 5.325 5.646 5.52 Z M 9.98 5.52 L 12.96 8.5 L 9.98 11.48 C 9.785 11.675 9.785 11.992 9.98 12.187 C 10.175 12.382 10.492 12.382 10.687 12.187 L 14.374 8.5 L 10.687 4.813 C 10.492 4.618 10.175 4.618 9.98 4.813 C 9.785 5.008 9.785 5.325 9.98 5.52 Z"
            fill="#042121"></path>
    </g>
</svg>