<svg width="26" height="18" viewBox="0 0 25 18" fill="none" xmlns="http://www.w3.org/2000/svg">
    <g transform="translate(0.5, 0.5)">
        <path d="
            M 14.228 11.48 L 11.248 8.5 L 14.228 5.52 C 14.423 5.325 14.423 5.008 14.228 4.813 C 14.033 4.618 13.716 4.618 13.521 4.813 L 9.834 8.5 L 13.521 12.187 C 13.716 12.382 14.033 12.382 14.228 12.187 C 14.423 11.992 14.423 11.675 14.228 11.48 Z
            M 9.894 11.48 L 6.914 8.5 L 9.894 5.52 C 10.089 5.325 10.089 5.008 9.894 4.813 C 9.698 4.618 9.382 4.618 9.187 4.813 L 5.853 8.146 L 5.5 8.5 L 9.187 12.187 C 9.382 12.382 9.698 12.382 9.894 12.187 C 10.089 11.992 10.089 11.675 9.894 11.48 Z 
            " fill="#042121"></path>
    </g>
</svg>