<?xml version="1.0" encoding="utf-8"?>
<!-- Generator: Adobe Illustrator 27.0.0, SVG Export Plug-In . SVG Version: 6.00 Build 0)  -->
<svg version="1.1" xmlns="http://www.w3.org/2000/svg" xmlns:xlink="http://www.w3.org/1999/xlink" x="0px" y="0px"
	 viewBox="0 0 80 70" style="enable-background:new 0 0 80 70;" xml:space="preserve">
<style type="text/css">
	.st0{fill:#042121;}
</style>
<g id="Layer_1">
</g>
<g id="Layer_2">
</g>
<g id="Layer_3">
	<g>
		<path d="M44.4,10H10c-1.1,0-2,0.9-2,2v25.2c0,1.1,0.9,2,2,2h34.4c1.1,0,2-0.9,2-2V12C46.4,10.9,45.5,10,44.4,10z M44.4,37.2H10
			L10,12h0h34.4V37.2z"/>
		<path d="M70,22.5H50.5c-1.1,0-2,0.9-2,2v12.7c0,1.1,0.9,2,2,2H70c1.1,0,2-0.9,2-2V24.5C72,23.4,71.1,22.5,70,22.5z M70,37.2H50.5
			l0-12.7h0H70V37.2z"/>
		<path d="M44.4,41.2H27.1c-1.1,0-2,0.9-2,2V58c0,1.1,0.9,2,2,2h17.3c1.1,0,2-0.9,2-2V43.2C46.4,42.1,45.5,41.2,44.4,41.2z M44.4,58
			H27.1l0-14.8h0h17.3V58z"/>
		<path d="M59.3,41.2h-8.8c-1.1,0-2,0.9-2,2v8.5c0,1.1,0.9,2,2,2h8.8c1.1,0,2-0.9,2-2v-8.5C61.3,42.1,60.4,41.2,59.3,41.2z
			 M59.3,51.8h-8.8l0-8.5h0h8.8V51.8z"/>
	</g>
</g>
<g id="Layer_4">
</g>
<g id="Layer_5">
</g>
<g id="Layer_6">
</g>
<g id="Layer_7">
</g>
<g id="Layer_8">
</g>
<g id="Layer_9">
</g>
<g id="Layer_10">
</g>
<g id="Layer_12">
</g>
<g id="Layer_13">
</g>
<g id="Layer_11">
</g>
</svg>
