<?xml version="1.0" encoding="utf-8"?>
<!-- Generator: Adobe Illustrator 27.0.0, SVG Export Plug-In . SVG Version: 6.00 Build 0)  -->
<svg version="1.1" xmlns="http://www.w3.org/2000/svg" xmlns:xlink="http://www.w3.org/1999/xlink" x="0px" y="0px"
	 viewBox="0 0 80 70" style="enable-background:new 0 0 80 70;" xml:space="preserve">
<style type="text/css">
	.st0{fill:#042121;}
</style>
<g id="Layer_1">
	<g>
		<path class="st0" d="M70,10H10c-1.1,0-2,0.9-2,2v46c0,1.1,0.9,2,2,2h60c1.1,0,2-0.9,2-2V12C72,10.9,71.1,10,70,10z M70,12v14H56.5
			V12H70z M54.5,38H41v-2h13.5V38z M54.5,34H41v-2h13.5V34z M54.5,30H41v-2h13.5V30z M25.5,40.4l12-12.4h1.1L25.5,41.5V40.4z
			 M25.5,37.5v-1.1l8.1-8.4h1.1L25.5,37.5z M25.5,33.5v-1.1l4.2-4.4h1.1L25.5,33.5z M25.5,29.5V28H27L25.5,29.5z M23.5,42H10l0-14
			h13.5V42z M39,30.4v1.1L28.9,42h-1.1L39,30.4z M39,34.4v1.1L32.8,42h-1.1L39,34.4z M39,38.4v1.1L36.7,42h-1.1L39,38.4z M41,40
			h13.5v2H41V40z M56.5,28H70v14H56.5V28z M54.5,12v14H41V12H54.5z M39,12v14H25.5V12H39z M10,12h13.5v14H10L10,12L10,12z M10,58
			l0-14h13.5v14H10z M25.5,58V44H39v14H25.5z M41,58V44h13.5v14H41z M56.5,58V44H70v14H56.5z"/>
		<path class="st0" d="M43.9,24c0.5,0,1-0.4,1-1c0-0.6-0.4-1-1-1c-0.5,0-1,0.4-1,1C42.9,23.6,43.3,24,43.9,24z"/>
		<path class="st0" d="M43.9,20c0.5,0,1-0.4,1-1c0-0.6-0.4-1-1-1c-0.5,0-1,0.4-1,1C42.9,19.6,43.3,20,43.9,20z"/>
		<path class="st0" d="M43.9,16c0.5,0,1-0.4,1-1c0-0.6-0.4-1-1-1c-0.5,0-1,0.4-1,1C42.9,15.6,43.3,16,43.9,16z"/>
		<path class="st0" d="M47.8,24c0.5,0,1-0.4,1-1c0-0.6-0.4-1-1-1c-0.5,0-1,0.4-1,1C46.8,23.6,47.2,24,47.8,24z"/>
		<path class="st0" d="M47.8,20c0.5,0,1-0.4,1-1c0-0.6-0.4-1-1-1c-0.5,0-1,0.4-1,1C46.8,19.6,47.2,20,47.8,20z"/>
		<path class="st0" d="M47.8,16c0.5,0,1-0.4,1-1c0-0.6-0.4-1-1-1c-0.5,0-1,0.4-1,1C46.8,15.6,47.2,16,47.8,16z"/>
		<path class="st0" d="M51.6,24c0.5,0,1-0.4,1-1c0-0.6-0.4-1-1-1c-0.5,0-1,0.4-1,1C50.7,23.6,51.1,24,51.6,24z"/>
		<path class="st0" d="M51.6,20c0.5,0,1-0.4,1-1c0-0.6-0.4-1-1-1c-0.5,0-1,0.4-1,1C50.7,19.6,51.1,20,51.6,20z"/>
		<path class="st0" d="M51.6,16c0.5,0,1-0.4,1-1c0-0.6-0.4-1-1-1c-0.5,0-1,0.4-1,1C50.7,15.6,51.1,16,51.6,16z"/>
		<path class="st0" d="M28.4,54c-0.5,0-1,0.4-1,1c0,0.6,0.4,1,1,1c0.5,0,1-0.4,1-1C29.3,54.4,28.9,54,28.4,54z"/>
		<path class="st0" d="M28.4,50c-0.5,0-1,0.4-1,1c0,0.6,0.4,1,1,1c0.5,0,1-0.4,1-1C29.3,50.4,28.9,50,28.4,50z"/>
		<path class="st0" d="M28.4,46c-0.5,0-1,0.4-1,1c0,0.6,0.4,1,1,1c0.5,0,1-0.4,1-1C29.3,46.4,28.9,46,28.4,46z"/>
		<path class="st0" d="M32.2,54c-0.5,0-1,0.4-1,1c0,0.6,0.4,1,1,1c0.5,0,1-0.4,1-1C33.2,54.4,32.8,54,32.2,54z"/>
		<path class="st0" d="M32.2,50c-0.5,0-1,0.4-1,1c0,0.6,0.4,1,1,1c0.5,0,1-0.4,1-1C33.2,50.4,32.8,50,32.2,50z"/>
		<path class="st0" d="M32.2,46c-0.5,0-1,0.4-1,1c0,0.6,0.4,1,1,1c0.5,0,1-0.4,1-1C33.2,46.4,32.8,46,32.2,46z"/>
		<path class="st0" d="M36.1,54c-0.5,0-1,0.4-1,1c0,0.6,0.4,1,1,1c0.5,0,1-0.4,1-1C37.1,54.4,36.7,54,36.1,54z"/>
		<path class="st0" d="M36.1,50c-0.5,0-1,0.4-1,1c0,0.6,0.4,1,1,1c0.5,0,1-0.4,1-1C37.1,50.4,36.7,50,36.1,50z"/>
		<path class="st0" d="M36.1,46c-0.5,0-1,0.4-1,1c0,0.6,0.4,1,1,1c0.5,0,1-0.4,1-1C37.1,46.4,36.7,46,36.1,46z"/>
	</g>
</g>
<g id="Layer_2">
</g>
<g id="Layer_3">
</g>
<g id="Layer_4">
</g>
<g id="Layer_5">
</g>
<g id="Layer_6">
</g>
<g id="Layer_7">
</g>
<g id="Layer_8">
</g>
<g id="Layer_9">
</g>
<g id="Layer_10">
</g>
<g id="Layer_12">
</g>
<g id="Layer_13">
</g>
<g id="Layer_11">
</g>
</svg>
