<?xml version="1.0" encoding="utf-8"?>
<!-- Generator: Adobe Illustrator 27.0.0, SVG Export Plug-In . SVG Version: 6.00 Build 0)  -->
<svg version="1.1" xmlns="http://www.w3.org/2000/svg" xmlns:xlink="http://www.w3.org/1999/xlink" x="0px" y="0px"
	 viewBox="0 0 80 70" style="enable-background:new 0 0 80 70;" xml:space="preserve">
<style type="text/css">
	.st0{fill:#042121;}
</style>
<g id="Layer_1">
</g>
<g id="Layer_2">
</g>
<g id="Layer_3">
</g>
<g id="Layer_4">
</g>
<g id="Layer_5">
</g>
<g id="Layer_6">
</g>
<g id="Layer_7">
	<g>
		<path class="st0" d="M65.2,21.7L54,28.8l-11.2-8.1L29.6,32.5l-9.8-16.2L10,28.2V10H8v42v2v3c0,1.7,1.3,3,3,3h60h2V31.7L65.2,21.7z
			 M22.2,24.1c-0.3,0.2-0.6,0.5-0.6,0.9c0,0.6,0.4,1,1,1c0.2,0,0.5-0.1,0.6-0.2l5.9,9.8L41,25c0,0.5,0.4,1,1,1c0.5,0,1-0.4,1-1
			c0-0.5-0.3-0.9-0.8-1l0.9-0.8l1.9,1.4c0,0.1-0.1,0.2-0.1,0.3c0,0.6,0.4,1,1,1c0.2,0,0.4-0.1,0.6-0.2l3.1,2.3
			c-0.5,0.1-0.8,0.5-0.8,1c0,0.6,0.4,1,1,1c0.5,0,1-0.4,1-1c0-0.1,0-0.1,0-0.2l3.3,2.4l2.7-1.7c0.2,0.3,0.5,0.5,0.8,0.5
			c0.5,0,1-0.4,1-1c0-0.2-0.1-0.4-0.2-0.5l6.1-3.9c0,0.1-0.1,0.2-0.1,0.4c0,0.6,0.4,1,1,1c0.3,0,0.5-0.1,0.6-0.3l2.3,3
			c0,0.1-0.1,0.2-0.1,0.3c0,0.6,0.4,1,1,1c0,0,0,0,0.1,0l1.8,2.4v6.6l-1.1-1.5c0.1-0.1,0.1-0.3,0.1-0.5c0-0.6-0.4-1-1-1
			c-0.1,0-0.1,0-0.2,0l-2.4-3.3l-0.4,0.1c0-0.5-0.4-0.9-1-0.9c-0.5,0-1,0.4-1,1c0,0.2,0.1,0.4,0.2,0.6L58,36.2
			c-0.2-0.1-0.3-0.2-0.5-0.2c-0.5,0-0.8,0.3-0.9,0.8l-2.2,0.9c0.1-0.2,0.2-0.4,0.2-0.6c0-0.6-0.4-1-1-1c-0.5,0-1,0.4-1,1
			c0,0.1,0,0.1,0,0.2l-5.9-3.9c0-0.1,0.1-0.2,0.1-0.3c0-0.6-0.4-1-1-1c-0.3,0-0.5,0.1-0.7,0.3l-2.3-1.5L31.3,41c0-0.5-0.4-1-1-1
			c-0.5,0-1,0.4-1,1c0,0.5,0.3,0.9,0.8,1l-0.6,0.5l-2.8-4.5c0.3-0.2,0.6-0.5,0.6-0.9c0-0.6-0.4-1-1-1c-0.2,0-0.5,0.1-0.6,0.2l-6-10
			l-1.5,1.8c-0.3,0.1-0.4,0.4-0.5,0.6L15,32.1C15,32,14.9,32,14.8,32c-0.5,0-1,0.4-1,1c0,0.2,0,0.3,0.1,0.4l-2.3,2.9
			c-0.2-0.2-0.4-0.3-0.7-0.3c-0.4,0-0.8,0.3-0.9,0.7v-3.4c0.1,0.4,0.5,0.7,0.9,0.7c0.5,0,1-0.4,1-1c0-0.6-0.4-1-1-1
			c-0.4,0-0.8,0.3-0.9,0.7v-1.3l1.2-1.4c0.4-0.1,0.7-0.4,0.7-0.9l2.6-3.2c0.1,0,0.2,0.1,0.3,0.1c0.5,0,1-0.4,1-1
			c0-0.2-0.1-0.4-0.1-0.5l2.3-2.9c0.2,0.2,0.4,0.4,0.7,0.4c0.5,0,1-0.4,1-1c0-0.4-0.2-0.7-0.5-0.8l0.4-0.4L22.2,24.1z M47.2,46l3,2
			H37.6l2.4-2.1V46H47.2z M42.2,44l0.8-0.7l1.1,0.7H42.2z M63.9,46h2.5l1.5,2h-9L63.9,46z M35.4,50h17.9l0.2,0.1l0.3-0.1h15.5l1.5,2
			H33.1L35.4,50z M66.5,42.8L63.5,44h-0.2v0.1l-9.6,3.8l-10.9-7.1L29.6,52.5l-9.8-16.2L10.2,48H10v-6.6l9.5-11.6l9.6,15.8L43,33.3
			l10.5,6.9l12.4-4.9l5.2,7.1v6.6L66.5,42.8z M17.7,42h3.2l1.2,2H16L17.7,42z M19.3,40l0.2-0.3l0.2,0.3H19.3z M14.4,46h8.9l1.2,2
			H12.7L14.4,46z M10,37.3c0.1,0.2,0.2,0.4,0.3,0.5L10,38.2V37.3z M10,51.4l1.1-1.4h14.6l1.2,2H10V51.4z M10,54h18.2l0.9,1.5
			l1.7-1.5H71v2H10V54z"/>
		<path class="st0" d="M14.8,28c-0.5,0-1,0.4-1,1c0,0.6,0.4,1,1,1c0.5,0,1-0.4,1-1C15.8,28.4,15.3,28,14.8,28z"/>
		<path class="st0" d="M18.7,24c-0.5,0-1,0.4-1,1c0,0.6,0.4,1,1,1c0.5,0,1-0.4,1-1C19.6,24.4,19.2,24,18.7,24z"/>
		<path class="st0" d="M22.5,30c0.5,0,1-0.4,1-1c0-0.6-0.4-1-1-1c-0.5,0-1,0.4-1,1C21.6,29.6,22,30,22.5,30z"/>
		<path class="st0" d="M26.4,34c0.5,0,1-0.4,1-1c0-0.6-0.4-1-1-1c-0.5,0-1,0.4-1,1C25.5,33.6,25.9,34,26.4,34z"/>
		<path class="st0" d="M30.3,38c0.5,0,1-0.4,1-1c0-0.6-0.4-1-1-1c-0.5,0-1,0.4-1,1C29.3,37.6,29.8,38,30.3,38z"/>
		<path class="st0" d="M34.2,38c0.5,0,1-0.4,1-1c0-0.6-0.4-1-1-1s-1,0.4-1,1C33.2,37.6,33.6,38,34.2,38z"/>
		<path class="st0" d="M34.2,34c0.5,0,1-0.4,1-1c0-0.6-0.4-1-1-1s-1,0.4-1,1C33.2,33.6,33.6,34,34.2,34z"/>
		<path class="st0" d="M38.1,34c0.5,0,1-0.4,1-1c0-0.6-0.4-1-1-1c-0.5,0-1,0.4-1,1C37.1,33.6,37.5,34,38.1,34z"/>
		<path class="st0" d="M38.1,30c0.5,0,1-0.4,1-1c0-0.6-0.4-1-1-1c-0.5,0-1,0.4-1,1C37.1,29.6,37.5,30,38.1,30z"/>
		<path class="st0" d="M45.8,30c0.5,0,1-0.4,1-1c0-0.6-0.4-1-1-1c-0.5,0-1,0.4-1,1C44.8,29.6,45.3,30,45.8,30z"/>
		<path class="st0" d="M41.9,30c0.5,0,1-0.4,1-1c0-0.6-0.4-1-1-1c-0.5,0-1,0.4-1,1C41,29.6,41.4,30,41.9,30z"/>
		<path class="st0" d="M49.7,34c0.5,0,1-0.4,1-1c0-0.6-0.4-1-1-1c-0.5,0-1,0.4-1,1C48.7,33.6,49.2,34,49.7,34z"/>
		<path class="st0" d="M53.6,34c0.5,0,1-0.4,1-1c0-0.6-0.4-1-1-1c-0.5,0-1,0.4-1,1C52.6,33.6,53,34,53.6,34z"/>
		<path class="st0" d="M57.5,34c0.5,0,1-0.4,1-1c0-0.6-0.4-1-1-1c-0.5,0-1,0.4-1,1C56.5,33.6,56.9,34,57.5,34z"/>
		<path class="st0" d="M61.3,30c0.5,0,1-0.4,1-1c0-0.6-0.4-1-1-1c-0.5,0-1,0.4-1,1C60.4,29.6,60.8,30,61.3,30z"/>
		<path class="st0" d="M65.2,30c0.5,0,1-0.4,1-1c0-0.6-0.4-1-1-1c-0.5,0-1,0.4-1,1C64.2,29.6,64.7,30,65.2,30z"/>
		<path class="st0" d="M69.1,34c0.5,0,1-0.4,1-1c0-0.6-0.4-1-1-1c-0.5,0-1,0.4-1,1C68.1,33.6,68.6,34,69.1,34z"/>
		<path class="st0" d="M61.3,34c0.5,0,1-0.4,1-1c0-0.6-0.4-1-1-1c-0.5,0-1,0.4-1,1C60.4,33.6,60.8,34,61.3,34z"/>
	</g>
</g>
<g id="Layer_8">
</g>
<g id="Layer_9">
</g>
<g id="Layer_10">
</g>
<g id="Layer_12">
</g>
<g id="Layer_13">
</g>
<g id="Layer_11">
</g>
</svg>
