<?xml version="1.0" encoding="utf-8"?>
<!-- Generator: Adobe Illustrator 27.0.0, SVG Export Plug-In . SVG Version: 6.00 Build 0)  -->
<svg version="1.1" xmlns="http://www.w3.org/2000/svg" xmlns:xlink="http://www.w3.org/1999/xlink" x="0px" y="0px"
	 viewBox="0 0 80 70" style="enable-background:new 0 0 80 70;" xml:space="preserve">
<style type="text/css">
	.st0{fill:#042121;}
</style>
<g id="Layer_1">
</g>
<g id="Layer_2">
</g>
<g id="Layer_3">
</g>
<g id="Layer_4">
</g>
<g id="Layer_5">
</g>
<g id="Layer_6">
</g>
<g id="Layer_7">
</g>
<g id="Layer_8">
</g>
<g id="Layer_9">
</g>
<g id="Layer_10">
</g>
<g id="Layer_12">
	<path class="st0" d="M65.5,58V48h-2v10h-4V28h-2v30h-4V18h-2v40h-4V40h-2v18h-4V12h-2v46h-4V20h-2v38h-4V18h-2v40h-4V24h-2v34h-4
		V34h-2v24h-5c-0.6,0-1-0.4-1-1V10h-2v47c0,1.7,1.3,3,3,3h5h2h4h2h4h2h4h2h4h2h4h2h4h2h4h2h4h2h6v-2H65.5z"/>
</g>
<g id="Layer_13">
</g>
<g id="Layer_11">
</g>
</svg>
