<?xml version="1.0" encoding="utf-8"?>
<!-- Generator: Adobe Illustrator 27.0.0, SVG Export Plug-In . SVG Version: 6.00 Build 0)  -->
<svg version="1.1" xmlns="http://www.w3.org/2000/svg" xmlns:xlink="http://www.w3.org/1999/xlink" x="0px" y="0px"
	 viewBox="0 0 80 70" style="enable-background:new 0 0 80 70;" xml:space="preserve">
<style type="text/css">
	.st0{fill:#042121;}
</style>
<g id="Layer_1">
</g>
<g id="Layer_2">
</g>
<g id="Layer_3">
</g>
<g id="Layer_4">
</g>
<g id="Layer_5">
</g>
<g id="Layer_6">
	<path class="st0" d="M11,58.5c-0.6,0-1-0.4-1-1v-3h50.4v-2H10v-4h23.2v-2H10v-4h60.1v-2H10v-4h48.4v-2H10v-4h50.4v-2H10v-4h42.6v-2
		H10v-4h31v-2H10v-6H8v6v2v4v2v4v2v4v2v4v2v4v2v4v2v3c0,1.7,1.3,3,3,3h61v-2H11z"/>
</g>
<g id="Layer_7">
</g>
<g id="Layer_8">
</g>
<g id="Layer_9">
</g>
<g id="Layer_10">
</g>
<g id="Layer_12">
</g>
<g id="Layer_13">
</g>
<g id="Layer_11">
</g>
</svg>
