<?xml version="1.0" encoding="utf-8"?>
<!-- Generator: Adobe Illustrator 27.0.0, SVG Export Plug-In . SVG Version: 6.00 Build 0)  -->
<svg version="1.1" xmlns="http://www.w3.org/2000/svg" xmlns:xlink="http://www.w3.org/1999/xlink" x="0px" y="0px"
	 viewBox="0 0 80 70" style="enable-background:new 0 0 80 70;" xml:space="preserve">
<style type="text/css">
	.st0{fill:#042121;}
</style>
<g id="Layer_1">
</g>
<g id="Layer_2">
</g>
<g id="Layer_3">
</g>
<g id="Layer_4">
</g>
<g id="Layer_5">
	<g>
		<path class="st0" d="M71.5,57.9l-4.9-22c-0.2-0.9-1-1.6-2-1.6H50.4l3.5-6.8c2-3.8,1.8-8.5-0.4-12.2c-2.3-3.7-6.2-5.8-10.5-5.8
			s-8.2,2.2-10.5,5.8c-2.3,3.7-2.4,8.3-0.4,12.2l3.5,6.8H15.4c-0.9,0-1.7,0.6-2,1.6l-4.9,22c-0.1,0.6,0,1.2,0.4,1.7
			c0.4,0.5,1,0.8,1.6,0.8h59c0.6,0,1.2-0.3,1.6-0.7C71.4,59.2,71.6,58.5,71.5,57.9z M34.2,16.5c1.9-3.1,5.2-4.9,8.8-4.9
			s6.9,1.8,8.8,4.9c1.9,3.1,2,7,0.4,10.2L43,44.2l-9.1-17.5C32.2,23.5,32.3,19.6,34.2,16.5z M10.5,58.4l4.9-22h21.2L43,48.5
			l6.3-12.2l15.2,0l4.9,22H10.5z"/>
		<path class="st0" d="M50,21.4c0-3.9-3.1-7-7-7s-7,3.1-7,7s3.1,7,7,7S50,25.2,50,21.4z M38,21.4c0-2.8,2.2-5,5-5s5,2.2,5,5
			s-2.2,5-5,5S38,24.1,38,21.4z"/>
	</g>
</g>
<g id="Layer_6">
</g>
<g id="Layer_7">
</g>
<g id="Layer_8">
</g>
<g id="Layer_9">
</g>
<g id="Layer_10">
</g>
<g id="Layer_12">
</g>
<g id="Layer_13">
</g>
<g id="Layer_11">
</g>
</svg>
