<?xml version="1.0" encoding="utf-8"?>
<!-- Generator: Adobe Illustrator 27.0.0, SVG Export Plug-In . SVG Version: 6.00 Build 0)  -->
<svg version="1.1" xmlns="http://www.w3.org/2000/svg" xmlns:xlink="http://www.w3.org/1999/xlink" x="0px" y="0px"
	 viewBox="0 0 80 70" style="enable-background:new 0 0 80 70;" xml:space="preserve">
<style type="text/css">
	.st0{fill:#042121;}
</style>
<g id="Layer_1">
</g>
<g id="Layer_2">
</g>
<g id="Layer_3">
</g>
<g id="Layer_4">
</g>
<g id="Layer_5">
</g>
<g id="Layer_6">
</g>
<g id="Layer_7">
</g>
<g id="Layer_8">
</g>
<g id="Layer_9">
	<path class="st0" d="M9.5,57.5V36h3l12.3,8.6l0.7-2l3.2,4.6l13.9-5.3l5.3,9.9l7.8-9.4l14.8,8.5l1.3-1.4L60.6,33.4l-5.4,6.5
		l-5.1-2.9l-6.6,2.5L31.7,17.5l-6.9,20.7l-2.5-3.6l-2.2-7.9L9.5,30.7V10.5h-2v47c0,1.7,1.3,3,3,3h61v-2h-61
		C9.9,58.5,9.5,58.1,9.5,57.5z M60.4,36.6l7.2,10.3L57,40.8L60.4,36.6z M49.9,39.1l4,2.3l-5.6,6.8l-3.8-7L49.9,39.1z M32.1,22.5
		l9.5,17.6l-12.2,4.7l-3.2-4.6L32.1,22.5z M18.8,29.3l1.7,6.1l3.5,5.1l-0.3,0.9L13.1,34H9.5v-1.1L18.8,29.3z"/>
</g>
<g id="Layer_10">
</g>
<g id="Layer_12">
</g>
<g id="Layer_13">
</g>
<g id="Layer_11">
</g>
</svg>
