<?xml version="1.0" encoding="utf-8"?>
<!-- Generator: Adobe Illustrator 27.0.0, SVG Export Plug-In . SVG Version: 6.00 Build 0)  -->
<svg version="1.1" xmlns="http://www.w3.org/2000/svg" xmlns:xlink="http://www.w3.org/1999/xlink" x="0px" y="0px"
	 viewBox="0 0 80 70" style="enable-background:new 0 0 80 70;" xml:space="preserve">
<style type="text/css">
	.st0{fill:#042121;}
</style>
<g id="Layer_1">
</g>
<g id="Layer_2">
</g>
<g id="Layer_3">
</g>
<g id="Layer_4">
	<path class="st0" d="M40.5,10c-13.8,0-25,11.2-25,25s11.2,25,25,25s25-11.2,25-25S54.3,10,40.5,10z M63.5,36.1H43.1l16.1-14.3
		c2.7,3.8,4.2,8.3,4.2,13.3C63.5,35.4,63.5,35.7,63.5,36.1z M58,20.2L41.5,34.9V12C48.1,12.3,54,15.4,58,20.2z M39.5,12v22.8
		L23,20.2C27,15.4,32.9,12.3,39.5,12z M21.7,21.7l16.1,14.3H17.5c0-0.4,0-0.7,0-1.1C17.5,30.1,19.1,25.5,21.7,21.7z M17.7,38.1h20.9
		L27.9,54.2C22.4,50.6,18.6,44.8,17.7,38.1z M29.6,55.2l10.9-16.4l11.6,16c-3.4,2-7.4,3.2-11.6,3.2C36.6,58,32.8,57,29.6,55.2z
		 M53.8,53.8L42.5,38.1h20.8C62.4,44.5,58.9,50.2,53.8,53.8z"/>
</g>
<g id="Layer_5">
</g>
<g id="Layer_6">
</g>
<g id="Layer_7">
</g>
<g id="Layer_8">
</g>
<g id="Layer_9">
</g>
<g id="Layer_10">
</g>
<g id="Layer_12">
</g>
<g id="Layer_13">
</g>
<g id="Layer_11">
</g>
</svg>
