<svg width="13" height="13" viewBox="0 0 13 13" fill="none" xmlns="http://www.w3.org/2000/svg">
    <defs></defs>
    <path d="M 7.136 7.67 L 5.418 7.67 L 5.902 5.594 L 7.62 5.594 L 7.136 7.67 Z M 6.513 10.264 L 7.32 10.264 L 7.782 8.338 L 9.188 8.338 L 9.304 7.67 L 7.943 7.67 L 8.427 5.594 L 9.673 5.594 L 9.799 4.914 L 8.589 4.914 L 9.05 3 L 8.243 3 L 7.782 4.914 L 6.063 4.914 L 6.525 3 L 5.718 3 L 5.256 4.914 L 3.861 4.914 L 3.734 5.594 L 5.095 5.594 L 4.611 7.67 L 3.365 7.67 L 3.25 8.338 L 4.449 8.338 L 3.988 10.264 L 4.795 10.264 L 5.256 8.338 L 6.974 8.338 L 6.513 10.264 Z" fill="black"></path>
</svg>