<svg width="17" height="16" viewBox="0 0 17 16" fill="none" xmlns="http://www.w3.org/2000/svg">
<path d="M7.15796 8.37392C6.85343 8.37392 6.60655 8.12704 6.60655 7.82251C6.60655 7.51798 6.85343 7.2711 7.15796 7.2711L7.15796 8.37392ZM13.3334 7.43261C13.5487 7.64794 13.5487 7.99707 13.3334 8.21241L9.82423 11.7215C9.60889 11.9369 9.25976 11.9369 9.04442 11.7215C8.82908 11.5062 8.82908 11.1571 9.04442 10.9417L12.1636 7.82251L9.04442 4.70329C8.82908 4.48795 8.82908 4.13882 9.04442 3.92348C9.25976 3.70814 9.60889 3.70814 9.82422 3.92348L13.3334 7.43261ZM7.15796 7.2711L12.9434 7.2711L12.9434 8.37392L7.15796 8.37392L7.15796 7.2711Z" fill="#042121"/>
<line x1="4.67226" y1="3.41113" x2="4.67226" y2="12.2336" stroke="#042121" stroke-width="1.10281"/>
</svg>
