<svg width="17" height="16" viewBox="0 0 17 16" fill="none" xmlns="http://www.w3.org/2000/svg">
<path d="M8.85414 9.09399C8.85414 9.39853 8.60727 9.6454 8.30273 9.6454C7.9982 9.6454 7.75133 9.39853 7.75133 9.09399L8.85414 9.09399ZM7.91283 2.9186C8.12817 2.70326 8.4773 2.70326 8.69264 2.9186L12.2018 6.42773C12.4171 6.64307 12.4171 6.9922 12.2018 7.20753C11.9864 7.42287 11.6373 7.42287 11.422 7.20753L8.30273 4.08831L5.18351 7.20753C4.96817 7.42287 4.61904 7.42287 4.4037 7.20753C4.18837 6.9922 4.18837 6.64307 4.4037 6.42773L7.91283 2.9186ZM7.75133 9.09399L7.75133 3.3085L8.85414 3.3085L8.85414 9.09399L7.75133 9.09399Z" fill="#042121"/>
<line x1="3.89136" y1="11.5795" x2="12.7139" y2="11.5795" stroke="#042121" stroke-width="1.10281"/>
</svg>
