<svg width="17" height="16" viewBox="0 0 17 16" fill="none" xmlns="http://www.w3.org/2000/svg">
<path d="M9.99927 7.2711C10.3038 7.2711 10.5507 7.51798 10.5507 7.82251C10.5507 8.12704 10.3038 8.37392 9.99927 8.37392L9.99927 7.2711ZM3.82387 8.21241C3.60854 7.99708 3.60854 7.64795 3.82387 7.43261L7.333 3.92348C7.54834 3.70814 7.89747 3.70814 8.11281 3.92348C8.32814 4.13882 8.32814 4.48795 8.11281 4.70329L4.99358 7.82251L8.11281 10.9417C8.32815 11.1571 8.32815 11.5062 8.11281 11.7215C7.89747 11.9369 7.54834 11.9369 7.333 11.7215L3.82387 8.21241ZM9.99927 8.37392L4.21378 8.37392L4.21378 7.2711L9.99927 7.2711L9.99927 8.37392Z" fill="#042121"/>
<line x1="12.4847" y1="12.2336" x2="12.4847" y2="3.41114" stroke="#042121" stroke-width="1.10281"/>
</svg>
