<svg width="16" height="16" viewBox="0 0 16 16" fill="none" xmlns="http://www.w3.org/2000/svg">
<path d="M7.16832 6.34546C7.16832 6.04093 7.41519 5.79405 7.71973 5.79405C8.02426 5.79405 8.27113 6.04093 8.27113 6.34546L7.16832 6.34546ZM8.10963 12.5209C7.89429 12.7362 7.54516 12.7362 7.32982 12.5209L3.8207 9.01172C3.60536 8.79639 3.60536 8.44726 3.8207 8.23192C4.03603 8.01658 4.38516 8.01658 4.6005 8.23192L7.71973 11.3511L10.839 8.23192C11.0543 8.01658 11.4034 8.01658 11.6188 8.23192C11.8341 8.44726 11.8341 8.79639 11.6188 9.01172L8.10963 12.5209ZM8.27113 6.34546L8.27113 12.1309L7.16832 12.1309L7.16832 6.34546L8.27113 6.34546Z" fill="#042121"/>
<line x1="12.1309" y1="3.85976" x2="3.30836" y2="3.85976" stroke="#042121" stroke-width="1.10281"/>
</svg>
