<svg width="20" height="20" viewBox="0 0 20 20" fill="none" xmlns="http://www.w3.org/2000/svg">
    <path d="M10 14V15" stroke="#042121" />
    <path d="M9 14V15" stroke="#042121" />
    <path d="M11 14V15" stroke="#042121" />
    <path d="M12 14V15" stroke="#042121" />
    <path d="M13 13V14" stroke="#042121" />
    <path d="M14 12V13" stroke="#042121" />
    <path d="M14 11V12" stroke="#042121" />
    <path d="M14 10V11" stroke="#042121" />
    <path d="M14 9V10" stroke="#042121" />
    <path d="M14 8V9" stroke="#042121" />
    <path d="M13 7V8" stroke="#042121" />
    <path d="M12 6V7" stroke="#042121" />
    <path d="M11 6V7" stroke="#042121" />
    <path d="M10 6V7" stroke="#042121" />
    <path d="M9 6V7" stroke="#042121" />
    <path d="M8 6V7" stroke="#042121" />
    <path d="M7 7V8" stroke="#042121" />
    <path d="M6 8V9" stroke="#042121" />
    <path d="M6 9V10" stroke="#042121" />
    <path d="M6 10V11" stroke="#042121" />
    <path d="M6 11V12" stroke="#042121" />
    <path d="M6 12V13" stroke="#042121" />
    <path d="M7 13V14" stroke="#042121" />
    <path d="M8 14V15" stroke="#042121" />
</svg>