<svg width="20" height="20" viewBox="0 0 20 20" fill="none" xmlns="http://www.w3.org/2000/svg">
    <path d="M4 16L3 16" stroke="#042121" />
    <path d="M4 17L3 17" stroke="#042121" />
    <path d="M3 16L2 16" stroke="#042121" />
    <path d="M19 16L18 16" stroke="#042121" />
    <path d="M3 15L2 15" stroke="#042121" />
    <path d="M19 15L18 15" stroke="#042121" />
    <path d="M5 14L4 14" stroke="#042121" />
    <path d="M6 12L5 12" stroke="#042121" />
    <path d="M7 10L6 10" stroke="#042121" />
    <path d="M9 6L8 6" stroke="#042121" />
    <path d="M8 8L7 8" stroke="#042121" />
    <path d="M14 8L13 8" stroke="#042121" />
    <path d="M15 10L14 10" stroke="#042121" />
    <path d="M16 12L15 12" stroke="#042121" />
    <path d="M17 14L16 14" stroke="#042121" />
    <path d="M5 13L4 13" stroke="#042121" />
    <path d="M6 11L5 11" stroke="#042121" />
    <path d="M7 9L6 9" stroke="#042121" />
    <path d="M8 7L7 7" stroke="#042121" />
    <path d="M9 5L8 5" stroke="#042121" />
    <path d="M14 7L13 7" stroke="#042121" />
    <path d="M15 9L14 9" stroke="#042121" />
    <path d="M16 11L15 11" stroke="#042121" />
    <path d="M17 13L16 13" stroke="#042121" />
    <path d="M18 16L17 16" stroke="#042121" />
    <path d="M18 15L17 15" stroke="#042121" />
    <path d="M4 15L3 15" stroke="#042121" />
    <path d="M4 14L3 14" stroke="#042121" />
    <path d="M5 12L4 12" stroke="#042121" />
    <path d="M6 10L5 10" stroke="#042121" />
    <path d="M7 8L6 8" stroke="#042121" />
    <path d="M8 6L7 6" stroke="#042121" />
    <path d="M10 3L9 3" stroke="#042121" />
    <path d="M14 6L13 6" stroke="#042121" />
    <path d="M13 6L12 6" stroke="#042121" />
    <path d="M13 5L12 5" stroke="#042121" />
    <path d="M12 3L11 3" stroke="#042121" />
    <path d="M10 4L9 4" stroke="#042121" />
    <path d="M12 4L11 4" stroke="#042121" />
    <path d="M10 5L9 5" stroke="#042121" />
    <path d="M11 3L10 3" stroke="#042121" />
    <path d="M11 3L10 3" stroke="#042121" />
    <path d="M11 4L10 4" stroke="#042121" />
    <path d="M11 8L10 8" stroke="#042121" />
    <path d="M11 9L10 9" stroke="#042121" />
    <path d="M11 10L10 10" stroke="#042121" />
    <path d="M11 11L10 11" stroke="#042121" />
    <path d="M11 12L10 12" stroke="#042121" />
    <path d="M11 14L10 14" stroke="#042121" />
    <path d="M12 5L11 5" stroke="#042121" />
    <path d="M15 8L14 8" stroke="#042121" />
    <path d="M16 10L15 10" stroke="#042121" />
    <path d="M17 12L16 12" stroke="#042121" />
    <path d="M18 14L17 14" stroke="#042121" />
    <path d="M5 17L4 17" stroke="#042121" />
    <path d="M6 17L5 17" stroke="#042121" />
    <path d="M7 17L6 17" stroke="#042121" />
    <path d="M8 17L7 17" stroke="#042121" />
    <path d="M9 17L8 17" stroke="#042121" />
    <path d="M10 17L9 17" stroke="#042121" />
    <path d="M11 17L10 17" stroke="#042121" />
    <path d="M12 17L11 17" stroke="#042121" />
    <path d="M13 17L12 17" stroke="#042121" />
    <path d="M14 17L13 17" stroke="#042121" />
    <path d="M15 17L14 17" stroke="#042121" />
    <path d="M16 17L15 17" stroke="#042121" />
    <path d="M17 17L16 17" stroke="#042121" />
    <path d="M18 17L17 17" stroke="#042121" />
</svg>