<svg xmlns="http://www.w3.org/2000/svg" width="590pt" height="173pt" viewBox="0 0 590 173"><g class="graph" data-name="G"><path fill="#fff" stroke="transparent" d="M0 173V0h590v173H0z"/><g class="cluster"><path fill="#cadee1" stroke="#cadee1" d="M12 161V12h566v149H12z"/><text text-anchor="middle" x="41.665" y="-124.4" font-family="Helvetica,sans-Serif" font-size="14" fill="#4d4d4d" transform="translate(4 169)">Browser</text></g><g class="cluster"><path fill="#2d4c68" stroke="transparent" d="M22 151V63h308v88H22z"/><text text-anchor="middle" x="56.555" y="-81" font-family="Helvetica,sans-Serif" font-size="10" fill="#edebdf" transform="translate(4 169)">WebWorker 1</text></g><g class="cluster"><path fill="#fff" stroke="transparent" d="M346 151V68h222v83H346z"/><text text-anchor="middle" x="361.846" y="-80.8" font-family="monospace" font-size="8" fill="#4d4d4d" transform="translate(4 169)">&amp;#60;html&amp;#62;</text></g><g class="edge" data-name="table1-&gt;view2" data-comment="table_thread_2-&gt;view_thread_2" stroke="#edebdf"><path fill="none" d="M104.356 123h27.342"/><path fill="#edebdf" d="M131.875 120.2l8 2.8-8 2.8v-5.6z"/></g><path fill="none" stroke="#000" stroke-width="2" d="M320.042 123h35.797" stroke-dasharray="5,2" data-name="view2-&gt;viewer2" data-comment="table_thread_2-&gt;view_thread_2_2"/><g class="node" data-name="table1" data-comment="table_thread_2-&gt;view_thread_2_2"><path fill="#e6e2da" stroke="transparent" d="M104 105H32v36h72v-36z"/><text text-anchor="middle" x="64" y="-43.6" font-family="monospace" font-size="8" transform="translate(4 169)">table(csv)</text></g><g class="node" data-name="view2" data-comment="table_thread_2-&gt;view_thread_2_2"><path fill="#edebdf" stroke="transparent" d="M320 104.7H140v36.6h180v-36.6z"/><text x="144" y="-53.2" font-family="monospace" font-size="8" transform="translate(4 169)">view({</text><text x="144" y="-43.6" font-family="monospace" font-size="8" transform="translate(4 169)">&amp;#160;&amp;#160;&amp;#160;row_pivot: [&quot;Sub-Category&quot;]</text><text x="144" y="-34" font-family="monospace" font-size="8" transform="translate(4 169)">})</text></g><g class="node" data-name="viewer2" data-comment="table_thread_2-&gt;view_thread_2_2"><path fill="#fff" stroke="#d3d3d3" d="M558 104.7H356v36.6h202v-36.6z"/><text x="360" y="-53.2" font-family="monospace" font-size="8" transform="translate(4 169)">&amp;#60;perspective-viewer</text><text x="360" y="-43.6" font-family="monospace" font-size="8" transform="translate(4 169)">&amp;#160;&amp;#160;&amp;#160;view=&quot;xy_scatter&quot;</text><text x="360" y="-34" font-family="monospace" font-size="8" transform="translate(4 169)">&amp;#160;&amp;#160;&amp;#160;row-pivots=&apos;[&quot;Sub-Category&quot;]&apos;&amp;#62;</text></g></g></svg>