<svg width="638pt" height="488" viewBox="0 0 638 366" xmlns="http://www.w3.org/2000/svg"><g class="graph"><path fill="#fff" stroke="transparent" d="M0 366V0h638v366H0z"/><g class="cluster"><path fill="none" stroke="transparent" d="M12 354V12h614v342H12z"/><text text-anchor="middle" x="41.672" y="-318.8" font-family="Helvetica,sans-Serif" font-size="14" transform="translate(4 362)">Browser</text></g><g class="cluster"><path fill="#d3d3d3" stroke="transparent" d="M20 252V58h340v194H20z"/><text text-anchor="middle" x="58.556" y="-280" font-family="Helvetica,sans-Serif" font-size="10" fill="#4d4d4d" transform="translate(4 362)">Web Worker #1</text></g><g class="cluster"><path fill="#d3d3d3" stroke="transparent" d="M20 346v-86h340v86H20z"/><text text-anchor="middle" x="58.556" y="-78" font-family="Helvetica,sans-Serif" font-size="10" fill="#4d4d4d" transform="translate(4 362)">Web Worker #2</text></g><g class="node"><path fill="#fff" stroke="#b3b3b3" d="M100 178H28v36h72v-36z"/><text text-anchor="middle" x="60" y="-163.6" font-family="monospace" font-size="8" transform="translate(4 362)">table(csv)</text></g><g class="node"><path fill="#fff" stroke="#b3b3b3" d="M352 204H136v40h216v-40z"/><text x="140" y="-147.6" font-family="monospace" font-size="8" transform="translate(4 362)">view({</text><text x="140" y="-139.6" font-family="monospace" font-size="8" transform="translate(4 362)">row_pivot: [&quot;Category&quot;]</text><text x="140" y="-131.6" font-family="monospace" font-size="8" transform="translate(4 362)">filter: [[&quot;State&quot;,&quot;==&quot;,&quot;Texas&quot;]]</text><text x="140" y="-123.6" font-family="monospace" font-size="8" transform="translate(4 362)">})</text></g><path fill="none" stroke="#7f7f7f" d="M100.426 201.666l27.43 4.267m.444-2.764l7.475 3.996-8.335 1.537.86-5.533z"/><g class="node"><path fill="#fff" stroke="#b3b3b3" d="M352 150H136v36h216v-36z"/><text x="140" y="-199.6" font-family="monospace" font-size="8" transform="translate(4 362)">view({</text><text x="140" y="-191.6" font-family="monospace" font-size="8" transform="translate(4 362)">row_pivot: [&quot;Category&quot;,&quot;Sub-Category&quot;]</text><text x="140" y="-183.6" font-family="monospace" font-size="8" transform="translate(4 362)">})</text></g><path fill="none" stroke="#7f7f7f" d="M100.426 190.334l27.43-4.267m-.416-2.769l8.335 1.537-7.474 3.996-.861-5.533z"/><g class="node"><path fill="#fff" stroke="#b3b3b3" d="M100 96H28v36h72V96z"/><text text-anchor="middle" x="60" y="-245.6" font-family="monospace" font-size="8" transform="translate(4 362)">table(json)</text></g><g class="node"><path fill="#fff" stroke="#b3b3b3" d="M352 96H136v36h216V96z"/><text x="140" y="-245.6" font-family="monospace" font-size="8" transform="translate(4 362)">view()</text></g><path fill="none" stroke="#7f7f7f" d="M100.426 114h27.14m.209-2.8l8 2.8-8 2.8v-5.6z"/><g class="node"><path fill="#fff" stroke="#b3b3b3" d="M618 206H388v36h230v-36z"/><text x="392" y="-143.6" font-family="monospace" font-size="8" transform="translate(4 362)">&lt;perspective-viewer</text><text x="392" y="-135.6" font-family="monospace" font-size="8" transform="translate(4 362)">view=&quot;y_bar&quot; row-pivots=&apos;[&quot;Category&quot;]&apos;</text><text x="392" y="-127.6" font-family="monospace" font-size="8" transform="translate(4 362)">filters=&apos;[[&quot;State&quot;,&quot;==&quot;,&quot;Texas&quot;]]&apos;&gt;</text></g><path fill="none" stroke="#7f7f7f" d="M352.339 224h26.982m.263-2.8l8 2.8-8 2.8v-5.6z"/><g class="node"><path fill="#fff" stroke="#b3b3b3" d="M618 150H388v36h230v-36z"/><text x="392" y="-199.6" font-family="monospace" font-size="8" transform="translate(4 362)">&lt;perspective-viewer</text><text x="392" y="-191.6" font-family="monospace" font-size="8" transform="translate(4 362)">view=&quot;xy_scatter&quot;</text><text x="392" y="-183.6" font-family="monospace" font-size="8" transform="translate(4 362)">row-pivots=&apos;[&quot;Category&quot;,&quot;Sub-Category&quot;]&apos;&gt;</text></g><path fill="none" stroke="#7f7f7f" d="M352.339 168h26.982m.263-2.8l8 2.8-8 2.8v-5.6z"/><g class="node"><path fill="#fff" stroke="#b3b3b3" d="M618 96H388v36h230V96z"/><text x="392" y="-249.6" font-family="monospace" font-size="8" transform="translate(4 362)">&lt;perspective-viewer</text><text x="392" y="-241.6" font-family="monospace" font-size="8" transform="translate(4 362)">view=&quot;grid&quot;&gt;</text></g><path fill="none" stroke="#7f7f7f" d="M352.339 114h26.982m.263-2.8l8 2.8-8 2.8v-5.6z"/><g class="node"><path fill="#fff" stroke="#b3b3b3" d="M100 300H28v36h72v-36z"/><text text-anchor="middle" x="60" y="-41.6" font-family="monospace" font-size="8" transform="translate(4 362)">table(arrow)</text></g><g class="node"><path fill="#fff" stroke="#b3b3b3" d="M352 298H136v40h216v-40z"/><text x="140" y="-53.6" font-family="monospace" font-size="8" transform="translate(4 362)">view({</text><text x="140" y="-45.6" font-family="monospace" font-size="8" transform="translate(4 362)">row_pivot: [&quot;State&quot;]</text><text x="140" y="-37.6" font-family="monospace" font-size="8" transform="translate(4 362)">column_pivot: [&quot;Segment&quot;]</text><text x="140" y="-29.6" font-family="monospace" font-size="8" transform="translate(4 362)">})</text></g><path fill="none" stroke="#7f7f7f" d="M100.426 318h27.14m.209-2.8l8 2.8-8 2.8v-5.6z"/><g class="node"><path fill="#fff" stroke="#b3b3b3" d="M618 298H388v40h230v-40z"/><text x="392" y="-53.6" font-family="monospace" font-size="8" transform="translate(4 362)">&lt;perspective-viewer</text><text x="392" y="-45.6" font-family="monospace" font-size="8" transform="translate(4 362)">view=&quot;heatmap&quot;</text><text x="392" y="-37.6" font-family="monospace" font-size="8" transform="translate(4 362)">row-pivots=&apos;[&quot;State&quot;]</text><text x="392" y="-29.6" font-family="monospace" font-size="8" transform="translate(4 362)">column-pivots=&apos;[&quot;Segment&quot;]&apos;&gt;</text></g><path fill="none" stroke="#7f7f7f" d="M352.339 318h26.982m.263-2.8l8 2.8-8 2.8v-5.6z"/></g></svg>