<svg xmlns="http://www.w3.org/2000/svg" width="602pt" height="244" viewBox="0 0 602 183"><g class="graph" data-name="G"><path fill="#fff" stroke="transparent" d="M0 183V0h602v183H0z"/><g class="cluster"><path fill="none" stroke="transparent" d="M12 171V12h328v159H12z"/><text text-anchor="middle" x="60.344" y="-134.4" font-family="Helvetica,sans-Serif" font-size="14" fill="#4d4d4d" transform="translate(4 179)">Python Server</text></g><g class="cluster"><path fill="#91a4a8" stroke="transparent" d="M22 161V63h308v98H22z"/><text text-anchor="middle" x="96.292" y="-91" font-family="Helvetica,sans-Serif" font-size="10" fill="#edebdf" transform="translate(4 179)">PerspectiveManager - Thread 1</text></g><g class="cluster"><path fill="#cadee1" stroke="#cadee1" d="M348 171V17h242v154H348z"/><text text-anchor="middle" x="377.665" y="-129.4" font-family="Helvetica,sans-Serif" font-size="14" fill="#4d4d4d" transform="translate(4 179)">Browser</text></g><g class="cluster"><path fill="#fff" stroke="transparent" d="M358 161V68h222v93H358z"/><text text-anchor="middle" x="373.846" y="-90.8" font-family="monospace" font-size="8" fill="#4d4d4d" transform="translate(4 179)">&amp;#60;html&amp;#62;</text></g><g class="node" data-name="table_thread_1" data-comment="table_thread_2-&gt;view_thread_2_2"><path fill="#e6e2da" stroke="transparent" d="M104 110H32v36h72v-36z"/><text text-anchor="middle" x="64" y="-48.6" font-family="monospace" font-size="8" transform="translate(4 179)">table(arrow)</text></g><g class="node" data-name="view_thread_1" data-comment="table_thread_2-&gt;view_thread_2_2"><path fill="#edebdf" stroke="transparent" d="M320 104.598H140v46.804h180v-46.804z"/><text x="144" y="-63" font-family="monospace" font-size="8" transform="translate(4 179)">view({</text><text x="144" y="-53.4" font-family="monospace" font-size="8" transform="translate(4 179)">&amp;#160;&amp;#160;&amp;#160;row_pivots:&apos;[&quot;State&quot;]</text><text x="144" y="-43.8" font-family="monospace" font-size="8" transform="translate(4 179)">&amp;#160;&amp;#160;&amp;#160;column_pivots:&apos;[&quot;Segment&quot;]&apos;</text><text x="144" y="-34.2" font-family="monospace" font-size="8" transform="translate(4 179)">})</text></g><g class="edge" data-name="table_thread_1-&gt;view_thread_1" data-comment="table_thread_2-&gt;view_thread_2_2" stroke="#edebdf"><path fill="none" d="M104.356 128h27.342"/><path fill="#edebdf" d="M131.875 125.2l8 2.8-8 2.8v-5.6z"/></g><g class="node" data-name="viewer4" data-comment="table_thread_2-&gt;view_thread_2_2"><path fill="#fff" stroke="#b3b3b3" d="M570 104.598H368v46.804h202v-46.804z"/><text x="372" y="-63" font-family="monospace" font-size="8" transform="translate(4 179)">&amp;#60;perspective-viewer</text><text x="372" y="-53.4" font-family="monospace" font-size="8" transform="translate(4 179)">&amp;#160;&amp;#160;&amp;#160;view=&quot;heatmap&quot;</text><text x="372" y="-43.8" font-family="monospace" font-size="8" transform="translate(4 179)">&amp;#160;&amp;#160;&amp;#160;row-pivots=&apos;[&quot;State&quot;]</text><text x="372" y="-34.2" font-family="monospace" font-size="8" transform="translate(4 179)">&amp;#160;&amp;#160;&amp;#160;column-pivots=&apos;[&quot;Segment&quot;]&apos;&amp;#62;</text></g><path fill="none" stroke="#d1a043" stroke-width="2" stroke-dasharray="5,2" d="M320.015 128h47.832" data-name="view_thread_1-&gt;viewer4" data-comment="table_thread_2-&gt;view_thread_2_2"/></g></svg>