<?xml version="1.0" encoding="UTF-8" standalone="no"?>
<!DOCTYPE svg PUBLIC "-//W3C//DTD SVG 1.1//EN"
 "http://www.w3.org/Graphics/SVG/1.1/DTD/svg11.dtd">
<!-- Generated by graphviz version 5.0.0 (20220707.1540)
 -->
<!-- Title: G Pages: 1 -->
<svg width="590pt" height="170pt"
 viewBox="0.00 0.00 590.00 170.00" xmlns="http://www.w3.org/2000/svg" xmlns:xlink="http://www.w3.org/1999/xlink">
<g id="graph0" class="graph" transform="scale(1 1) rotate(0) translate(4 166)">
<title>G</title>
<g id="clust1" class="cluster">
<title>cluster_browser</title>
<polygon fill="#cadee1" stroke="#cadee1" points="8,-8 8,-154 574,-154 574,-8 8,-8"/>
<text text-anchor="middle" x="41" y="-122.8" font-family="Helvetica,sans-Serif" font-size="14.00" fill="#4d4d4d">Browser</text>
</g>
<g id="clust2" class="cluster">
<title>cluster_2</title>
<polygon fill="#2d4c68" stroke="transparent" points="18,-18 18,-105 326,-105 326,-18 18,-18"/>
<text text-anchor="middle" x="55.5" y="-81" font-family="Helvetica,sans-Serif" font-size="10.00" fill="#edebdf">WebWorker 1</text>
</g>
<g id="clust4" class="cluster">
<title>cluster_41</title>
<polygon fill="white" stroke="transparent" points="342,-18 342,-100 564,-100 564,-18 342,-18"/>
<text text-anchor="middle" x="364" y="-80.6" font-family="monospace" font-size="8.00" fill="#4d4d4d">&lt;html&gt;</text>
</g>
<!-- table1 -->
<g id="node1" class="node">
<title>table1</title>
<polygon fill="#e6e2da" stroke="transparent" points="100,-64 28,-64 28,-28 100,-28 100,-64"/>
<text text-anchor="middle" x="64" y="-44.1" font-family="monospace" font-size="8.00">table(csv)</text>
</g>
<!-- view2 -->
<g id="node2" class="node">
<title>view2</title>
<polygon fill="#edebdf" stroke="transparent" points="316,-64 136,-64 136,-28 316,-28 316,-64"/>
<text text-anchor="start" x="144" y="-53.1" font-family="monospace" font-size="8.00">view({</text>
<text text-anchor="start" x="144" y="-44.1" font-family="monospace" font-size="8.00"> &#160;&#160;&#160;group_by: [&quot;Sub&#45;Category&quot;]</text>
<text text-anchor="start" x="144" y="-35.1" font-family="monospace" font-size="8.00">})</text>
</g>
<!-- table1&#45;&gt;view2 -->
<g id="edge1" class="edge">
<title>table1&#45;&gt;view2</title>
<path fill="none" stroke="#edebdf" d="M100.11,-46C108.52,-46 117.91,-46 127.66,-46"/>
<polygon fill="#edebdf" stroke="#edebdf" points="127.91,-48.8 135.91,-46 127.91,-43.2 127.91,-48.8"/>
</g>
<!-- viewer2 -->
<g id="node3" class="node">
<title>viewer2</title>
<polygon fill="white" stroke="lightgrey" points="554,-64 352,-64 352,-28 554,-28 554,-64"/>
<text text-anchor="start" x="360" y="-53.1" font-family="monospace" font-size="8.00">&lt;perspective&#45;viewer</text>
<text text-anchor="start" x="360" y="-44.1" font-family="monospace" font-size="8.00"> &#160;&#160;&#160;view=&quot;xy_scatter&quot;</text>
<text text-anchor="start" x="360" y="-35.1" font-family="monospace" font-size="8.00"> &#160;&#160;&#160;row&#45;pivots=&#39;[&quot;Sub&#45;Category&quot;]&#39;&gt;</text>
</g>
<!-- view2&#45;&gt;viewer2 -->
<g id="edge2" class="edge">
<title>view2&#45;&gt;viewer2</title>
<path fill="none" stroke="#000000" stroke-width="2" stroke-dasharray="5,2" d="M316.25,-46C327.9,-46 339.91,-46 351.73,-46"/>
</g>
</g>
</svg>
