<?xml version="1.0" encoding="UTF-8" standalone="no"?>
<!DOCTYPE svg PUBLIC "-//W3C//DTD SVG 1.1//EN"
 "http://www.w3.org/Graphics/SVG/1.1/DTD/svg11.dtd">
<!-- Generated by graphviz version 2.40.1 (20161225.0304)
 -->
<!-- Title: G Pages: 1 -->
<svg width="638pt" height="366pt"
 viewBox="0.00 0.00 638.00 366.00" xmlns="http://www.w3.org/2000/svg" xmlns:xlink="http://www.w3.org/1999/xlink">
<g id="graph0" class="graph" transform="scale(1 1) rotate(0) translate(4 362)">
<title>G</title>
<polygon fill="#ffffff" stroke="transparent" points="-4,4 -4,-362 634,-362 634,4 -4,4"/>
<g id="clust1" class="cluster">
<title>cluster_1</title>
<polygon fill="none" stroke="transparent" points="8,-8 8,-350 622,-350 622,-8 8,-8"/>
<text text-anchor="middle" x="41.6724" y="-318.8" font-family="Helvetica,sans-Serif" font-size="14.00" fill="#000000">Browser</text>
</g>
<g id="clust2" class="cluster">
<title>cluster_2</title>
<polygon fill="#d3d3d3" stroke="transparent" points="16,-110 16,-304 356,-304 356,-110 16,-110"/>
<text text-anchor="middle" x="58.5557" y="-280" font-family="Helvetica,sans-Serif" font-size="10.00" fill="#4d4d4d">Web Worker #1</text>
</g>
<g id="clust4" class="cluster">
<title>cluster_3</title>
<polygon fill="#d3d3d3" stroke="transparent" points="16,-16 16,-102 356,-102 356,-16 16,-16"/>
<text text-anchor="middle" x="58.5557" y="-78" font-family="Helvetica,sans-Serif" font-size="10.00" fill="#4d4d4d">Web Worker #2</text>
</g>
<!-- table1 -->
<g id="node1" class="node">
<title>table1</title>
<polygon fill="#ffffff" stroke="#b3b3b3" points="96,-184 24,-184 24,-148 96,-148 96,-184"/>
<text text-anchor="middle" x="60" y="-163.6" font-family="monospace" font-size="8.00" fill="#000000">table(csv)</text>
</g>
<!-- view1 -->
<g id="node3" class="node">
<title>view1</title>
<polygon fill="#ffffff" stroke="#b3b3b3" points="348,-158 132,-158 132,-118 348,-118 348,-158"/>
<text text-anchor="start" x="140" y="-147.6" font-family="monospace" font-size="8.00" fill="#000000">view({</text>
<text text-anchor="start" x="140" y="-139.6" font-family="monospace" font-size="8.00" fill="#000000"> &#160;&#160;&#160;row_pivot: [&quot;Category&quot;]</text>
<text text-anchor="start" x="140" y="-131.6" font-family="monospace" font-size="8.00" fill="#000000"> &#160;&#160;&#160;filter: [[&quot;State&quot;,&quot;==&quot;,&quot;Texas&quot;]]</text>
<text text-anchor="start" x="140" y="-123.6" font-family="monospace" font-size="8.00" fill="#000000">})</text>
</g>
<!-- table1&#45;&gt;view1 -->
<g id="edge1" class="edge">
<title>table1&#45;&gt;view1</title>
<path fill="none" stroke="#7f7f7f" d="M96.4257,-160.3338C104.7747,-159.035 114.0908,-157.5859 123.8567,-156.0667"/>
<polygon fill="none" stroke="#7f7f7f" points="124.3007,-158.8314 131.7752,-154.835 123.4399,-153.298 124.3007,-158.8314"/>
</g>
<!-- view2 -->
<g id="node4" class="node">
<title>view2</title>
<polygon fill="#ffffff" stroke="#b3b3b3" points="348,-212 132,-212 132,-176 348,-176 348,-212"/>
<text text-anchor="start" x="140" y="-199.6" font-family="monospace" font-size="8.00" fill="#000000">view({</text>
<text text-anchor="start" x="140" y="-191.6" font-family="monospace" font-size="8.00" fill="#000000"> &#160;&#160;&#160;row_pivot: [&quot;Category&quot;,&quot;Sub&#45;Category&quot;]</text>
<text text-anchor="start" x="140" y="-183.6" font-family="monospace" font-size="8.00" fill="#000000">})</text>
</g>
<!-- table1&#45;&gt;view2 -->
<g id="edge2" class="edge">
<title>table1&#45;&gt;view2</title>
<path fill="none" stroke="#7f7f7f" d="M96.4257,-171.6662C104.7747,-172.965 114.0908,-174.4141 123.8567,-175.9333"/>
<polygon fill="none" stroke="#7f7f7f" points="123.4399,-178.702 131.7752,-177.165 124.3007,-173.1686 123.4399,-178.702"/>
</g>
<!-- table2 -->
<g id="node2" class="node">
<title>table2</title>
<polygon fill="#ffffff" stroke="#b3b3b3" points="96,-266 24,-266 24,-230 96,-230 96,-266"/>
<text text-anchor="middle" x="60" y="-245.6" font-family="monospace" font-size="8.00" fill="#000000">table(json)</text>
</g>
<!-- view3 -->
<g id="node5" class="node">
<title>view3</title>
<polygon fill="#ffffff" stroke="#b3b3b3" points="348,-266 132,-266 132,-230 348,-230 348,-266"/>
<text text-anchor="start" x="140" y="-245.6" font-family="monospace" font-size="8.00" fill="#000000">view()</text>
</g>
<!-- table2&#45;&gt;view3 -->
<g id="edge3" class="edge">
<title>table2&#45;&gt;view3</title>
<path fill="none" stroke="#7f7f7f" d="M96.4257,-248C104.692,-248 113.9065,-248 123.5667,-248"/>
<polygon fill="none" stroke="#7f7f7f" points="123.7753,-250.8001 131.7752,-248 123.7752,-245.2001 123.7753,-250.8001"/>
</g>
<!-- viewer1 -->
<g id="node8" class="node">
<title>viewer1</title>
<polygon fill="#ffffff" stroke="#b3b3b3" points="614,-156 384,-156 384,-120 614,-120 614,-156"/>
<text text-anchor="start" x="392" y="-143.6" font-family="monospace" font-size="8.00" fill="#000000">&lt;perspective&#45;viewer</text>
<text text-anchor="start" x="392" y="-135.6" font-family="monospace" font-size="8.00" fill="#000000"> &#160;&#160;&#160;view=&quot;y_bar&quot; row&#45;pivots=&#39;[&quot;Category&quot;]&#39;</text>
<text text-anchor="start" x="392" y="-127.6" font-family="monospace" font-size="8.00" fill="#000000"> &#160;&#160;&#160;filters=&#39;[[&quot;State&quot;,&quot;==&quot;,&quot;Texas&quot;]]&#39;&gt;</text>
</g>
<!-- view1&#45;&gt;viewer1 -->
<g id="edge5" class="edge">
<title>view1&#45;&gt;viewer1</title>
<path fill="none" stroke="#7f7f7f" d="M348.3386,-138C357.2535,-138 366.306,-138 375.3207,-138"/>
<polygon fill="none" stroke="#7f7f7f" points="375.584,-140.8001 383.5839,-138 375.5839,-135.2001 375.584,-140.8001"/>
</g>
<!-- viewer2 -->
<g id="node9" class="node">
<title>viewer2</title>
<polygon fill="#ffffff" stroke="#b3b3b3" points="614,-212 384,-212 384,-176 614,-176 614,-212"/>
<text text-anchor="start" x="392" y="-199.6" font-family="monospace" font-size="8.00" fill="#000000">&lt;perspective&#45;viewer</text>
<text text-anchor="start" x="392" y="-191.6" font-family="monospace" font-size="8.00" fill="#000000"> &#160;&#160;&#160;view=&quot;xy_scatter&quot;</text>
<text text-anchor="start" x="392" y="-183.6" font-family="monospace" font-size="8.00" fill="#000000"> &#160;&#160;&#160;row&#45;pivots=&#39;[&quot;Category&quot;,&quot;Sub&#45;Category&quot;]&#39;&gt;</text>
</g>
<!-- view2&#45;&gt;viewer2 -->
<g id="edge6" class="edge">
<title>view2&#45;&gt;viewer2</title>
<path fill="none" stroke="#7f7f7f" d="M348.3386,-194C357.2535,-194 366.306,-194 375.3207,-194"/>
<polygon fill="none" stroke="#7f7f7f" points="375.584,-196.8001 383.5839,-194 375.5839,-191.2001 375.584,-196.8001"/>
</g>
<!-- viewer3 -->
<g id="node10" class="node">
<title>viewer3</title>
<polygon fill="#ffffff" stroke="#b3b3b3" points="614,-266 384,-266 384,-230 614,-230 614,-266"/>
<text text-anchor="start" x="392" y="-249.6" font-family="monospace" font-size="8.00" fill="#000000">&lt;perspective&#45;viewer</text>
<text text-anchor="start" x="392" y="-241.6" font-family="monospace" font-size="8.00" fill="#000000"> &#160;&#160;&#160;view=&quot;grid&quot;&gt;</text>
</g>
<!-- view3&#45;&gt;viewer3 -->
<g id="edge7" class="edge">
<title>view3&#45;&gt;viewer3</title>
<path fill="none" stroke="#7f7f7f" d="M348.3386,-248C357.2535,-248 366.306,-248 375.3207,-248"/>
<polygon fill="none" stroke="#7f7f7f" points="375.584,-250.8001 383.5839,-248 375.5839,-245.2001 375.584,-250.8001"/>
</g>
<!-- table3 -->
<g id="node6" class="node">
<title>table3</title>
<polygon fill="#ffffff" stroke="#b3b3b3" points="96,-62 24,-62 24,-26 96,-26 96,-62"/>
<text text-anchor="middle" x="60" y="-41.6" font-family="monospace" font-size="8.00" fill="#000000">table(arrow)</text>
</g>
<!-- view4 -->
<g id="node7" class="node">
<title>view4</title>
<polygon fill="#ffffff" stroke="#b3b3b3" points="348,-64 132,-64 132,-24 348,-24 348,-64"/>
<text text-anchor="start" x="140" y="-53.6" font-family="monospace" font-size="8.00" fill="#000000">view({</text>
<text text-anchor="start" x="140" y="-45.6" font-family="monospace" font-size="8.00" fill="#000000"> &#160;&#160;&#160;row_pivot: [&quot;State&quot;]</text>
<text text-anchor="start" x="140" y="-37.6" font-family="monospace" font-size="8.00" fill="#000000"> &#160;&#160;&#160;column_pivot: [&quot;Segment&quot;]</text>
<text text-anchor="start" x="140" y="-29.6" font-family="monospace" font-size="8.00" fill="#000000">})</text>
</g>
<!-- table3&#45;&gt;view4 -->
<g id="edge4" class="edge">
<title>table3&#45;&gt;view4</title>
<path fill="none" stroke="#7f7f7f" d="M96.4257,-44C104.692,-44 113.9065,-44 123.5667,-44"/>
<polygon fill="none" stroke="#7f7f7f" points="123.7753,-46.8001 131.7752,-44 123.7752,-41.2001 123.7753,-46.8001"/>
</g>
<!-- viewer4 -->
<g id="node11" class="node">
<title>viewer4</title>
<polygon fill="#ffffff" stroke="#b3b3b3" points="614,-64 384,-64 384,-24 614,-24 614,-64"/>
<text text-anchor="start" x="392" y="-53.6" font-family="monospace" font-size="8.00" fill="#000000">&lt;perspective&#45;viewer</text>
<text text-anchor="start" x="392" y="-45.6" font-family="monospace" font-size="8.00" fill="#000000"> &#160;&#160;&#160;view=&quot;heatmap&quot;</text>
<text text-anchor="start" x="392" y="-37.6" font-family="monospace" font-size="8.00" fill="#000000"> &#160;&#160;&#160;row&#45;pivots=&#39;[&quot;State&quot;]</text>
<text text-anchor="start" x="392" y="-29.6" font-family="monospace" font-size="8.00" fill="#000000"> &#160;&#160;&#160;column&#45;pivots=&#39;[&quot;Segment&quot;]&#39;&gt;</text>
</g>
<!-- view4&#45;&gt;viewer4 -->
<g id="edge8" class="edge">
<title>view4&#45;&gt;viewer4</title>
<path fill="none" stroke="#7f7f7f" d="M348.3386,-44C357.2535,-44 366.306,-44 375.3207,-44"/>
<polygon fill="none" stroke="#7f7f7f" points="375.584,-46.8001 383.5839,-44 375.5839,-41.2001 375.584,-46.8001"/>
</g>
</g>
</svg>
