<?xml version="1.0" encoding="UTF-8" standalone="no"?>
<!DOCTYPE svg PUBLIC "-//W3C//DTD SVG 1.1//EN"
 "http://www.w3.org/Graphics/SVG/1.1/DTD/svg11.dtd">
<!-- Generated by graphviz version 5.0.0 (20220707.1540)
 -->
<!-- Title: G Pages: 1 -->
<svg width="602pt" height="178pt"
 viewBox="0.00 0.00 602.00 178.00" xmlns="http://www.w3.org/2000/svg" xmlns:xlink="http://www.w3.org/1999/xlink">
<g id="graph0" class="graph" transform="scale(1 1) rotate(0) translate(4 174)">
<title>G</title>
<g id="clust1" class="cluster">
<title>cluster_11</title>
<polygon fill="transparent" stroke="transparent" points="8,-8 8,-162 336,-162 336,-8 8,-8"/>
<text text-anchor="middle" x="59" y="-130.8" font-family="Helvetica,sans-Serif" font-size="14.00" fill="#4d4d4d">Python Server</text>
</g>
<g id="clust2" class="cluster">
<title>cluster_thread_1</title>
<polygon fill="#91a4a8" stroke="transparent" points="18,-18 18,-113 326,-113 326,-18 18,-18"/>
<text text-anchor="middle" x="94.5" y="-89" font-family="Helvetica,sans-Serif" font-size="10.00" fill="#edebdf">PerspectiveManager &#45; Thread 1</text>
</g>
<g id="clust3" class="cluster">
<title>cluster_browser</title>
<polygon fill="#cadee1" stroke="#cadee1" points="344,-8 344,-157 586,-157 586,-8 344,-8"/>
<text text-anchor="middle" x="377" y="-125.8" font-family="Helvetica,sans-Serif" font-size="14.00" fill="#4d4d4d">Browser</text>
</g>
<g id="clust4" class="cluster">
<title>cluster_41</title>
<polygon fill="white" stroke="transparent" points="354,-18 354,-108 576,-108 576,-18 354,-18"/>
<text text-anchor="middle" x="376" y="-88.6" font-family="monospace" font-size="8.00" fill="#4d4d4d">&lt;html&gt;</text>
</g>
<!-- table_thread_1 -->
<g id="node1" class="node">
<title>table_thread_1</title>
<polygon fill="#e6e2da" stroke="transparent" points="100,-68 28,-68 28,-32 100,-32 100,-68"/>
<text text-anchor="middle" x="64" y="-48.1" font-family="monospace" font-size="8.00">table(arrow)</text>
</g>
<!-- view_thread_1 -->
<g id="node2" class="node">
<title>view_thread_1</title>
<polygon fill="#edebdf" stroke="transparent" points="316,-72 136,-72 136,-28 316,-28 316,-72"/>
<text text-anchor="start" x="144" y="-61.6" font-family="monospace" font-size="8.00">view({</text>
<text text-anchor="start" x="144" y="-52.6" font-family="monospace" font-size="8.00"> &#160;&#160;&#160;group_by:&#39;[&quot;State&quot;]</text>
<text text-anchor="start" x="144" y="-43.6" font-family="monospace" font-size="8.00"> &#160;&#160;&#160;split_by:&#39;[&quot;Segment&quot;]&#39;</text>
<text text-anchor="start" x="144" y="-34.6" font-family="monospace" font-size="8.00">})</text>
</g>
<!-- table_thread_1&#45;&gt;view_thread_1 -->
<g id="edge1" class="edge">
<title>table_thread_1&#45;&gt;view_thread_1</title>
<path fill="none" stroke="#edebdf" d="M100.11,-50C108.52,-50 117.91,-50 127.66,-50"/>
<polygon fill="#edebdf" stroke="#edebdf" points="127.91,-52.8 135.91,-50 127.91,-47.2 127.91,-52.8"/>
</g>
<!-- viewer4 -->
<g id="node3" class="node">
<title>viewer4</title>
<polygon fill="white" stroke="#b3b3b3" points="566,-72 364,-72 364,-28 566,-28 566,-72"/>
<text text-anchor="start" x="372" y="-61.6" font-family="monospace" font-size="8.00">&lt;perspective&#45;viewer</text>
<text text-anchor="start" x="372" y="-52.6" font-family="monospace" font-size="8.00"> &#160;&#160;&#160;view=&quot;heatmap&quot;</text>
<text text-anchor="start" x="372" y="-43.6" font-family="monospace" font-size="8.00"> &#160;&#160;&#160;row&#45;pivots=&#39;[&quot;State&quot;]</text>
<text text-anchor="start" x="372" y="-34.6" font-family="monospace" font-size="8.00"> &#160;&#160;&#160;column&#45;pivots=&#39;[&quot;Segment&quot;]&#39;&gt;</text>
</g>
<!-- view_thread_1&#45;&gt;viewer4 -->
<g id="edge2" class="edge">
<title>view_thread_1&#45;&gt;viewer4</title>
<path fill="none" stroke="#d1a043" stroke-width="2" stroke-dasharray="5,2" d="M316.26,-50C331.75,-50 347.94,-50 363.69,-50"/>
</g>
</g>
</svg>
