<svg width="53" height="67" viewBox="0 0 53 67" fill="none" xmlns="http://www.w3.org/2000/svg">
    <path
        d="M11.6482 1.56063L1.6114 11.2435C1.22069 11.6204 1 12.14 1 12.6829V64C1 65.1046 1.89543 66 3 66H50C51.1046 66 52 65.1046 52 64V50.4471C52 49.6719 51.3716 49.0435 50.5963 49.0435C49.8211 49.0435 49.1927 48.415 49.1927 47.6398V39.1428C49.1927 38.3676 49.8211 37.7391 50.5963 37.7391C51.3716 37.7391 52 37.1107 52 36.3355V3C52 1.89543 51.1046 1 50 1H13.0368C12.5188 1 12.021 1.20098 11.6482 1.56063Z" />
    <path d="M29.2391 29H20.5652L16 43.431H24.2174L21.4783 56L37 38.7759H26.0435L29.2391 29Z" />
    <path d="M42 8H45V19H42V8Z" />
    <path d="M36 8H39V19H36V8Z" />
    <path d="M31 8H34V19H31V8Z" />
    <path d="M25 8H28V19H25V8Z" />
    <path d="M19 8H22V19H19V8Z" />
    <path d="M14 8H17V19H14V8Z" />
    <path d="M8 14H11V22H8V14Z" />
</svg>