<?xml version="1.0" encoding="UTF-8" standalone="no"?>
<!-- Created with Inkscape (http://www.inkscape.org/) -->
<svg
   xmlns:svg="http://www.w3.org/2000/svg"
   xmlns="http://www.w3.org/2000/svg"
   xmlns:xlink="http://www.w3.org/1999/xlink"
   version="1.0"
   width="450"
   height="300"
   id="svg548">
  <defs
     id="defs550" />
  <rect
     width="450"
     height="300"
     x="0"
     y="0"
     id="rect552"
     style="fill:#bf0a30" />
  <path
     d="M 37.49998,148.84088 L 224.22459,275 L 412.49999,148.59512 L 224.22459,24.999999 L 37.49998,148.84088 z"
     id="path558"
     style="fill:#002868" />
  <path
     d="M 83.99998,149.12834 L 224.41689,244 L 365.99999,148.94353 L 224.41689,56 L 83.99998,149.12834 z"
     id="path2508"
     style="fill:#fff" />
  <path
     d="M 148.17531,145.0139 L 156.01008,145.0139 L 157.37008,149.38954 L 162.1892,149.38954 L 154.70921,128.16175 L 149.59444,128.16175 L 142.02575,149.38954 L 146.69705,149.38954 L 148.17531,145.0139 z M 152.07791,132.9513 L 152.13705,132.9513 L 154.76834,141.34781 L 149.35792,141.34781 L 152.07791,132.9513 z M 165.04714,149.38954 L 169.39322,149.38954 L 169.39322,141.08173 L 173.97582,141.08173 C 175.5557,141.06819 176.54243,141.37616 176.93603,142.00564 C 177.32961,142.63514 177.49591,143.66745 177.43495,145.10259 C 177.43616,146.17556 177.47805,147.03788 177.5606,147.68954 C 177.64312,148.34121 177.75892,148.90788 177.90799,149.38954 L 182.81581,149.38954 L 182.81581,148.8278 C 182.36246,148.69045 182.08651,148.32951 181.98798,147.74498 C 181.88941,147.16045 181.84999,146.11212 181.86972,144.59998 C 181.86662,142.69057 181.63626,141.39463 181.17864,140.71216 C 180.72097,140.02971 180.05453,139.53203 179.17929,139.21912 C 180.23438,138.84403 181.04373,138.20468 181.60733,137.30108 C 182.1709,136.39751 182.45546,135.35164 182.46103,134.16348 C 182.48309,133.51233 182.32395,132.7221 181.9836,131.79279 C 181.64322,130.86351 180.98914,130.03605 180.02135,129.31041 C 179.05353,128.5848 177.63952,128.20192 175.7793,128.16175 L 165.04714,128.16175 L 165.04714,149.38954 z M 169.39322,137.50434 L 169.39322,131.82783 L 174.92191,131.82783 C 176.1895,131.87343 177.03211,132.19618 177.44973,132.79609 C 177.86732,133.39603 178.05949,133.99965 178.02625,134.60695 C 178.02747,135.64606 177.74413,136.39135 177.17625,136.84282 C 176.60834,137.29432 175.74849,137.51482 174.59669,137.50434 L 169.39322,137.50434 z M 191.17287,142.2052 L 193.24243,140.07651 L 199.8059,149.38954 L 205.51197,149.38954 L 196.34677,136.85391 L 205.00937,128.16175 L 199.27373,128.16175 L 191.17287,136.79478 L 191.17287,128.16175 L 186.73809,128.16175 L 186.73809,149.38954 L 191.17287,149.38954 L 191.17287,142.2052 z M 212.27251,145.0139 L 220.10729,145.0139 L 221.46728,149.38954 L 226.2864,149.38954 L 218.80641,128.16175 L 213.69164,128.16175 L 206.12296,149.38954 L 210.79425,149.38954 L 212.27251,145.0139 z M 216.17512,132.9513 L 216.23424,132.9513 L 218.86554,141.34781 L 213.45512,141.34781 L 216.17512,132.9513 z M 242.09388,142.94433 L 242.03476,142.94433 L 233.60868,128.16175 L 228.93739,128.16175 L 228.93739,149.38954 L 233.0765,149.38954 L 233.0765,134.25217 L 233.13563,134.25217 L 241.79824,149.38954 L 246.23301,149.38954 L 246.23301,128.16175 L 242.09388,128.16175 L 242.09388,142.94433 z M 249.41616,142.85564 C 249.38477,143.77162 249.59538,144.77464 250.04798,145.86472 C 250.50058,146.9548 251.38352,147.89869 252.6968,148.6964 C 254.01007,149.49411 255.94203,149.91241 258.49267,149.95128 C 259.18233,149.98377 260.18134,149.85638 261.4897,149.56912 C 262.79804,149.28187 264.00291,148.63983 265.10432,147.64301 C 266.20569,146.64619 266.79079,145.09968 266.85962,143.00346 C 266.80909,141.14148 266.24488,139.80243 265.16701,138.9863 C 264.08909,138.17018 262.80055,137.60722 261.30137,137.29739 L 256.12746,136.02608 C 255.64578,135.94664 255.16042,135.75816 254.67137,135.46065 C 254.18231,135.16316 253.91869,134.61251 253.88051,133.8087 C 253.92915,132.86201 254.33444,132.19803 255.09637,131.81674 C 255.85828,131.43549 256.68487,131.25194 257.57615,131.26609 C 259.44429,131.34002 260.63798,131.75393 261.15723,132.50783 C 261.67646,133.26175 261.93146,133.91219 261.92223,134.45913 L 266.17962,134.45913 C 266.18854,133.5554 265.95056,132.57719 265.46567,131.52451 C 264.98075,130.47186 264.13613,129.56374 262.93182,128.80013 C 261.72749,128.03657 260.05067,127.63653 257.90137,127.60001 C 255.63196,127.6369 253.90623,128.02635 252.72418,128.76838 C 251.54211,129.51045 250.74276,130.3839 250.32611,131.38873 C 249.90946,132.3936 249.71455,133.30866 249.74138,134.13391 C 249.80789,136.38765 250.50268,137.91149 251.82572,138.70543 C 253.14876,139.49938 254.70093,140.05496 256.48223,140.37216 L 258.75876,140.90434 C 259.90193,141.14333 260.82337,141.44145 261.5231,141.79868 C 262.2228,142.15594 262.5825,142.73492 262.60223,143.53564 C 262.54863,144.63325 262.07189,145.37238 261.17202,145.75303 C 260.27211,146.13368 259.27059,146.31107 258.16745,146.2852 C 256.2876,146.21622 255.05818,145.79245 254.4792,145.0139 C 253.90021,144.23535 253.63166,143.51593 253.67355,142.85564 L 249.41616,142.85564 z M 274.75285,145.0139 L 282.58762,145.0139 L 283.94762,149.38954 L 288.76674,149.38954 L 281.28675,128.16175 L 276.17197,128.16175 L 268.60329,149.38954 L 273.27459,149.38954 L 274.75285,145.0139 z M 278.65545,132.9513 L 278.71458,132.9513 L 281.34588,141.34781 L 275.93545,141.34781 L 278.65545,132.9513 z M 290.53076,142.85564 C 290.49937,143.77162 290.70998,144.77464 291.16258,145.86472 C 291.61518,146.9548 292.49812,147.89869 293.8114,148.6964 C 295.12467,149.49411 297.05663,149.91241 299.60727,149.95128 C 300.29693,149.98377 301.29594,149.85638 302.6043,149.56912 C 303.91264,149.28187 305.11751,148.63983 306.21892,147.64301 C 307.32029,146.64619 307.90539,145.09968 307.97422,143.00346 C 307.92369,141.14148 307.35949,139.80243 306.28161,138.9863 C 305.20369,138.17018 303.91515,137.60722 302.41597,137.29739 L 297.24206,136.02608 C 296.76038,135.94664 296.27502,135.75816 295.78597,135.46065 C 295.29691,135.16316 295.03329,134.61251 294.99511,133.8087 C 295.04375,132.86201 295.44904,132.19803 296.21097,131.81674 C 296.97288,131.43549 297.79947,131.25194 298.69075,131.26609 C 300.55889,131.34002 301.75258,131.75393 302.27183,132.50783 C 302.79106,133.26175 303.04606,133.91219 303.03683,134.45913 L 307.29422,134.45913 C 307.30314,133.5554 307.06516,132.57719 306.58027,131.52451 C 306.09535,130.47186 305.25073,129.56374 304.04642,128.80013 C 302.84209,128.03657 301.16527,127.63653 299.01597,127.60001 C 296.74656,127.6369 295.02083,128.02635 293.83878,128.76838 C 292.65671,129.51045 291.85736,130.3839 291.44071,131.38873 C 291.02406,132.3936 290.82915,133.30866 290.85598,134.13391 C 290.92249,136.38765 291.61728,137.91149 292.94032,138.70543 C 294.26336,139.49938 295.81553,140.05496 297.59683,140.37216 L 299.87336,140.90434 C 301.01653,141.14333 301.93798,141.44145 302.6377,141.79868 C 303.3374,142.15594 303.6971,142.73492 303.71683,143.53564 C 303.66323,144.63325 303.18649,145.37238 302.28662,145.75303 C 301.38672,146.13368 300.38519,146.31107 299.28205,146.2852 C 297.4022,146.21622 296.17278,145.79245 295.5938,145.0139 C 295.01481,144.23535 294.74626,143.51593 294.78815,142.85564 L 290.53076,142.85564 z"
     id="flowRoot2413"
     style="font-size:28px;font-style:normal;font-variant:normal;font-weight:bold;font-stretch:normal;text-align:start;line-height:125%;writing-mode:lr-tb;text-anchor:start;fill:#002868;fill-opacity:1;stroke:none;stroke-width:1px;stroke-linecap:butt;stroke-linejoin:miter;stroke-opacity:1;font-family:Helvetica LT Std;-inkscape-font-specification:Helvetica LT Std Bold" />
  <path
     d="M 229.48396,49.981066 L 223.96299,45.981502 L 218.45203,50 L 220.54659,43.508953 L 215.02499,39.505124 L 221.84047,39.493001 L 223.9389,33 L 226.0565,39.483554 L 232.87499,39.474488 L 227.36831,43.49367 L 229.48396,49.981066 z"
     id="polygon560"
     style="fill:#fff" />
  <path
     d="M 234.96407,190 L 224.99958,197.08113 L 215.02363,190.00635 L 218.8335,201.45872 L 208.86785,208.54737 L 221.18701,208.5442 L 225.00387,220 L 228.80753,208.54568 L 241.13212,208.53711 L 231.16391,201.46111 L 234.96407,190 z"
     id="path2417"
     style="fill:#002868" />
  <path
     d="M 202.6998,190 L 192.73531,182.91888 L 182.75936,189.99365 L 186.56923,178.54129 L 176.60358,171.45265 L 188.92274,171.4558 L 192.7396,160 L 196.54326,171.45432 L 208.86785,171.46291 L 198.89964,178.5389 L 202.6998,190 z"
     id="path2421"
     style="fill:#002868" />
  <path
     d="M 215.98107,243.54103 L 211.9815,249.062 L 216,254.57296 L 209.50896,252.4784 L 205.50513,258 L 205.49301,251.18452 L 199,249.0861 L 205.48356,246.96849 L 205.47449,240.15 L 209.49367,245.65668 L 215.98107,243.54103 z"
     id="path3655"
     style="fill:#fff" />
  <path
     d="M 233.01893,243.54103 L 237.0185,249.062 L 233,254.57296 L 239.49104,252.4784 L 243.49487,258 L 243.50699,251.18452 L 250,249.0861 L 243.51644,246.96849 L 243.52551,240.15 L 239.50633,245.65668 L 233.01893,243.54103 z"
     id="path3694"
     style="fill:#fff" />
  <use
     transform="translate(64.52842,0)"
     id="use2413"
     x="0"
     y="0"
     width="450"
     height="300"
     xlink:href="#path2421" />
  <use
     transform="translate(-32.26415,-85)"
     id="use2415"
     x="0"
     y="0"
     width="450"
     height="300"
     xlink:href="#use2413" />
  <use
     transform="translate(151.47776,-119)"
     id="use2414"
     x="0"
     y="0"
     width="450"
     height="300"
     xlink:href="#path3655" />
  <use
     transform="translate(-27,-18)"
     id="use2416"
     x="0"
     y="0"
     width="450"
     height="300"
     xlink:href="#use2414" />
  <use
     transform="translate(-27,-18)"
     id="use2418"
     x="0"
     y="0"
     width="450"
     height="300"
     xlink:href="#use2416" />
  <use
     transform="translate(-27,-17)"
     id="use2420"
     x="0"
     y="0"
     width="450"
     height="300"
     xlink:href="#use2418" />
  <use
     transform="translate(-27,-18)"
     id="use2422"
     x="0"
     y="0"
     width="450"
     height="300"
     xlink:href="#use2420" />
  <use
     transform="translate(-163.47776,108)"
     id="use2424"
     x="0"
     y="0"
     width="450"
     height="300"
     xlink:href="#use2422" />
  <use
     transform="translate(24,16)"
     id="use2426"
     x="0"
     y="0"
     width="450"
     height="300"
     xlink:href="#use2424" />
  <use
     transform="translate(24,16)"
     id="use2428"
     x="0"
     y="0"
     width="450"
     height="300"
     xlink:href="#use2426" />
  <use
     transform="translate(24,17)"
     id="use2430"
     x="0"
     y="0"
     width="450"
     height="300"
     xlink:href="#use2428" />
  <use
     transform="translate(24,16)"
     id="use2432"
     x="0"
     y="0"
     width="450"
     height="300"
     xlink:href="#use2430" />
  <use
     transform="translate(-144,-99.075)"
     id="use2434"
     x="0"
     y="0"
     width="450"
     height="300"
     xlink:href="#path3655" />
  <use
     transform="translate(-151,-119)"
     id="use2460"
     x="0"
     y="0"
     width="450"
     height="300"
     xlink:href="#path3694" />
  <use
     transform="translate(26.999998,-18)"
     id="use2462"
     x="0"
     y="0"
     width="450"
     height="300"
     xlink:href="#use2460" />
  <use
     transform="translate(27,-18)"
     id="use2464"
     x="0"
     y="0"
     width="450"
     height="300"
     xlink:href="#use2462" />
  <use
     transform="translate(27,-17)"
     id="use2466"
     x="0"
     y="0"
     width="450"
     height="300"
     xlink:href="#use2464" />
  <use
     transform="translate(27,-18)"
     id="use2468"
     x="0"
     y="0"
     width="450"
     height="300"
     xlink:href="#use2466" />
  <use
     transform="translate(187,90.925)"
     id="use2470"
     x="0"
     y="0"
     width="450"
     height="300"
     xlink:href="#use2468" />
  <use
     transform="translate(-24,17.075)"
     id="use2472"
     x="0"
     y="0"
     width="450"
     height="300"
     xlink:href="#use2470" />
  <use
     transform="translate(-24,16)"
     id="use2474"
     x="0"
     y="0"
     width="450"
     height="300"
     xlink:href="#use2472" />
  <use
     transform="translate(-24,16)"
     id="use2476"
     x="0"
     y="0"
     width="450"
     height="300"
     xlink:href="#use2474" />
  <use
     transform="translate(-24,17)"
     id="use2478"
     x="0"
     y="0"
     width="450"
     height="300"
     xlink:href="#use2476" />
  <use
     transform="translate(-24,16)"
     id="use2480"
     x="0"
     y="0"
     width="450"
     height="300"
     xlink:href="#use2478" />
</svg>
