<?xml version="1.0" encoding="UTF-8"?>
<svg xmlns="http://www.w3.org/2000/svg" width="1000" height="500">
<rect height="500" width="1000" fill="#006"/>
<path d="M0,250 1000,0V500z" fill="#bd1021"/>
<path d="M107.14,250 1000,26.79V473.21" fill="#fff"/>
<g stroke="#000" stroke-width="1.72">
<path d="m832.04,306.06s-6.2429-5.108,1.135-13.337c-3.973-3.4049-0.2834-9.9312-0.2834-9.9312s-6.8111-2.5547,0.2834-13.054c-5.108-3.4049-2.8381-11.068-2.8381-11.068s-16.742-6.2429-0.85018-12.201c-13.054,5.6748-25.257-7.6626-25.257-7.6626l-19.012,0.56816c-3.2161-15.797-28.283-2.0814-9.6482-47.39-4.8242-0.85142-10.216-2.27-15.607,1.7027-5.3916,3.9728-20.715,12.486-29.796,3.9728-9.0806-8.5131,5.9593-20.715,6.2431-20.999,0.28367-0.2838,20.148-10.5,22.986-17.31-0.28381-5.108-6.5269-9.0806-0.85142-20.148,6.5267-10.5,46.538-20.432,64.701-23.837,8.7962-3.9728,12.769-11.635,12.769-11.635l1.9865,7.378s40.296-11.918,42.282-17.594c1.9865-5.6755,0.85156,5.1078,0.85156,5.1078,15.891-1.4189,36.038-15.04,38.876-8.7969,13.337-2.5539,38.877-13.905,38.877-13.905s8.7962-0.28364,2.5533,9.3646c3.973,6.2429-1.135,11.635-1.4184,11.635-0.28477,0,1.7017,6.2429-3.4062,9.6482,1.7045,5.3916-3.1215,9.6482-3.1215,9.6482s2.2713,6.5267-6.8097,9.932c0.85157,5.6755-5.108,6.8106-5.108,6.8106s0.85156,5.9593-3.1215,8.5131c0,4.5404-4.5398,6.8106-4.5398,6.8106s2.8367,1.7026-1.1363,4.5404c-3.9716,2.8377-45.119,28.093-45.119,27.81,0-0.28366,30.08,5.3917,32.066,6.5268,1.9865,1.1351,24.688,16.175,24.688,16.175l-22.987,28.377s-25.539-2.8367-26.673-1.4184c-1.135,1.4184,5.3914,1.9865,6.8097,4.2564,1.4197,2.2699,3.6896,7.6627,8.2294,7.0945,4.5412-0.56816-8.5129,8.2295-17.026,9.081,0,3.1215,10.783,3.4049,13.621,0.85155,2.8381-2.5547-6.8111,7.3779-7.9461,8.7962s12.771-1.9865,12.771-1.9865-2.2713,9.3644-14.472,12.202c4.8232,7.946,2.8367,13.054,2.5533,13.054-0.28339,0-7.946-7.946-15.324-6.5277,1.9865,7.6627,7.9461,14.756,9.6492,15.892,1.7017,1.135-13.337,0.85018-15.324-3.4062-1.9865-4.2564-3.6896,10.216,1.7018,14.757-6.2416,0.2834-11.634-3.4062-11.634-3.4062s-3.6882,8.5128-1.135,12.771c2.5547,4.2564-8.7962-8.5142-8.7962-8.5142l-21.567,9.081-4.8246-8.2294z" fill="#9c3900" stroke-linejoin="round"/>
<g fill="#ffc221">
<path d="m665.36,289.17c0.50543,0,31.331-0.50627,45.48-8.5913,7.0747,11.117,16.676,18.697,16.676,18.697l4.5481-16.17s11.117,0.50489,12.128,3.032c-1.516,3.0307-2.0213,7.0739-2.0213,7.0739s7.58,0.50627,8.0853,1.516c0.5053,1.0111-2.0213,9.601-2.0213,9.601l32.342,7.5801s2.5266-12.633,5.0532-11.117c2.5268,1.516,13.644,17.181,29.31,18.192,15.665,1.0111,16.676-13.139,16.676-13.139l3.5369,2.0223s6.569-14.149,7.5801-14.149,2.5272,2.0209,11.117,2.0209c2.5272,3.032,3.5383,10.106,3.5383,10.106s-9.6024,9.6024-6.5704,17.183c3.032,7.5801,3.5383,5.5578,3.5383,5.5578l69.736,16.676s3.5383,5.5592-2.5258,8.5913c0,0.50489-70.242-16.171-70.242-16.171s-6.5704,7.5801-11.623,6.0641c-5.053-1.516-1.516,3.032-1.516,3.032l75.8,6.0641s5.5592,7.0752,1.516,9.0962c-5.053,0.50488-81.864-5.053-81.864-5.053s-4.5481,9.601-9.601,1.516c-3.5369,5.5578-7.5801-1.516-7.5801-1.516s-6.569,5.053-7.5801-0.50626c-5.5592,4.0432-9.0961-2.5258-9.0961-2.5258l-32.341-2.0223-2.0213,3.032s5.5587,1.516-3.032,5.0543c-8.5907,3.5369,51.544,2.0209,53.06,2.5258,1.516,0.50625-4.0418,5.0543-4.0418,5.0543s30.825,2.0209,36.383-4.5481c5.5592-6.5703-2.0209,8.5899-2.0209,8.5899s24.256-1.0098,24.256-2.0209-0.50626,7.5801-17.181,6.569c10.106,6.5704,22.739,10.612,22.739,10.612s-12.633,3.032-27.287-0.50488c2.5258,6.569,13.644,12.633,13.644,12.633s-8.0864,7.0752-26.279-10.107c5.0543,9.0962,1.0111,12.634,0.50625,11.623-0.50625-1.0111-9.0961-13.644-29.309-18.192,12.633,8.085,7.0739,11.623,7.0739,11.623s-6.569-11.623-17.181,0c-4.0432-10.612-19.708-16.676-38.911-17.687-6.064-7.0739-9.6014-5.0529-23.751-9.0961-8.0853-9.0948-19.708-19.202-19.708-19.202s0.5053-13.644,14.149-12.128c1.516,4.5481,1.516,3.032,1.516,3.032s15.16-5.5592,19.708,2.0209c6.5692-11.623,15.665-1.7375,17.181,2.3043,4.3537,0.63832,26.278,1.2326,26.278,1.2326s-2.5272-4.5481-1.0112-4.0418c1.516,0.50488,13.644-4.5481,13.139-6.0641-0.50625-1.516-1.0111-6.569,1.0098-6.0641,2.0223,0.50489-17.181-2.5272-27.793,5.5592-3.5373-3.5383-1.0106-13.139-1.0106-13.139l-31.331-6.569-1.516,8.085s-9.096,1.516-8.5907-0.50487c0.50529-2.0223-2.0213,7.0739-2.0213,7.0739s-12.128-3.0321-12.128-3.5369c0-0.50489,3.5374-18.192,3.5374-17.687,0,0.50626-10.107,1.0112-24.256,11.623-4.0426-12.633-35.879-29.309-35.879-29.814z"/>
<path d="m704.78,247.73s-21.224,18.191,0,28.803c1.0106-7.0752,2.5268-8.085,2.5268-8.085s17.687,6.569,28.299-9.0961c-4.5481-6.569-12.633-4.0418-12.633-4.0418s-16.676-0.001-18.192-7.5801z"/>
</g>
<path d="m722.47,255.82-14.655,12.633" fill="none"/>
<g fill="#fff">
<path d="m705.48,247.88,0,0s2.8377-2.8381,3.6891-6.2429c0.85129-3.4049-1.1351-7.0945,2.2702-10.216,3.4051-3.1215,48.241-22.134,51.93-25.823,3.6891-3.6888,10.499-11.634,11.351-13.337,0.85129-1.7027,3.4053,8.5131-4.2566,13.054,8.2293-2.2707,13.621-4.8243,17.026-3.6892-3.4058,4.8242-12.486,12.77-16.743,12.77,9.932-3.6896,19.012-6.8111,21.567-4.8246,2.5533,1.9865-12.202,11.919-18.162,12.486,9.932-2.5533,23.27-6.5263,24.971-2.2699-5.3914,1.7031-3.6896,3.1201-14.756,9.3644-1.4188,1.1363-8.5131,1.4184-8.5131,1.4184,8.5131-0.85156,20.147-4.2564,21.282,1.9865-6.8097,2.5533-9.3639,5.9595-15.039,7.3779-5.6755,1.4197-18.729,3.973-26.675,7.0945-7.9455,3.1215-19.58,12.202-19.58,12.202s-25.256,0.85155-25.256,0.56678c0-0.28339-4.824-11.634-5.1078-11.918z" stroke-linejoin="round"/>
<path d="m921.99,230.57,49.092,9.3644s5.3928-6.2429,2.5547-9.6478c7.3779-1.7017,5.3914-11.351,5.3914-11.351s8.5128-3.6883,1.4183-12.202c4.826-4.8239-1.135-8.5128-1.135-8.5128s1.9865-8.5131-4.2564-9.3644c1.7031-6.8104-10.783-9.0807-10.783-9.0807s-25.823,7.0944-43.985,7.6618c5.9595,5.9593-2.2699,9.6482-2.2699,9.6482s4.8246,3.4053,3.4049,6.2429c-1.4183,2.8382,0.85157,5.9597-5.3914,7.9462,8.2294,3.6896-0.85156,9.9312-0.85156,9.9312s9.081,6.2429,6.8111,9.3644z"/>
</g>
<g fill="none">
<path d="m742.17,293.72-6.5694,29.309"/>
<path d="m748.24,304.83-2.0213,9.601"/>
<path d="m780.58,312.41-3.032,9.0962"/>
<path d="m836.67,374.06c-0.50489,0-16.17,2.0209-18.192,1.516-2.0209-0.50489,24.761,8.085,24.761,11.622"/>
<path d="m808.37,377.6s-15.666-10.106-18.192-9.0961c-2.5269,1.0111,15.665-0.50489,17.181-2.0209"/>
<path d="m776.03,365.98s-16.171,0.50488-17.687-1.0111,15.665,11.117,18.697,10.107"/>
<path d="m744.7,358.9c-0.5053,0-11.117-4.0418-15.665-5.0543,4.0426,4.0432,7.0747,9.6024,17.181,11.623"/>
<path d="m748.74,352.34c-0.50529-1.0111-20.213-7.0752-20.213-10.107,4.5481,1.516,11.117,3.5369,17.181,2.0209"/>
<path d="m853.35,329.09-2.0209,9.0948"/>
<path d="m767.6,343.56s3.3779,3.724,0.34585,8.2721"/>
<path d="m838.69,347.28-5.5578,0.50625"/>
<path d="m793.21,344.25,10.106,1.516"/>
<path d="m820.4,318.26s0.2834,10.216-8.2294,9.9326c-8.5128-0.28477-5.6762,0.2834-5.6762,0.2834"/>
<path d="m826.93,316.55s3.4049,1.135,2.5547,3.6896c-0.85155,2.5533,0.85018,9.9312-9.081,17.026-10.501,2.2699-9.3644-8.7962-9.3644-8.7962"/>
<path d="m830.62,319.68s6.2429-3.6883,7.0945,2.2713c0.85018,5.9582-5.108,17.026-9.3644,18.729-4.2578,1.7018-9.081-0.28476-8.5142-3.1215"/>
<path d="m838.28,322.23s5.6762-4.5412,7.3779,1.4184c1.7031,5.9596-4.5398,19.297-7.0945,19.58"/>
<path d="m846.23,323.65s2.8381-1.4184,4.8232,0.28339"/>
<path d="m837.15,344.08c-1.135,0.28339-5.9595,0.56678-7.6613-3.1215"/>
<path d="m811.61,334.15c-0.28339,0-5.9582,0.28476-5.9582,0.28476"/>
<path d="m833.46,356.57-0.56679-9.3644-2.2699-3.1215-3.973,3.973s-0.56816,9.3644-2.2699,10.216"/>
<path d="m826.65,347.77c-0.28339-0.56678-3.1215-5.9582-3.1215-5.9582l-4.8246,5.9582s-0.5668,8.5142-2.2699,9.3658"/>
<path d="m818.7,347.49c0-0.28339-1.9865-5.6748-1.9865-5.6748s-5.6748,3.1215-6.2429,5.3914c-0.56679,2.2699-0.85156,8.5128-2.2699,9.081"/>
<path d="m810.47,346.07s0.56816-5.108-1.135-5.108c-1.7018,0-9.3644,7.0945-9.6478,13.337"/>
<path d="m717.39,245.9s0.28382-5.6748,2.8377-7.6613c2.554-1.9865,15.324-6.8111,18.161-11.068,2.8377-4.2564-4.2566,7.3779-3.1215,10.499"/>
<path d="m722.5,237.38s6.2431,2.2713,4.8242,7.0945"/>
<path d="m57.344,126.01a3.9192,3.9192,0,1,1,-7.8384,0,3.9192,3.9192,0,1,1,7.8384,0z" transform="matrix(1.1946929,0,0,1.1946929,661.37184,90.106184)" stroke-width="1pt"/>
<path d="m917.17,220.07,0,0s43.417,5.108,45.404,5.108c1.9865,0,9.6478,2.5547,11.068,5.108"/>
<path d="m919.44,217.52,60.443,1.4184"/>
<path d="m919.72,216.1s57.321-3.4049,61.294-9.3644"/>
<path d="m921.43,203.61s57.606-6.2429,58.174-5.3916"/>
<path d="m919.44,196.52s55.903-8.7969,56.47-7.378"/>
<path d="m759.96,160.48s17.594,19.296,15.891,32.35"/>
<path d="m774.72,182.61s5.6753,8.2293,7.9455,9.0806c2.2702,0.85128,22.134,1.9864,23.269,10.5,1.135,5.3916-4.2564,3.6885-3.4049,7.6616,1.4184,5.108,14.756,11.634,29.228,3.973"/>
<path d="m818.42,217.8s11.918,17.594,29.512-1.4183"/>
<path d="m838.85,224.05s14.472,7.6613,26.39-12.202"/>
<path d="m849.92,225.75s7.0945,5.9596,21.852-1.9851"/>
<path d="m892.2,215.82s21.85,4.5398,23.27,5.9596"/>
<path d="m900.43,210.99c0.28339,0,15.324,0.56817,15.324,0.56817"/>
<path d="m891.06,202.48s26.107-1.7026,29.513,3.6895"/>
<path d="m879.71,194.25s36.607,1.4188,38.309,3.4053"/>
<path d="m887.94,231.71s6.2429-1.7017,7.0945-0.85019"/>
<path d="m873.75,247.03s8.2294,7.0945,18.73,3.973"/>
<path d="m878.29,258.95s9.3644,4.2564,20.432,1.7018"/>
<path d="m881.41,266.04s9.3644,6.2429,15.607,5.1066"/>
<path d="m877.16,269.73s6.5263,4.8246,6.8097,7.3779"/>
<path d="m868.08,275.41s1.9865,10.215,9.081,13.904"/>
<path d="m863.25,279.95s-3.1215,13.337,4.8246,21.567"/>
<path d="m855.02,290.45c0,0.28339-0.56679,6.2429-0.2834,6.8111"/>
<path d="m803.94,238.8,15.324-0.85157s5.6748-2.2699,1.7017-5.9582"/>
<path d="m822.96,235.4c0.28477,0,14.472,1.135,18.162,5.3914,3.6882,4.2564,8.2294,12.769,10.783,14.189,2.5547,1.4184,3.1215-0.56816,3.1215-0.56816"/>
<path d="m848.78,252.14s-7.6613,13.054-1.7018,17.027"/>
<path d="m844.52,266.61s-6.8097,9.081-1.4184,13.621"/>
<path d="m841.69,279.1s-5.3914,8.7976,1.1363,14.756"/>
<path d="m839.3,255.76c-0.36594,0.36594-6.591,4.7599-8.788,3.6621"/>
<path d="m832.71,269.68s2.5629,2.5629,4.7599,2.197"/>
<path d="m833.01,282.98,4.09,2.805"/>
<path d="m833.56,293.17,3.5383,2.1351"/>
<path d="m769.47,154.01s7.4602,3.8794,13.428,0c5.9688-3.8792,34.615-18.501,42.075-20.888,7.4591-2.3873,11.637-16.114,13.13-22.082"/>
<path d="m832.44,127.15,41.777-12.235s6.8634-5.6697,7.1619-16.114"/>
<path d="m878.39,110.14s41.776-4.1776,41.776-19.695"/>
<path d="m913.6,101.19s43.866-11.936,48.044-16.412"/>
<path d="m791.26,163.55s26.558-13.727,30.736-15.219c4.1766-1.4921,13.725-13.428-0.59705-13.428"/>
<path d="m804.09,168.93c0.29852,0,21.783-14.025,28.945-15.815,3.8795-5.3712,1.7912-11.041-4.7737-9.8473"/>
<path d="m834.82,149.53c0.59705-0.29839,11.638-0.59678,7.759,8.0569-5.6679,4.1776-30.139,16.412-30.139,16.412"/>
<path d="m829.15,140.28,46.551-15.517s3.8795-8.0569-1.7898-9.2505"/>
<path d="m912.71,101.49c0,0.29839,5.9692,3.5808,2.3882,8.9521-6.5648,3.8793-37.599,11.339-37.599,11.339"/>
<path d="M959.85,96.712,915.99,108.95"/>
<path d="m956.57,106.56-38.195,11.638"/>
<path d="M953.29,116.11,919.57,126.25"/>
<path d="m947.02,125.66c-0.89558,0-25.065,7.4602-25.065,7.4602"/>
<path d="m941.65,133.12-15.518,6.2665"/>
<path d="m937.77,141.47c-0.59705,0-13.428,5.6697-13.428,5.6697"/>
<path d="m933.89,148.34-11.936,5.6695"/>
<path d="m913.3,161.17s1.4926,0.59678,1.1941,2.3873"/>
<path d="m883.16,177.58s5.0736,1.7903,0.29853,6.5649c-2.3868,3.2824-9.2502,2.3874-13.428,8.3553"/>
<path d="m915.69,110.74s6.2677,1.4919,1.4926,9.5489c-12.534,4.7745-37.898,12.533-37.898,12.533s-1.1927,2.0889-4.4752,3.8793c-3.2824,1.7904-39.389,11.936-39.389,11.936"/>
<path d="m917.78,119.99s6.8634,2.984,0,8.0569c-7.759,4.476-34.914,12.831-34.914,12.831s-0.29854,2.3871-1.4913,3.2824c-1.1941,0.89517-37.002,12.831-37.002,12.831"/>
<path d="m919.57,128.04s7.1619,2.0889,0.89558,8.0568c-7.4604,4.4761-31.333,12.533-31.333,12.533s-2.3868,2.9839-6.2663,4.1776c-3.8795,1.1936-28.646,11.339-28.646,11.339"/>
<path d="m921.36,136.1c2.0897,0.89517,7.759,1.7905,0.89559,7.1618-8.0561,3.5808-27.751,11.339-27.751,11.339l-1.7912,3.2824-31.332,13.428"/>
<path d="m923.15,144.16s2.9839,3.581-3.581,7.7586c-7.1619,3.8792-22.678,9.8473-22.678,9.8473"/>
<path d="m919.57,152.51s3.2824,2.0889-0.8942,5.0729c-4.7751,2.3873-23.574,12.235-23.574,12.235l-12.236,8.0569"/>
<path d="m876.6,125.06c0,0.29839,5.0736,4.4761,3.2824,9.2505,4.4765,3.2824,3.581,6.8634,3.581,6.8634s6.2663,3.5808,5.3721,8.6537c6.2663,1.4921,5.9678,5.0729,5.9678,5.0729l-2.0897,3.2824s6.2663-0.29839,0.89558,7.7586c3.2824,1.7905,1.7912,3.8792,1.7912,3.8792"/>
<path d="m893.61,166.24c-0.89558,0-21.783,7.7586-27.155,12.533"/>
<path d="m843.18,156.99s6.2663-0.29839,5.3721,6.5648c7.1619-2.3873,5.6693,4.476,5.6693,4.476s8.3546-3.2824,6.8634,7.1618c5.3707-1.1936,4.4752,4.1776,4.4752,4.1776s4.7751-0.29839,4.7751,2.3873c3.2824-2.984,6.8634-1.492,6.8634-1.492s2.3868-3.2826,5.6693-2.3872"/>
<path d="m848.85,163.26c0,0.59706-28.051,16.114-28.051,16.114"/>
<path d="m854.22,168.33-21.187,13.13"/>
<path d="m861.38,174.89c0,0.29839-18.502,11.041-18.502,11.041"/>
<path d="m865.56,179.07s-13.13,10.743-16.114,10.146"/>
<path d="m870.04,182.35s-7.4604,5.6698-13.727,8.3553"/>
<path d="m877.79,179.97s2.3868,2.984-12.533,10.742"/>
</g>
</g>
</svg>