<?xml version="1.0" encoding="UTF-8"?><svg xmlns="http://www.w3.org/2000/svg" xmlns:xlink="http://www.w3.org/1999/xlink" width="750" height="500">
<rect width="750" height="500" id="rect1526" style="fill:#000f5d"/>
<use transform="translate(94.998437,-302.57555)" id="use4474" xlink:href="#path72"/>
<use transform="translate(165.10176,-239.95912)" id="use4472" xlink:href="#path72"/>
<use transform="translate(202.31636,-149.82232)" id="use4468" xlink:href="#path72"/>
<use transform="translate(126.44047,-126.44797)" id="use4466" xlink:href="#path72"/>
<use transform="translate(187.86405,-50.087407)" id="use4464" xlink:href="#path72"/>
<use transform="translate(131.65888,27.026192)" id="use4462" xlink:href="#path72"/>
<use transform="translate(88.726724,-37.115289)" id="use4460" xlink:href="#path72"/>
<use transform="translate(47.979803,74.909224)" id="use4458" xlink:href="#path72"/>
<use transform="translate(-52.93993,74.909224)" id="use4442" xlink:href="#path72"/>
<use transform="translate(-88.937372,-37.115289)" id="use4440" xlink:href="#path72"/>
<use transform="translate(-136.78986,27.026192)" id="use4444" xlink:href="#path72"/>
<use transform="translate(-191.93667,-50.087407)" id="use4446" xlink:href="#path72"/>
<use transform="translate(-204.36749,-149.82232)" id="use4450" xlink:href="#path72"/>
<use transform="translate(-127.05167,-126.44797)" id="use4448" xlink:href="#path72"/>
<use transform="translate(-166.33627,-239.95912)" id="use4452" xlink:href="#path72"/>
<use transform="translate(-95.803472,-302.57555)" id="use4454" xlink:href="#path72"/>
<use transform="translate(-0.23142361,-328.73602)" id="use4456" xlink:href="#path72"/>
<use transform="matrix(-1,0,0,1,752.2069,0)" id="use4438" xlink:href="#path112"/>
<use transform="matrix(-1,0,0,1,751.83265,0)" id="use4436" xlink:href="#path110"/>
<use transform="matrix(-1,0,0,1,751.65672,0)" id="use4434" xlink:href="#path108"/>
<path d="M 354.95018,372.00322 L 370.90411,371.99164 L 376.16124,356.40597 L 381.03319,372.03944 L 397.10166,372.03553 L 384.64728,382.15514 L 389.16062,396.95805 L 376.00022,388.06183 L 362.95541,397.02868 L 367.39789,382.02521 L 354.95018,372.00322 z" id="path72" style="fill:#d59f0f"/>
<path d="M 346.35055,114.65178 L 368.85295,114.69937 L 376.26166,92.714791 L 383.12529,114.71017 L 405.75066,114.73246 L 388.20221,128.96962 L 394.5602,149.82634 L 376.04666,137.32131 L 357.64566,149.94348 L 363.90115,128.77515 L 346.35055,114.65178 z" id="path90" style="fill:#d59f0f"/>
<path d="M 347.52856,222.70253 C 347.4874,222.66214 347.44302,222.60687 347.41502,222.54936 C 329.2787,198.59476 347.7268,189.79066 348.09995,172.84414 C 360.1017,195.12577 342.5136,202.05748 363.42376,222.71921 L 347.52856,222.70253 z" id="path92" style="fill:#d59f0f"/>
<path d="M 367.55914,222.71763 C 361.17397,213.73554 356.69497,199.39741 358.61092,190.03068 C 360.51103,180.66868 366.99816,171.45004 366.0992,164.3641 C 369.47814,172.34214 372.6558,175.4172 371.67189,181.28864 C 376.74893,166.14796 388.41897,158.32285 404.23967,157.54485 C 375.78601,179.16672 412.92895,195.78433 388.36879,222.74202 L 367.55914,222.71763 z" id="path94" style="fill:#d59f0f"/>
<path d="M 393.64217,222.75386 C 416.2383,195.49043 387.48335,181.51801 413.68964,169.30208 C 414.65397,177.3624 408.2312,177.35649 411.06196,187.22123 C 411.54714,191.49333 410.95543,194.97861 409.57113,197.95418 C 412.2374,194.68587 417.42328,188.52085 420.7161,186.12245 C 412.9239,197.86106 421.29136,208.13345 402.49587,222.75309 L 393.25346,222.75616" id="path96" style="fill:#d59f0f"/>
<path d="M 389.82136,281.58361 C 390.82888,256.02095 396.29828,248.23921 406.66763,237.54812 C 386.54613,237.50072 364.05939,237.49715 345.7624,237.48412 C 356.08816,248.19192 361.55073,255.97891 362.50416,281.53921 C 371.61069,281.54324 380.71485,281.56127 389.82136,281.58361 z" id="path98" style="fill:#d59f0f"/>
<path d="M 376.07106,343.98852 L 384.03191,368.9587 L 388.42946,294.87416 C 380.23138,294.84636 372.03328,294.83544 363.83518,294.82352 L 368.05515,368.9428 z" id="path100" style="fill:#d59f0f"/>
<path d="M 375.95444,455.95155 C 379.46647,452.69495 380.46383,442.08558 380.46383,442.08558 L 382.64795,398.78646 L 376.01383,394.12493 L 369.36464,398.77199 L 371.47948,442.08215 C 371.47948,442.08215 372.42152,452.66141 375.93833,455.95502 L 375.95444,455.95155 z" id="path102" style="fill:#d59f0f"/>
<path d="M 411.54548,232.95842 L 340.79522,232.8825 L 340.80282,226.16746 L 411.56793,226.24019 L 411.54548,232.95842 z" id="path104" style="fill:#d59f0f"/>
<path d="M 394.32085,292.6443 L 356.99902,292.6056 L 357.009,284.2516 L 394.33432,284.30641 L 394.32085,292.6443 z" id="path106" style="fill:#d59f0f"/>
<path d="M 200.58174,226.53289 L 333.81402,210.57135 L 333.39761,206.99529 L 200.13809,222.98088 L 200.58174,226.53289 z" id="path108" style="fill:#d59f0f"/>
<path d="M 225.89566,145.68825 L 335.46309,187.81998 L 336.75089,184.47609 L 227.19984,142.34212 L 225.89566,145.68825 z" id="path110" style="fill:#d59f0f"/>
<path d="M 293.74159,98.652483 L 340.89124,165.82514 L 343.81529,163.74908 L 296.653,96.596011 L 293.74159,98.652483 z" id="path112" style="fill:#d59f0f"/>
<path d="M 373.88872,142.71881 L 373.8549,167.16286 L 377.43995,167.1661 L 377.45418,142.70943 L 373.88872,142.71881 z" id="path114" style="fill:#d59f0f"/>
<path d="M 336.86717,114.9936 L 321.38502,107.05518 L 322.46289,104.95307 L 337.94502,112.89149 L 336.86717,114.9936 M 339.50483,109.27627 L 326.99545,97.18368 L 328.79335,95.323842 L 343.52839,98.265219 C 343.85242,98.326562 344.14872,98.393923 344.41728,98.46733 C 344.68583,98.540768 344.9239,98.62306 345.1315,98.714178 L 334.99152,88.912036 L 336.55953,87.289988 L 349.0689,99.38258 L 347.28745,101.22543 L 332.30187,98.28831 C 332.07277,98.242099 331.84346,98.184722 331.61397,98.116203 C 331.38997,98.042041 331.1602,97.956828 330.92467,97.86056 L 341.06464,107.66273 L 339.50483,109.27627 M 352.71073,80.587962 L 348.92506,82.064004 L 353.7437,94.422423 L 357.52934,92.946384 C 359.15073,92.314208 360.1714,91.311921 360.59138,89.939525 C 361.00846,88.559837 360.81511,86.839205 360.01131,84.777631 C 359.2418,82.804108 358.23069,81.457261 356.97791,80.737094 C 355.72515,80.016925 354.30275,79.967245 352.71073,80.587962 M 352.31508,97.261458 L 345.99464,81.051358 L 352.16835,78.644185 C 354.42802,77.763164 356.41895,77.764467 358.14115,78.64809 C 359.87069,79.528905 361.23175,81.242187 362.22439,83.787932 C 363.25131,86.421786 363.42724,88.715479 362.75214,90.669097 C 362.08152,92.612499 360.63106,94.019009 358.40076,94.888627 L 352.31508,97.261458 M 368.67726,92.330698 L 367.30166,74.986458 L 369.65661,74.79968 L 371.03221,92.143923 L 368.67726,92.330698 M 379.32059,85.20946 L 384.64506,86.231076 L 383.44694,78.183506 L 379.32059,85.20946 M 373.0168,91.360617 L 382.64055,75.49103 L 385.20418,75.982928 L 388.2942,94.291867 L 385.77698,93.808911 L 384.94666,88.357608 L 378.21856,87.066694 L 375.41802,91.821354 L 373.0168,91.360617 M 390.0233,95.218923 L 399.85772,80.866231 L 401.99161,82.328384 L 401.55157,97.347685 C 401.54518,97.67743 401.52823,97.980814 401.50069,98.25784 C 401.47312,98.534895 401.43173,98.78336 401.37654,99.003268 L 409.34821,87.369097 L 411.2093,88.644298 L 401.37488,102.99699 L 399.26048,101.54821 L 399.65448,86.28258 C 399.66182,86.048986 399.68011,85.81331 399.70934,85.575606 C 399.74506,85.342361 399.79073,85.10159 399.84631,84.853298 L 391.87462,96.487442 L 390.0233,95.218923 M 411.65492,104.6862 L 414.54312,109.27445 L 419.60599,102.90529 L 411.65492,104.6862 M 402.8567,104.27873 L 421.02302,100.47804 L 422.41363,102.68718 L 411.14374,117.44372 L 409.7783,115.27456 L 413.19501,110.94653 L 409.54545,105.14873 L 404.15923,106.34794 L 402.8567,104.27873" id="text2636" style="fill:#d59f0f"/>
</svg>