<?xml version="1.0" encoding="UTF-8" standalone="no"?>
<!-- Created with Inkscape (http://www.inkscape.org/) -->

<svg
   xmlns:dc="http://purl.org/dc/elements/1.1/"
   xmlns:cc="http://creativecommons.org/ns#"
   xmlns:rdf="http://www.w3.org/1999/02/22-rdf-syntax-ns#"
   xmlns:svg="http://www.w3.org/2000/svg"
   xmlns="http://www.w3.org/2000/svg"
   xmlns:sodipodi="http://sodipodi.sourceforge.net/DTD/sodipodi-0.dtd"
   xmlns:inkscape="http://www.inkscape.org/namespaces/inkscape"
   version="1.0"
   width="750"
   height="500"
   id="svg166"
   inkscape:version="0.48.1 "
   sodipodi:docname="AJAX.svg">
  <metadata
     id="metadata58">
    <rdf:RDF>
      <cc:Work
         rdf:about="">
        <dc:format>image/svg+xml</dc:format>
        <dc:type
           rdf:resource="http://purl.org/dc/dcmitype/StillImage" />
      </cc:Work>
    </rdf:RDF>
  </metadata>
  <sodipodi:namedview
     pagecolor="#ffffff"
     bordercolor="#666666"
     borderopacity="1"
     objecttolerance="10"
     gridtolerance="10"
     guidetolerance="10"
     inkscape:pageopacity="0"
     inkscape:pageshadow="2"
     inkscape:window-width="1280"
     inkscape:window-height="1004"
     id="namedview56"
     showgrid="false"
     inkscape:zoom="1.044"
     inkscape:cx="138.32985"
     inkscape:cy="179.2277"
     inkscape:window-x="-8"
     inkscape:window-y="-8"
     inkscape:window-maximized="1"
     inkscape:current-layer="svg166" />
  <defs
     id="defs168" />
  <rect
     width="499.96783"
     height="250.06471"
     x="250.0322"
     y="0.042898677"
     style="font-size:12px;fill:#bf0a30;fill-opacity:1;fill-rule:evenodd;stroke-width:1.01768994"
     id="rect172" />
  <rect
     width="250.03131"
     height="500"
     x="-3.2278505e-010"
     y="-7.1273498e-006"
     style="font-size:12px;fill:#002868;fill-opacity:1;fill-rule:evenodd;stroke-width:1pt"
     id="rect170" />
  <rect
     width="499.87289"
     height="249.82846"
     x="250.07309"
     y="250.16896"
     style="font-size:12px;fill:#ffffff;fill-rule:evenodd;stroke-width:1.01768994"
     id="rect603" />
  <path
     d="M 37.394865,117.30837 C 21.763899,126.03696 18.929705,129.67732 10.362933,136.37131 L 29.360794,136.76886 C 29.134623,138.53809 24.987348,160.56448 24.594126,162.11887 C 38.896913,152.61413 45.683589,148.25725 65.197875,142.7597 C 72.951529,140.60676 64.588075,132.72901 63.781173,130.63342 C 58.479882,133.02613 54.403503,135.8673 50.495549,139.34887"
     style="font-size:12px;fill:#ffca00;fill-opacity:1;fill-rule:evenodd;stroke:#002868;stroke-width:1;stroke-linejoin:miter;stroke-dasharray:none;stroke-opacity:1;stroke-miterlimit:4"
     id="path607" />
  <path
     d="M 50.748679,139.16458 C 79.887875,112.47106 176.30637,113.10903 203.1605,139.98937 C 204.02686,139.67779 221.40006,110.3682 220.5337,110.67979 C 167.81038,73.744788 73.339235,80.072393 33.68948,109.22055 L 34.159802,110.96036 L 50.748679,139.16458 z "
     style="font-size:12px;fill:#ffca00;fill-opacity:1;fill-rule:evenodd;stroke:#002868;stroke-width:1;stroke-dasharray:none;stroke-opacity:1;stroke-miterlimit:4"
     id="path628" />
  <path
     d="M 55.75715,127.58192 C 55.612442,127.20061 47.284795,111.69289 47.284795,111.69289 L 60.915583,123.70536 L 57.743977,106.15326 L 66.671145,121.17173"
     style="font-size:12px;fill:none;fill-rule:evenodd;stroke:#002868;stroke-width:3.12499737999999990;stroke-linecap:round;stroke-linejoin:round;stroke-dasharray:none;stroke-opacity:1"
     id="path613" />
  <path
     d="M 105.19339,100.7945 C 105.25281,96.053135 109.05249,95.733743 111.66786,96.554094 C 113.20209,97.724375 114.00758,101.5381 112.16881,103.71195 L 108.47643,106.85884 C 107.19969,108.45497 105.78595,110.27724 105.87756,112.28356 L 114.21968,111.96499"
     style="font-size:12px;fill:none;fill-rule:evenodd;stroke:#002868;stroke-width:3.12499737999999990;stroke-linecap:round;stroke-linejoin:round;stroke-dasharray:none;stroke-opacity:1"
     id="path618" />
  <path
     d="M 120.3351,95.731315 C 118.8116,96.475739 118.29909,97.653448 117.94586,99.397314 C 117.71808,101.4028 117.81959,106.145 118.22977,108.10509 C 118.59537,109.56423 118.9585,110.52158 120.05368,111.47894 C 121.33041,112.2085 122.74332,112.07233 123.5191,111.57054 C 124.56723,110.97798 125.2968,109.74662 125.66158,108.28749 C 126.25414,106.41817 126.20875,100.94723 125.79775,98.940921 C 125.41812,97.603929 124.94687,96.540113 123.88306,95.749472 C 122.60632,95.202296 121.11006,95.321139 120.3351,95.731315 z "
     style="font-size:12px;fill:none;fill-rule:evenodd;stroke:#002868;stroke-width:3.12499737999999990;stroke-linecap:round;stroke-linejoin:round;stroke-dasharray:none;stroke-opacity:1"
     id="path621" />
  <path
     d="M 160.17579,100.28644 C 161.76376,99.623221 162.9711,98.811478 164.29481,97.25657 L 161.95146,113.76716"
     style="font-size:12px;fill:none;fill-rule:evenodd;stroke:#002868;stroke-width:3.12499619000000010;stroke-linecap:round;stroke-linejoin:round;stroke-dasharray:none;stroke-opacity:1"
     id="path629" />
  <path
     d="M 172.37541,99.441022 C 172.56593,99.513208 180.30543,101.76339 180.30543,101.76339 C 176.53113,106.47866 173.43655,110.66728 170.91409,115.99058"
     style="font-size:12px;fill:none;fill-rule:evenodd;stroke:#002868;stroke-width:3.12500072000000010;stroke-linecap:round;stroke-linejoin:round;stroke-dasharray:none;stroke-opacity:1"
     id="path630" />
  <path
     d="M 187.06639,103.55472 L 194.73836,107.33888 C 190.18339,110.5946 186.43806,114.69111 183.12344,119.48162"
     style="font-size:12px;fill:none;fill-rule:evenodd;stroke:#002868;stroke-width:3.12500380999999990;stroke-linecap:round;stroke-linejoin:round;stroke-dasharray:none;stroke-opacity:1"
     id="path631" />
  <path
     d="M 206.51697,113.48083 L 201.4918,110.53429 L 197.04751,116.55183 C 200.23985,115.92244 202.38528,116.88667 203.30312,119.78367 C 203.86625,124.05084 201.30888,126.48662 198.54495,126.5628 C 195.63659,126.49672 194.13546,124.8995 193.7262,121.54796"
     style="font-size:12px;fill:none;fill-rule:evenodd;stroke:#002868;stroke-width:3.12499905000000000;stroke-linecap:round;stroke-linejoin:round;stroke-dasharray:none;stroke-opacity:1"
     id="path632" />
  <path
     d="M 70.938218,119.02279 C 70.938218,119.02279 71.4234,101.09798 71.604636,101.11773 C 71.683646,100.39245 81.72625,115.97903 81.72625,115.97903 L 81.72625,115.97903"
     style="font-size:12px;fill:none;fill-opacity:1;fill-rule:evenodd;stroke:#002868;stroke-width:3.12500143000000020;stroke-linecap:round;stroke-linejoin:round;stroke-dasharray:none;stroke-opacity:1"
     id="path614" />
  <path
     d="M 71.266913,112.63795 L 78.089658,110.62998"
     style="font-size:12px;fill:none;fill-opacity:1;fill-rule:evenodd;stroke:#002868;stroke-width:3.12500143000000020;stroke-linecap:round;stroke-linejoin:round;stroke-dasharray:none;stroke-opacity:1"
     id="path615" />
  <path
     d="M 31.438511,288.13873 L 41.407342,288.27284 L 41.092368,245.08538 L 60.200437,288.50066 L 70.572862,288.4998 L 70.572862,224.97634 L 60.447994,225.11217 L 60.60193,265.27524 L 42.741754,225.29185 L 31.592447,225.42682 L 31.438511,288.13873 z "
     style="font-size:12px;fill:#ffca00;fill-opacity:1;fill-rule:evenodd;stroke:none;stroke-width:0.62499958000000000;stroke-dasharray:none;stroke-opacity:1"
     id="path678" />
  <path
     d="M 213.63097,245.13119 L 224.24809,245.13119 L 224.12,239.53374 C 223.81911,235.91788 222.45307,231.33659 218.88623,227.9494 C 216.51178,225.30671 213.70146,223.81428 210.05553,222.8179 C 206.96066,221.60316 199.38167,221.96079 195.53543,224.1126 C 190.98683,226.65299 187.1449,231.18356 184.58045,238.4832 C 181.21564,250.77421 182.73557,266.16527 184.86759,273.40817 C 187.40624,281.08435 191.38831,285.18078 196.68827,287.76502 C 199.98689,288.87316 205.74163,289.71909 211.1267,288.2602 C 216.9932,286.04133 219.67456,282.18906 222.00431,278.08059 C 223.4185,275.29949 225.04158,269.96854 224.75875,264.05988 L 213.68083,264.19485 C 213.68857,266.35698 213.25013,268.85266 212.70079,271.01479 C 211.44737,274.03746 209.51135,276.06032 204.69883,276.05946 C 201.47329,276.05602 199.29312,274.72779 197.48778,272.34731 C 195.05143,269.99519 194.41268,264.72958 194.2502,263.24146 C 193.51603,256.52039 193.4954,249.86638 195.43227,242.85387 C 196.16988,240.02033 197.63651,237.39913 199.55533,236.12249 C 202.66481,234.43663 205.88176,234.6868 207.70085,235.21809 C 210.08906,235.95571 212.29244,237.74043 212.98019,240.10372 C 213.51491,242.32602 213.60002,243.67746 213.63097,245.13119 z "
     style="font-size:12px;fill:#ffca00;fill-opacity:1;fill-rule:evenodd;stroke:none;stroke-width:0.62499987999999995;stroke-dasharray:none;stroke-opacity:1"
     id="path680" />
  <path
     d="M 151.99654,290.2245 L 128.19788,271.72979 L 103.77196,290.10991 L 113.45052,261.32512 L 88.687063,243.10325 L 118.4674,243.80797 L 127.58866,214.16611 L 136.31537,243.38645 L 166.71607,243.28864 L 142.32913,260.64309 L 151.99654,290.2245 z "
     style="font-size:12px;fill:#ffffff;fill-rule:evenodd;stroke:none;stroke-width:0.64412992999999996;stroke-dasharray:none;stroke-opacity:1"
     id="polygon693" />
  <path
     d="M 50.757677,139.26969 C 50.757677,139.26969 50.757677,139.26969 50.757677,139.26969"
     style="fill:none;fill-opacity:1;fill-rule:evenodd;stroke:#000000;stroke-width:1pt;stroke-linecap:butt;stroke-linejoin:miter;stroke-opacity:1"
     id="path668" />
  <path
     d="M 50.831256,139.18109 C 51.879503,140.25313 53.951806,139.98684 56.811301,139.44467 C 59.094261,139.1691 61.695727,139.06437 63.742832,138.82811 C 67.131491,139.10489 69.072763,139.89794 67.679804,141.50549"
     style="fill:none;fill-opacity:1;fill-rule:evenodd;stroke:#002868;stroke-width:1;stroke-linecap:butt;stroke-linejoin:miter;stroke-dasharray:none;stroke-opacity:1;stroke-miterlimit:4"
     id="path679" />
  <path
     d="M 216.6449,118.25092 C 232.27586,126.97951 235.11006,130.61987 243.67683,137.31386 L 224.67897,137.71141 C 224.90514,139.48064 229.05242,161.50703 229.44564,163.06143 C 215.14285,153.55669 208.35617,149.1998 188.84189,143.70225 C 181.08823,141.54932 189.73154,133.53188 190.53844,131.43628 C 195.83965,133.82902 200.33591,136.67 203.54421,140.29142"
     style="font-size:12px;fill:#ffca00;fill-opacity:1;fill-rule:evenodd;stroke:#002868;stroke-width:1;stroke-linejoin:miter;stroke-dasharray:none;stroke-opacity:1;stroke-miterlimit:4"
     id="path685" />
  <path
     d="M 203.2811,140.21232 C 203.2811,140.21232 203.2811,140.21232 203.2811,140.21232"
     style="fill:none;fill-opacity:1;fill-rule:evenodd;stroke:#000000;stroke-width:1pt;stroke-linecap:butt;stroke-linejoin:miter;stroke-opacity:1"
     id="path689" />
  <path
     d="M 202.98477,140.12372 C 201.22997,140.93491 199.41872,140.57629 197.22748,140.3873 C 195.14812,140.08472 192.78856,139.73023 190.45319,139.65151 C 186.53839,139.67852 185.12325,141.31309 186.35898,142.44812"
     style="fill:none;fill-opacity:1;fill-rule:evenodd;stroke:#002868;stroke-width:1;stroke-linecap:butt;stroke-linejoin:miter;stroke-dasharray:none;stroke-opacity:1;stroke-miterlimit:4"
     id="path690" />
  <path
     d="M 129.37407,101.8685 C 132.39999,101.92356 135.32696,102.04265 135.32696,102.04265"
     style="font-size:12px;fill:none;fill-rule:evenodd;stroke:#002868;stroke-width:2.24999714000000010;stroke-linecap:round;stroke-linejoin:round;stroke-dasharray:none;stroke-opacity:1"
     id="path622" />
  <path
     d="M 138.66652,97.913834 L 138.3137,112.3367"
     style="font-size:12px;fill:none;fill-rule:evenodd;stroke:#002868;stroke-width:2.25000453000000000;stroke-linecap:round;stroke-linejoin:round;stroke-dasharray:none;stroke-opacity:1"
     id="path624" />
  <path
     d="M 144.94481,112.99043 C 145.78851,102.63838 144.4336,102.26916 139.43317,102.29198"
     style="font-size:12px;fill:none;fill-rule:evenodd;stroke:#002868;stroke-width:2.25000453000000000;stroke-linecap:round;stroke-linejoin:round;stroke-dasharray:none;stroke-opacity:1"
     id="path627" />
  <path
     d="M 131.73442,97.391671 L 131.51167,109.38056 C 131.47942,111.65507 132.18698,112.30287 134.16555,112.30287"
     style="fill:none;fill-opacity:1;fill-rule:evenodd;stroke:#002868;stroke-width:2.25000000000000000;stroke-linecap:round;stroke-linejoin:round;stroke-dasharray:none;stroke-opacity:1"
     id="path661" />
  <path
     d="M 80.600608,98.959088 L 88.011917,106.47804 L 89.350461,114.64232"
     style="font-size:12px;fill:none;fill-rule:evenodd;stroke:#002868;stroke-width:3.12500262000000010;stroke-linecap:round;stroke-linejoin:round;stroke-opacity:1"
     id="path616" />
  <path
     d="M 92.248189,96.376012 L 88.186907,106.8381"
     style="font-size:12px;fill:none;fill-rule:evenodd;stroke:#002868;stroke-width:3.12500262000000010;stroke-linecap:round;stroke-linejoin:round;stroke-opacity:1"
     id="path617" />
  <path
     d="M 38.024821,387.45054 C 22.393855,378.91512 19.559661,375.35533 10.992889,368.80948 L 29.99075,368.42073 C 29.764579,366.69066 25.617304,345.15174 25.224082,343.63175 C 39.526869,352.92614 46.313545,357.1866 65.827831,362.56248 C 73.581485,364.66777 65.218031,372.37118 64.411129,374.42039 C 59.109838,372.08063 55.033459,369.30234 51.125505,365.89783"
     style="font-size:12px;fill:#ffca00;fill-opacity:1;fill-rule:evenodd;stroke:#002868;stroke-width:1;stroke-linejoin:miter;stroke-dasharray:none;stroke-opacity:1;stroke-miterlimit:4"
     id="path671" />
  <path
     d="M 51.378635,366.07779 C 80.517831,392.18058 176.93632,391.55672 203.79045,365.27125 C 204.65681,365.57595 222.03002,394.2369 221.16366,393.93221 C 168.44034,430.04982 73.969191,423.86224 34.319436,395.35915 L 34.789758,393.65785 L 51.378635,366.07779 z "
     style="font-size:12px;fill:#ffca00;fill-opacity:1;fill-rule:evenodd;stroke:#002868;stroke-width:1;stroke-dasharray:none;stroke-opacity:1;stroke-miterlimit:4"
     id="path683" />
  <path
     d="M 50.757677,366.29011 C 50.757677,366.29011 50.757677,366.29011 50.757677,366.29011"
     style="fill:none;fill-opacity:1;fill-rule:evenodd;stroke:#000000;stroke-width:0.98887253pt;stroke-linecap:butt;stroke-linejoin:miter;stroke-opacity:1"
     id="path686" />
  <path
     d="M 51.461206,366.06176 C 52.509453,365.01345 54.581756,365.27385 57.441251,365.80402 C 59.724211,366.07349 62.325677,366.1759 64.372782,366.40693 C 67.761441,366.13628 69.702713,365.36078 68.309754,363.7888"
     style="fill:none;fill-opacity:1;fill-rule:evenodd;stroke:#002868;stroke-width:1;stroke-linecap:butt;stroke-linejoin:miter;stroke-dasharray:none;stroke-opacity:1;stroke-miterlimit:4"
     id="path687" />
  <path
     d="M 217.27395,386.52888 C 232.90491,377.99346 235.73911,374.43367 244.30588,367.88782 L 225.30802,367.49907 C 225.53419,365.769 229.68147,344.23008 230.07469,342.71009 C 215.7719,352.00448 208.98522,356.26494 189.47094,361.64082 C 181.71728,363.74611 190.36059,371.58611 191.16749,373.63532 C 196.4687,371.29554 200.96496,368.51743 204.17326,364.97617"
     style="font-size:12px;fill:#ffca00;fill-opacity:1;fill-rule:evenodd;stroke:#002868;stroke-width:1;stroke-linejoin:miter;stroke-dasharray:none;stroke-opacity:1;stroke-miterlimit:4"
     id="path693" />
  <path
     d="M 203.2811,365.36845 C 203.2811,365.36845 203.2811,365.36845 203.2811,365.36845"
     style="fill:none;fill-opacity:1;fill-rule:evenodd;stroke:#000000;stroke-width:0.98887253pt;stroke-linecap:butt;stroke-linejoin:miter;stroke-opacity:1"
     id="path694" />
  <path
     d="M 203.61467,365.1401 C 201.85987,364.34687 200.04862,364.69755 197.85738,364.88236 C 195.77802,365.17825 193.41846,365.52489 191.08309,365.60187 C 187.16829,365.57545 185.75315,363.97706 186.98888,362.86714"
     style="fill:none;fill-opacity:1;fill-rule:evenodd;stroke:#002868;stroke-width:1;stroke-linecap:butt;stroke-linejoin:miter;stroke-dasharray:none;stroke-opacity:1;stroke-miterlimit:4"
     id="path695" />
  <path
     d="M 126.72341,400.30947 C 127.9786,396.00234 130.83905,396.5294 133.38967,397.11957 C 135.43782,398.52511 135.73133,402.35504 133.77478,404.58398 L 130.18475,407.31781 C 128.66672,408.32609 127.15954,410.19698 127.21665,412.28829 L 135.91098,412.11575"
     style="font-size:12px;fill:none;fill-rule:evenodd;stroke:#002868;stroke-width:3.12500000000000000;stroke-linecap:round;stroke-linejoin:round;stroke-dasharray:none;stroke-opacity:1"
     id="path646" />
  <path
     d="M 117.94547,399.72733 C 119.52045,398.87125 119.89828,398.53202 121.10463,396.78005 L 120.43138,412.35629"
     style="font-size:12px;fill:none;fill-rule:evenodd;stroke:#002868;stroke-width:3.12499832999999990;stroke-linecap:round;stroke-linejoin:round;stroke-dasharray:none;stroke-opacity:1"
     id="path657" />
  <path
     d="M 98.770653,392.87564 C 98.767929,392.97103 96.120792,409.14509 96.00687,409.80665 L 104.43004,410.99749"
     style="font-size:12px;fill:none;fill-rule:evenodd;stroke:#002868;stroke-width:3.12500072000000010;stroke-linecap:round;stroke-dasharray:none;stroke-opacity:1"
     id="path676" />
  <path
     d="M 88.880864,408.9443 L 91.473255,391.3007"
     style="font-size:12px;fill:none;fill-rule:evenodd;stroke:#002868;stroke-width:3.12499905000000000;stroke-linecap:round;stroke-linejoin:round;stroke-dasharray:none;stroke-opacity:1"
     id="path675" />
  <path
     d="M 58.789777,399.69412 L 65.216321,383.37812 C 67.14109,384.34313 69.621091,384.72389 71.759951,386.63202 C 73.148784,388.94102 72.509023,393.67678 68.529775,394.12613 C 66.337005,393.83353 64.504799,392.77156 62.582431,391.90108"
     style="font-size:12px;fill:none;fill-rule:evenodd;stroke:#002868;stroke-width:3.12499905000000000;stroke-linecap:round;stroke-dasharray:none;stroke-opacity:1"
     id="path672" />
  <path
     d="M 163.90836,396.39045 C 165.17938,395.15526 166.04356,393.90938 166.77009,391.88004 L 170.05567,409.19805"
     style="font-size:12px;fill:none;fill-rule:evenodd;stroke:#002868;stroke-width:3.08430743000000000;stroke-linecap:round;stroke-linejoin:round;stroke-dasharray:none;stroke-opacity:1"
     id="path654" />
  <path
     d="M 171.32365,391.40704 C 171.52913,391.35396 179.73544,388.48397 179.73544,388.48397 C 179.35787,394.76409 179.24073,400.79209 180.02603,406.36606"
     style="font-size:12px;fill:none;fill-rule:evenodd;stroke:#002868;stroke-width:3.12500262000000010;stroke-linecap:round;stroke-linejoin:round;stroke-dasharray:none;stroke-opacity:1"
     id="path655" />
  <path
     d="M 184.04487,386.99919 L 192.45863,383.70634 C 192.09704,390.07377 191.703,396.85389 192.873,401.63096"
     style="font-size:12px;fill:none;fill-rule:evenodd;stroke:#002868;stroke-width:3.12499690000000020;stroke-linecap:round;stroke-linejoin:round;stroke-dasharray:none;stroke-opacity:1"
     id="path656" />
  <path
     d="M 204.03716,380.40376 C 203.07616,378.81312 201.60716,378.22917 199.54314,378.77164 C 197.62922,380.45106 197.27316,381.7758 197.13765,383.81868 C 197.21636,386.35033 197.9131,388.84958 199.06267,391.08333 C 199.85135,393.16561 201.55641,394.65243 202.84071,394.97911 C 204.29499,395.51531 205.38445,395.37824 206.55078,394.36939 C 207.44061,393.24663 207.84529,391.36176 207.76317,389.94155 C 207.48635,388.05674 206.63539,386.34931 204.7135,385.34935 C 203.2261,384.73968 202.61153,384.6149 201.26874,385.18571 C 199.22979,386.39031 198.8592,388.62072 199.16194,390.89503"
     style="font-size:12px;fill:none;fill-rule:evenodd;stroke:#002868;stroke-width:3.12499595000000020;stroke-linecap:round;stroke-linejoin:round;stroke-dasharray:none;stroke-opacity:1"
     id="path677" />
  <path
     d="M 138.00182,401.70758 C 141.02499,401.56729 143.95355,401.49729 143.95355,401.49729"
     style="font-size:12px;fill:none;fill-rule:evenodd;stroke:#002868;stroke-width:2.24999856999999980;stroke-linecap:round;stroke-linejoin:round;stroke-dasharray:none;stroke-opacity:1"
     id="path706" />
  <path
     d="M 140.06837,397.08769 L 140.61962,409.06598 C 140.73418,411.33784 141.48208,411.93863 143.45652,411.81097"
     style="fill:none;fill-opacity:1;fill-rule:evenodd;stroke:#002868;stroke-width:2.25000072000000010;stroke-linecap:round;stroke-linejoin:round;stroke-dasharray:none;stroke-opacity:1"
     id="path709" />
  <path
     d="M 145.9309,396.96303 L 147.59133,411.29434"
     style="font-size:12px;fill:none;fill-rule:evenodd;stroke:#002868;stroke-width:2.25000380999999990;stroke-linecap:round;stroke-linejoin:round;stroke-dasharray:none;stroke-opacity:1"
     id="path707" />
  <path
     d="M 154.24926,411.01763 C 153.64219,400.649 152.24905,400.47219 147.30058,401.19159"
     style="font-size:12px;fill:none;fill-rule:evenodd;stroke:#002868;stroke-width:2.25000380999999990;stroke-linecap:round;stroke-linejoin:round;stroke-dasharray:none;stroke-opacity:1"
     id="path708" />
  <path
     d="M 43.757838,392.40993 C 43.757838,392.40993 56.633023,378.8779 56.759497,379.01956 C 57.326402,378.51343 54.22826,397.57769 54.22826,397.57769 L 54.22826,397.57769"
     style="font-size:12px;fill:none;fill-rule:evenodd;stroke:#002868;stroke-width:3.12500118999999990;stroke-linecap:round;stroke-linejoin:round;stroke-dasharray:none;stroke-opacity:1"
     id="path659" />
  <path
     d="M 48.464615,387.69849 L 55.144359,390.90257"
     style="font-size:12px;fill:none;fill-rule:evenodd;stroke:#002868;stroke-width:3.12500118999999990;stroke-linecap:round;stroke-linejoin:round;stroke-dasharray:none;stroke-opacity:1"
     id="path660" />
  <path
     d="M 72.802358,405.54441 C 72.799934,405.44902 77.488451,388.03769 77.488451,388.03769 C 79.496115,388.52505 81.593921,388.82005 83.511465,389.50061 C 84.852934,389.94124 86.890261,391.59998 86.103261,394.27985 C 85.732788,395.90513 84.977697,397.34928 83.828362,398.23328"
     style="font-size:12px;fill:none;fill-rule:evenodd;stroke:#002868;stroke-width:3.12499905000000000;stroke-linecap:round;stroke-dasharray:none;stroke-opacity:1"
     id="path673" />
  <path
     d="M 75.424263,396.54619 L 81.831961,398.18939 C 83.557939,398.81031 83.976301,400.3201 83.978702,400.41464 C 84.299698,401.83232 83.21973,407.93972 83.21973,407.93972"
     style="font-size:12px;fill:none;fill-rule:evenodd;stroke:#002868;stroke-width:3.12499905000000000;stroke-linecap:round;stroke-linejoin:round;stroke-dasharray:none;stroke-opacity:1"
     id="path674" />
</svg>
