<?xml version="1.0" encoding="UTF-8" standalone="no"?>
<svg
   xmlns:dc="http://purl.org/dc/elements/1.1/"
   xmlns:cc="http://creativecommons.org/ns#"
   xmlns:rdf="http://www.w3.org/1999/02/22-rdf-syntax-ns#"
   xmlns:svg="http://www.w3.org/2000/svg"
   xmlns="http://www.w3.org/2000/svg"
   xmlns:sodipodi="http://sodipodi.sourceforge.net/DTD/sodipodi-0.dtd"
   xmlns:inkscape="http://www.inkscape.org/namespaces/inkscape"
   color-interpolation="auto"
   color-rendering="auto"
   font-size="12"
   font-style="normal"
   font-weight="normal"
   height="496.06308"
   image-rendering="auto"
   shape-rendering="auto"
   stroke-miterlimit="10"
   text-rendering="auto"
   width="531.49603"
   id="svg2"
   sodipodi:version="0.32"
   inkscape:version="0.48.1 "
   sodipodi:docname="Seal.svg"
   inkscape:output_extension="org.inkscape.output.svg.inkscape"
   version="1.0"
   style="font-size:12px;font-style:normal;font-weight:normal;fill:#000000;fill-opacity:1;stroke:#000000;stroke-width:1;stroke-linecap:square;stroke-linejoin:miter;stroke-miterlimit:10;stroke-opacity:1;stroke-dasharray:none;stroke-dashoffset:0;font-family:Dialog">
  <metadata
     id="metadata1432">
    <rdf:RDF>
      <cc:Work
         rdf:about="">
        <dc:format>image/svg+xml</dc:format>
        <dc:type
           rdf:resource="http://purl.org/dc/dcmitype/StillImage" />
      </cc:Work>
    </rdf:RDF>
  </metadata>
  <sodipodi:namedview
     inkscape:window-height="1004"
     inkscape:window-width="1280"
     inkscape:pageshadow="2"
     inkscape:pageopacity="0.0"
     guidetolerance="10.0"
     gridtolerance="10.0"
     objecttolerance="10.0"
     borderopacity="1.0"
     bordercolor="#666666"
     pagecolor="#ffffff"
     id="base"
     showgrid="false"
     inkscape:zoom="0.70710678"
     inkscape:cx="377.23865"
     inkscape:cy="289.53861"
     inkscape:current-layer="g12512"
     inkscape:window-x="-8"
     inkscape:window-y="-8"
     inkscape:window-maximized="1"
     fit-margin-top="0"
     fit-margin-left="0"
     fit-margin-right="0"
     fit-margin-bottom="0" />
  <!--Generated by the Batik Graphics2D SVG Generator-->
  <defs
     id="genericDefs">
    <inkscape:perspective
       sodipodi:type="inkscape:persp3d"
       inkscape:vp_x="0 : 268 : 1"
       inkscape:vp_y="0 : 1000 : 0"
       inkscape:vp_z="800 : 268 : 1"
       inkscape:persp3d-origin="400 : 178.66667 : 1"
       id="perspective1434" />
    <defs
       id="defs1">
      <clipPath
         id="clipPath1"
         clipPathUnits="userSpaceOnUse">
        <path
           id="path9"
           d="M 0,0 800,0 800,536 0,536 0,0 z"
           inkscape:connector-curvature="0" />
      </clipPath>
    </defs>
    <clipPath
       clipPathUnits="userSpaceOnUse"
       id="clipPath3313">
      <path
         style="fill:none;stroke:#646464;stroke-width:0.58683354;stroke-linecap:round;stroke-linejoin:round;stroke-miterlimit:10;stroke-opacity:1;stroke-dasharray:none"
         d="m 32.411466,256.45614 -0.0052,23.06127 0.148447,2.16355 -0.167887,27.69427 -0.01398,78.13025 114.715524,0.0464 47.43109,-0.25781 64.25378,0.002 12.71674,0.12357 3.38894,-0.12485 48.45497,0.0943 40.47725,0.33525 56.76007,0.0101 31.30527,-0.19931 11.54476,-0.015 5.5084,-0.0113 83.91768,-0.11897 1.61219,0.0106 1.50598,-3.62939 1.47474,-2.49674 2.1255,-2.69614 2.41981,-2.33231 1.98199,-1.48784 2.65301,-1.54806 2.31745,-0.98699 2.12153,-0.65497 3.17953,-0.66025 2.68309,-0.27027 1.4064,0.12349 1.92058,-0.045 2.29865,0.29814 2.58661,0.58539 3.48897,1.25263 2.37206,1.17196 2.94951,1.97958 1.83125,-1.22107 4.84263,-4.20693 1.39009,-0.88071 2.03927,-0.53294 5.61415,0.10533 2.86633,-0.70086 1.83432,-0.61566 0.89179,-0.46436 2.93321,-2.3139 1.46589,-0.62597 3.3813,-0.19726 1.46948,-0.9231 0.79672,-1.77474 0.19825,-1.5391 -0.80031,-2.28499 -0.0815,-2.01729 0.28274,-1.61968 0.87986,-1.02885 2.57598,-1.50764 1.81051,-0.38932 1.12509,-0.41984 1.25748,-1.14075 0.66957,-1.62523 1.21009,-1.79086 1.41646,-0.75399 2.30808,-0.72627 4.319,-4.04138 3.85983,-2.5005 1.63096,-0.7337 1.84335,0.0622 3.27703,-1.30807 1.73573,-0.5007 0.78633,-1.40104 2.06188,-1.45654 1.13702,-3.05509 1.10651,-0.40578 1.76642,0.71288 1.67812,0.31803 3.29885,-2.06999 1.43021,-0.0281 1.84994,-1.60664 0.30728,-1.08966 -0.0824,-0.95526 -1.6371,-2.41154 -1.88125,-1.08565 -0.69326,-1.95708 -1.11122,-2.28541 -2.70651,-2.07126 -3.14662,-1.72851 -2.02455,-1.28565 -2.00057,-4.86769 -0.84889,-1.51736 -1.36436,-1.4858 -1.73829,-1.35702 -1.30942,-0.25713 -3.4547,-3.01398 -0.52883,-1.00813 -0.1442,-1.42967 -0.33808,-1.4261 -0.75741,-2.13891 -1.18458,-2.58927 -1.82398,-0.92063 -1.40038,-0.82639 -1.27441,0.39809 -1.71466,0.55767 -1.25413,-0.33899 -1.22106,-1.08745 -1.02309,-0.34003 -0.77122,-1.14918 -0.45234,-3.02302 -0.52064,-1.64673 0.40296,-1.21622 -0.0769,-1.19439 0.5557,-0.96703 0.01,-1.94777 -0.24927,-1.34696 -0.0286,-3.27264 -0.41069,-2.28627 -1.0135,-0.77965 -2.39621,-2.78876 -1.72835,-0.78017 -2.71042,-0.35861 -0.90747,0.47843 -1.16844,1.02493 -1.38431,0.0891 -1.55913,-0.65984 -1.06736,-1.39787 0.63854,-1.29195 -0.19262,-1.1172 -0.0934,-1.02622 -0.61615,-2.3793 1.02457,-0.75656 -0.40671,-2.31056 -0.89957,-1.20223 1.05622,-1.81688 0.89116,-0.57659 0.57877,-0.94579 -0.33808,-0.96676 -1.10196,-0.002 -1.13776,-0.87448 -0.33001,-0.85668 1.89028,-3.99866 0.0757,-0.88447 0.0299,-1.65482 -1.1989,-1.55173 0.537,-1.10006 1.57533,-1.19925 0.64804,-1.93132 0.87349,-0.0916 1.56999,0.51435 1.97074,-0.1663 0.92167,-1.54226 1.60437,-0.62103 0.8477,-1.24325 0.0645,-1.12377 1.06673,-1.17836 0.55025,-2.02445 -1.32777,-1.85089 0.72866,-0.87782 1.57095,-0.0983 1.45067,0.0596 0.46854,-0.94912 0.90332,-1.36563 -0.28989,-1.14245 -2.3853,-2.9293 -0.082,-1.83887 -0.35206,-0.9781 -1.78647,-1.46594 -1.16839,-2.21727 -1.27839,-1.90607 -0.0637,-1.52315 -0.46837,-0.92515 -1.33055,-0.26983 0.23933,-1.31337 0.58592,-1.81686 1.98944,-1.44963 1.49163,-0.68167 0.76571,-0.8785 1.98744,-0.51367 3.96467,-2.59064 0.95923,-0.43579 0.005,-0.95594 0.93407,-1.28461 1.19509,-1.72212 1.2685,-1.28701 1.34845,-0.37371 1.48169,-1.09008 -0.57388,-1.09435 -1.36271,-0.81624 0.9989,-1.56069 0.86957,-0.3929 1.1373,-0.58904 1.07026,-0.71766 0.73281,-1.04019 0.93764,-0.4578 1.13651,-0.78307 1.00219,-0.9765 0.73525,-0.97537 0.73201,-1.42883 0.46587,-0.97436 1.0031,-0.91159 0.8007,-1.16947 0.39785,-1.29801 0.6665,-1.29903 0.46581,-0.90896 0.66826,-1.04027 0.13012,-1.03704 -0.60866,-0.90563 0.26529,-1.03806 0.33161,-1.03815 0.53382,-0.90946 1.0056,-0.78145 0.26517,-1.03806 0.39871,-1.10347 0.26529,-0.97324 0.60178,-1.03918 0.73622,-1.0402 1.00639,-0.78093 0.93923,-0.71603 1.27425,-0.91109 0.33404,-0.97376 0.0638,-0.97213 0.87389,-0.26217 0.87457,-0.0675 1.07526,-0.45669 0.53467,-1.10348 0.87213,-1.16939 0.87378,-0.32639 1.07691,-0.13184 1.27839,-0.003 0.94184,-0.39068 1.07606,-0.45669 0.85281,-0.42991 0.24819,-0.15547 0.58126,-1.42909 -1.90812,-1.65116 -1.36794,-2.25531 -1.67352,-0.52969 -0.53467,-0.9602 0.25069,-1.19183 0.34819,-2.00031 -0.91344,-0.45277 -2.18705,1.00319 -1.04946,-0.39129 -1.22118,0.565 -1.21645,-0.22608 -0.45661,-1.04429 -0.88411,-1.6509 -1.14561,0.33456 -0.88411,1.25263 -1.19748,0.0159 -1.28584,-1.22193 -1.76977,-0.5448 -1.70374,0.62069 -1.78511,-0.3616 0.80582,-1.29502 -0.65945,-0.99209 -1.30021,-0.4201 -0.67161,-2.1099 -1.22135,-0.17671 -0.93434,-0.74068 -1.70477,0.24254 -1.11998,0.60414 -1.27924,-0.1489 -1.72818,-1.20343 0.37706,-1.80321 -0.60257,-1.46448 -1.76705,-0.34002 -0.0159,-1.84758 -1.21782,-1.04948 -0.89105,-0.24971 -0.19586,-0.95057 0.95219,-0.63494 -0.26188,-1.07933 -1.24191,-1.46382 -0.36894,-0.43484 -1.14594,-1.25417 -0.34978,-1.34064 -1.45794,-1.07926 -0.76389,-1.23063 -0.51842,-1.4389 1.31384,-0.18574 -0.041,-0.95432 1.40823,0.24152 0.41103,-1.12122 -0.5607,-1.44861 -0.0685,-1.15438 0.0182,-0.94818 0.0476,-1.1167 -0.13609,-0.89121 -1.03554,-1.3948 0.88543,-1.09153 -0.15972,-1.20446 -1.59983,-2.43432 0.67127,-1.07148 1.2447,-0.0535 -0.54519,-3.122461 0.22115,-1.365211 -0.0461,-0.990984 -1.2843,-2.146144 -1.33084,-0.708959 -1.73971,0.469651 -1.30157,-0.834491 0.3495,-1.962445 1.44516,-1.370325 1.2585,-0.139357 0.51848,-1.401195 -0.64758,-0.970518 -1.25657,0.505129 -1.30021,-1.055378 -1.52322,-1.188587 -0.21524,-2.596782 -1.52709,0.04545 -1.09526,-1.00395 -1.52828,0.554426 -0.88281,-0.327147 -0.61087,-1.080532 -0.14154,-1.827867 -1.08901,0.252434 -1.02293,1.130085 -0.60445,-0.860418 -1.05838,-0.368511 -1.20669,0.345396 -0.96417,1.427469 -0.86679,-0.286128 -1.29084,-1.059639 -0.86383,0.690964 -1.02651,-0.251417 -0.36177,-0.993802 0.68775,-0.907238 -0.33655,-0.953461 -1.17395,-0.510759 -0.16336,-1.393355 0.57383,-1.420133 -0.98907,-2.164742 -0.27967,-2.386901 -1.13202,-0.567641 -0.22518,-1.369388 -1.07849,0.51093 -1.0039,-0.01595 -0.85934,-0.746222 -0.46382,-1.065271 -0.72576,-0.960965 -1.45482,-0.635957 0.50632,-1.975242 -0.46933,-0.937426 -1.94858,-0.88319 -13.62459,0.03411 -30.55455,0.20229 -23.64745,-0.149487 -43.8523,0.06088 -50.67586,-0.531907 -32.07965,0.388546 -41.63832,-0.09372 -35.54612,0.25866 -18.60568,-0.07129 -13.99699,-0.24178 -16.11499,0.211841 -35.80549,-0.129884 -30.59748,0.331152 -27.50602,-0.278275 -38.25431,0.178841 -31.77823,-0.07897 0.13317,-38.607619 -2.41062,1.050555 -5.62555,3.580686 -2.13036,0.929073 -1.71144,0.198881 -2.59625,1.919291 -3.530405,1.638543 -3.386141,2.10666 -5.002696,3.534975 -1.269174,0.817354 -4.199406,2.253259 -1.107169,0.366204 -1.756042,-0.749805 -0.287003,0.869201 -1.443799,1.495777 -1.41515,0.415751 -2.126178,1.590105 -1.839089,0.722005 0.639577,-1.702847 0.111696,-1.370495 1.10376,-1.513774 0.569062,-1.050598 1.532728,0.507267 1.401764,-0.186858 0.706766,-1.076272 1.564621,0.542232 -0.556443,-1.536716 0.274468,-1.230464 -0.852821,0.05237 -2.630692,0.875089 -1.964946,1.730137 -1.523517,2.311079 -0.693294,2.060351 -1.066844,2.073398 -3.284592,2.317052 -3.67144,2.003121 -1.141529,0.399466 -7.442822,4.07115 -8.281397,3.412853 -8.573436,3.306593 -0.952754,0.738892 -5.754818,1.945387 -0.869621,0.553653"
         id="path3315"
         inkscape:connector-curvature="0" />
    </clipPath>
    <inkscape:perspective
       id="perspective3748"
       inkscape:persp3d-origin="0.5 : 0.33333333 : 1"
       inkscape:vp_z="1 : 0.5 : 1"
       inkscape:vp_y="0 : 1000 : 0"
       inkscape:vp_x="0 : 0.5 : 1"
       sodipodi:type="inkscape:persp3d" />
    <inkscape:perspective
       id="perspective3775"
       inkscape:persp3d-origin="0.5 : 0.33333333 : 1"
       inkscape:vp_z="1 : 0.5 : 1"
       inkscape:vp_y="0 : 1000 : 0"
       inkscape:vp_x="0 : 0.5 : 1"
       sodipodi:type="inkscape:persp3d" />
  </defs>
  <path
     style="font-size:12px;font-style:normal;font-weight:normal;fill:#000000;fill-opacity:1;stroke:none;font-family:Dialog"
     d="m -4737.3837,4138.8498 0,0 0,0 0,0"
     id="path8"
     inkscape:connector-curvature="0" />
  <g
     style="font-size:12px;font-style:normal;font-weight:normal;fill:#000000;fill-opacity:1;stroke:#000000;stroke-width:1.00002992;stroke-linecap:square;stroke-linejoin:miter;stroke-miterlimit:10;stroke-opacity:1;stroke-dasharray:none;stroke-dashoffset:0;font-family:Dialog"
     id="g12512"
     transform="matrix(1.7599473,0,0,1.7599473,-214.85379,-205.5811)">
    <path
       style="fill:#fec500;fill-rule:evenodd;stroke:none"
       d="m 122.07967,116.81094 301.99543,0 0,281.86246 -301.99543,0 z"
       id="rect606" />
    <path
       style="fill-rule:evenodd;stroke:none;fill:#ffffff"
       d="m 122.07967,126.87746 291.9289,0 0,261.7294 -291.9289,0 z"
       id="rect607" />
    <path
       inkscape:connector-curvature="0"
       d="m 224.61336,292.17701 c 0,0 6.93464,7.92535 9.90666,9.4113 2.97197,1.48601 17.3366,9.41131 17.3366,9.41131 l -0.49535,11.39267 c 0,0 -8.4206,-1.98137 -17.8319,-7.43 -9.41131,-5.44863 -17.83196,-14.36463 -17.83196,-14.36463 l 9.90661,0.49535 -0.99066,-8.916 z"
       id="path641"
       style="fill:#003271;fill-opacity:1;fill-rule:evenodd;stroke:#ffffff;stroke-width:0.34091932;stroke-linecap:butt;stroke-linejoin:miter;stroke-miterlimit:4;stroke-opacity:1;stroke-dasharray:none" />
    <path
       inkscape:connector-curvature="0"
       d="m 282.07184,321.89693 c 0,0 11.39268,-2.47666 19.31797,-8.42065 7.92529,-5.94398 15.85064,-12.87862 15.85064,-12.87862 l -9.4113,0.99065 0.99065,-9.4113 c 0,0 -7.42999,7.42999 -12.38332,10.89731 -4.95333,3.46732 -15.35529,6.43934 -15.35529,6.43934 l 0.99065,12.38327 z"
       id="path642"
       style="fill:#003271;fill-opacity:1;fill-rule:evenodd;stroke:#ffffff;stroke-width:0.34091932;stroke-linecap:butt;stroke-linejoin:miter;stroke-miterlimit:4;stroke-opacity:1;stroke-dasharray:none" />
    <path
       inkscape:connector-curvature="0"
       d="m 241.94996,298.12099 c 0,0 12.87868,6.93464 23.77594,6.43934 10.89732,-0.49535 24.76659,-6.43934 24.76659,-6.43934 l 0.49536,15.85065 c 0,0 -15.35529,5.44863 -24.76659,5.44863 -9.41131,0 -24.2713,-5.44863 -24.2713,-5.44863 l 0,-15.85065 z"
       id="path643"
       style="fill:#003271;fill-opacity:1;fill-rule:evenodd;stroke:#ffffff;stroke-width:0.34091932;stroke-linecap:butt;stroke-linejoin:miter;stroke-miterlimit:4;stroke-opacity:1;stroke-dasharray:none" />
    <path
       inkscape:connector-curvature="0"
       d="m 241.96314,313.87811 9.30466,8.35343"
       id="path644"
       sodipodi:nodetypes="cc"
       style="fill:none;stroke:#ffffff;stroke-width:0.34091932;stroke-linecap:butt;stroke-linejoin:miter;stroke-miterlimit:4;stroke-opacity:1;stroke-dasharray:none" />
    <path
       inkscape:connector-curvature="0"
       d="m 290.80086,313.97164 -8.63549,7.67102"
       id="path646"
       sodipodi:nodetypes="cc"
       style="fill:none;stroke:#ffffff;stroke-width:0.34091932;stroke-linecap:butt;stroke-linejoin:miter;stroke-miterlimit:4;stroke-opacity:1;stroke-dasharray:none" />
    <path
       inkscape:connector-curvature="0"
       d="m 245.20148,303.51916 -0.16074,8.84038 2.57178,0.96441 -6e-5,-3.53619 3.85762,0.16074 -0.16075,4.17911 2.57173,0.48217 0.16074,-9.32255 -2.25024,-0.16069 -0.32148,2.89316 -3.69688,-0.32143 0,-3.53613 -2.57172,-0.64298 z"
       id="path647"
       sodipodi:nodetypes="ccccccccccccc"
       style="fill:#fec500;fill-opacity:1;fill-rule:evenodd;stroke:none" />
    <path
       inkscape:connector-curvature="0"
       d="m 281.68797,314.60978 -0.16074,-10.12621 6.91151,-2.0895 0,2.25024 -4.50053,1.44664 5e-5,2.08949 4.33979,-1.60732 -0.16074,2.41098 -4.1791,0.9644 -0.16069,2.41099 4.66122,-1.76801 0.16074,1.60732 -6.91151,2.41098 z"
       id="path650"
       sodipodi:nodetypes="ccccccccccccc"
       style="fill:#fec500;fill-opacity:1;fill-rule:evenodd;stroke:none" />
    <path
       inkscape:connector-curvature="0"
       d="m 259.98897,311.2344 c 0,0 -0.16075,-3.37539 2.08949,-3.37539 2.2503,0 2.57178,2.57172 2.41104,3.69682 -0.16074,1.12514 -0.48223,3.05395 -2.08955,3.21469 -1.60732,0.16075 -2.2503,-1.12514 -2.41098,-3.53612 z m 2.25029,5.46493 c 2.88793,-0.076 4.33973,-1.92886 4.33973,-5.62568 0,-3.53613 -2.57172,-5.14345 -4.50053,-5.14345 -1.92881,0 -4.33979,2.41098 -4.33979,5.3042 0,2.89321 1.28067,5.54965 4.50059,5.46493 z"
       id="path654"
       style="font-size:12px;fill:#fec500;fill-opacity:1;fill-rule:evenodd;stroke:none" />
    <path
       inkscape:connector-curvature="0"
       d="m 273.00845,308.0197 0,2.41098 c 0,0 3.37538,0.16074 3.37538,-1.44658 0,-1.60738 -2.89321,-0.80372 -3.37538,-0.9644 z m -2.25035,8.67963 -0.32149,-9.96547 3.85762,-0.32148 c 1.76192,-0.14683 4.33973,0.64291 4.1791,2.25029 -0.16075,1.60732 -0.34371,3.03543 -2.89327,3.37539 l -2.41098,0.32148 -0.16075,4.17905 -2.25023,0.16074 z"
       id="path658"
       style="font-size:12px;fill:#fec500;fill-opacity:1;fill-rule:evenodd;stroke:none" />
    <path
       inkscape:connector-curvature="0"
       d="m 264.23989,211.43794 c 0,0 -0.4953,54.48646 -0.4953,58.44914 0,3.96267 0,9.4113 -4.45797,8.42065 -4.45798,-0.99066 -9.90666,-0.99066 -17.83196,-6.43934 -7.92529,-5.44863 -7.92529,-6.43929 -7.92529,-6.43929 l 7.42994,-2.47666 c 0,0 -7.42994,-1.48601 -12.38327,-4.95333 -4.95333,-3.46732 -8.91601,-6.43929 -8.91601,-6.43929 0,0 -0.49535,7.42994 1.98137,12.87863 2.47666,5.44863 7.42994,10.40196 7.42994,10.40196 l 0,-6.43934 c 0,0 6.93464,6.43934 9.4113,7.92535 2.47667,1.48595 12.38333,5.44863 16.346,7.92529 3.96262,2.47667 11.88792,9.41131 11.88792,9.41131 0,0 6.93469,-7.9253 11.88796,-9.90661 4.95333,-1.98136 11.39268,-4.95338 14.36464,-6.93469 2.97202,-1.98131 10.89731,-9.41131 10.89731,-9.41131 l 0,8.42065 c 0,0 5.44869,-6.43934 6.93464,-10.89731 1.48601,-4.45798 1.98131,-12.38327 1.98131,-12.38327 0,0 -3.96262,2.97196 -7.42994,4.45797 -3.46732,1.48601 -13.37398,5.44863 -13.37398,5.44863 l 7.9253,1.98137 c 0,0 -12.87863,9.9066 -17.3366,11.88797 -4.45797,1.98131 -13.86928,2.97196 -13.86928,-1.98137 0,-4.95333 0.4953,-62.90711 0.4953,-62.90711 l -4.95333,0 z"
       id="path630"
       sodipodi:nodetypes="ccccccccccccccccccccccccccc"
       style="fill:#fec500;fill-opacity:1;fill-rule:evenodd;stroke:#fec500;stroke-width:0.56819882pt;stroke-linecap:butt;stroke-linejoin:miter;stroke-opacity:1" />
    <rect
       height="14.859948"
       id="rect631"
       style="font-size:12px;fill:#fec500;fill-opacity:1;fill-rule:evenodd;stroke:#fec500;stroke-width:0.56819886;stroke-opacity:1"
       width="3.4673254"
       x="264.73523"
       y="193.11064" />
    <path
       inkscape:connector-curvature="0"
       d="m 239.96865,207.97062 c 0,0 13.86928,-2.97202 26.74791,-2.97202 12.87862,0 26.2526,2.97202 26.2526,2.97202 l 0,5.44863 c 0,0 -17.83196,2.47667 -28.23391,2.47667 -10.40196,0 -25.2619,-2.97203 -25.2619,-2.97203 l 0.4953,-4.95327 z"
       id="path629"
       style="fill:#fec500;fill-opacity:1;fill-rule:evenodd;stroke:#ffffff;stroke-width:0.56819882pt;stroke-linecap:butt;stroke-linejoin:miter;stroke-opacity:1" />
    <path
       inkscape:connector-curvature="0"
       d="m 271.66989,205.4939 c 0,3.28277 -2.3286,5.94398 -5.20101,5.94398 -2.87242,0 -5.20101,-2.66121 -5.20101,-5.94398 0,-3.28277 2.32859,-5.94399 5.20101,-5.94399 2.87241,0 5.20101,2.66122 5.20101,5.94399 z m 2.47666,-0.24762 c 0,4.51383 -3.54829,8.17297 -7.92529,8.17297 -4.37707,0 -7.92535,-3.65914 -7.92535,-8.17297 0,-4.51383 3.54828,-8.17297 7.92535,-8.17297 4.377,0 7.92529,3.65914 7.92529,8.17297 z"
       id="path640"
       style="font-size:12px;fill:#fec500;fill-opacity:1;fill-rule:evenodd;stroke:#ffffff;stroke-width:0.71024853;stroke-opacity:1;stroke-dasharray:none" />
    <path
       transform="matrix(0.5273692,0,0,0.5169007,135.92523,121.17323)"
       style="fill:#fec500;fill-rule:evenodd;stroke:none"
       d="m 248.45105,56.692913 8.16813,20.391023 21.87093,2.043278 -16.86893,14.069532 4.81522,21.431894 -18.59371,-11.69558 -18.89495,11.20236 5.37738,-21.297793 -16.49294,-14.508452 21.91711,-1.467187 z"
       id="polygon616" />
    <path
       transform="matrix(0.45720858,0.26282776,-0.25761055,0.44813274,218.99263,72.24225)"
       style="fill:#fec500;fill-rule:evenodd;stroke:none"
       d="m 248.45105,56.692913 8.16813,20.391023 21.87093,2.043278 -16.86893,14.069532 4.81522,21.431894 -18.59371,-11.69558 -18.89495,11.20236 5.37738,-21.297793 -16.49294,-14.508452 21.91711,-1.467187 z"
       id="polygon617" />
    <path
       transform="matrix(0.29817313,0.43498348,-0.42634913,0.29225421,305.64357,72.461512)"
       style="fill:#fec500;fill-rule:evenodd;stroke:none"
       d="m 248.45105,56.692913 8.16813,20.391023 21.87093,2.043278 -16.86893,14.069532 4.81522,21.431894 -18.59371,-11.69558 -18.89495,11.20236 5.37738,-21.297793 -16.49294,-14.508452 21.91711,-1.467187 z"
       id="polygon618" />
    <path
       transform="matrix(0.06777987,0.52299521,-0.51261308,0.06643438,385.6425,113.27846)"
       style="fill:#fec500;fill-rule:evenodd;stroke:none"
       d="m 248.45105,56.692913 8.16813,20.391023 21.87093,2.043278 -16.86893,14.069532 4.81522,21.431894 -18.59371,-11.69558 -18.89495,11.20236 5.37738,-21.297793 -16.49294,-14.508452 21.91711,-1.467187 z"
       id="polygon619" />
    <path
       transform="matrix(-0.18097474,0.49534438,-0.4855117,-0.17738202,440.6625,185.83939)"
       style="fill:#fec500;fill-rule:evenodd;stroke:none"
       d="m 248.45105,56.692913 8.16813,20.391023 21.87093,2.043278 -16.86893,14.069532 4.81522,21.431894 -18.59371,-11.69558 -18.89495,11.20236 5.37738,-21.297793 -16.49294,-14.508452 21.91711,-1.467187 z"
       id="polygon620" />
    <path
       transform="matrix(0.47368407,-0.23182228,0.22722044,0.46428152,85.204008,194.10731)"
       style="fill:#fec500;fill-rule:evenodd;stroke:none"
       d="m 248.45105,56.692913 8.16813,20.391023 21.87093,2.043278 -16.86893,14.069532 4.81522,21.431894 -18.59371,-11.69558 -18.89495,11.20236 5.37738,-21.297793 -16.49294,-14.508452 21.91711,-1.467187 z"
       id="polygon621" />
    <path
       transform="matrix(0.49097834,0.19250633,-0.18868463,0.48123202,182.41818,259.23358)"
       style="fill:#fec500;fill-rule:evenodd;stroke:none"
       d="m 248.45105,56.692913 8.16813,20.391023 21.87093,2.043278 -16.86893,14.069532 4.81522,21.431894 -18.59371,-11.69558 -18.89495,11.20236 5.37738,-21.297793 -16.49294,-14.508452 21.91711,-1.467187 z"
       id="polygon622" />
    <path
       transform="matrix(0.50295426,0.15860418,-0.15545579,0.49297044,79.019363,123.98568)"
       style="fill:#fec500;fill-rule:evenodd;stroke:none"
       d="m 248.45105,56.692913 8.16813,20.391023 21.87093,2.043278 -16.86893,14.069532 4.81522,21.431894 -18.59371,-11.69558 -18.89495,11.20236 5.37738,-21.297793 -16.49294,-14.508452 21.91711,-1.467187 z"
       id="polygon623" />
    <path
       transform="matrix(0.51769334,-0.10055585,0.0985592,0.50741747,37.730717,228.65187)"
       style="fill:#fec500;fill-rule:evenodd;stroke:none"
       d="m 248.45105,56.692913 8.16813,20.391023 21.87093,2.043278 -16.86893,14.069532 4.81522,21.431894 -18.59371,-11.69558 -18.89495,11.20236 5.37738,-21.297793 -16.49294,-14.508452 21.91711,-1.467187 z"
       id="polygon624" />
    <path
       transform="matrix(0.40406835,-0.33889083,0.33216392,0.39604709,50.89185,340.94421)"
       style="fill:#fec500;fill-rule:evenodd;stroke:none"
       d="m 248.45105,56.692913 8.16813,20.391023 21.87093,2.043278 -16.86893,14.069532 4.81522,21.431894 -18.59371,-11.69558 -18.89495,11.20236 5.37738,-21.297793 -16.49294,-14.508452 21.91711,-1.467187 z"
       id="polygon625" />
    <path
       transform="matrix(0.52398899,0.05961315,-0.05842959,0.51358754,80.348033,268.14157)"
       style="fill:#fec500;fill-rule:evenodd;stroke:none"
       d="m 248.45105,56.692913 8.16813,20.391023 21.87093,2.043278 -16.86893,14.069532 4.81522,21.431894 -18.59371,-11.69558 -18.89495,11.20236 5.37738,-21.297793 -16.49294,-14.508452 21.91711,-1.467187 z"
       id="polygon626" />
    <path
       transform="matrix(0.34139488,0.40195465,-0.393976,0.33461854,194.03046,220.31088)"
       style="fill:#fec500;fill-rule:evenodd;stroke:none"
       d="m 248.45105,56.692913 8.16813,20.391023 21.87093,2.043278 -16.86893,14.069532 4.81522,21.431894 -18.59371,-11.69558 -18.89495,11.20236 5.37738,-21.297793 -16.49294,-14.508452 21.91711,-1.467187 z"
       id="polygon627" />
    <path
       transform="matrix(0.5220787,-0.07451132,0.0730323,0.51171532,191.90789,302.08173)"
       style="fill:#fec500;fill-rule:evenodd;stroke:none"
       d="m 248.45105,56.692913 8.16813,20.391023 21.87093,2.043278 -16.86893,14.069532 4.81522,21.431894 -18.59371,-11.69558 -18.89495,11.20236 5.37738,-21.297793 -16.49294,-14.508452 21.91711,-1.467187 z"
       id="polygon628" />
  </g>
</svg>
