<?xml version="1.0" encoding="UTF-8" standalone="no"?>
<!-- Created with Inkscape (http://www.inkscape.org/) -->

<svg
   xmlns:dc="http://purl.org/dc/elements/1.1/"
   xmlns:cc="http://creativecommons.org/ns#"
   xmlns:rdf="http://www.w3.org/1999/02/22-rdf-syntax-ns#"
   xmlns:svg="http://www.w3.org/2000/svg"
   xmlns="http://www.w3.org/2000/svg"
   version="1.1"
   width="750"
   height="500"
   id="svg548">
  <metadata
     id="metadata3">
    <rdf:RDF>
      <cc:Work
         rdf:about="">
        <dc:title></dc:title>
        <dc:description />
        <dc:subject>
          <rdf:Bag>
            <rdf:li />
            <rdf:li>0xa10d420</rdf:li>
            <rdf:li>america</rdf:li>
            <rdf:li>flag</rdf:li>
            <rdf:li>unitedstates</rdf:li>
            <rdf:li>north_america</rdf:li>
            <rdf:li>sign</rdf:li>
          </rdf:Bag>
        </dc:subject>
        <dc:publisher>
          <cc:Agent
             rdf:about="http://www.openclipart.org">
            <dc:title>Steve Hall</dc:title>
          </cc:Agent>
        </dc:publisher>
        <dc:creator>
          <cc:Agent>
            <dc:title>Steve Hall</dc:title>
          </cc:Agent>
        </dc:creator>
        <dc:rights>
          <cc:Agent>
            <dc:title>Steve Hall</dc:title>
          </cc:Agent>
        </dc:rights>
        <dc:date />
        <dc:format>image/svg+xml</dc:format>
        <dc:type
           rdf:resource="http://purl.org/dc/dcmitype/StillImage" />
        <cc:license
           rdf:resource="http://web.resource.org/cc/PublicDomain" />
        <dc:language>en</dc:language>
      </cc:Work>
      <cc:License
         rdf:about="http://web.resource.org/cc/PublicDomain">
        <cc:permits
           rdf:resource="http://web.resource.org/cc/Reproduction" />
        <cc:permits
           rdf:resource="http://web.resource.org/cc/Distribution" />
        <cc:permits
           rdf:resource="http://web.resource.org/cc/DerivativeWorks" />
      </cc:License>
    </rdf:RDF>
  </metadata>
  <defs
     id="defs550" />
  <rect
     width="750"
     height="500"
     x="0"
     y="0"
     id="rect552"
     style="fill:#003366" />
  <path
     d="M 41.520294,93.345604 C 20.372323,163.84732 105.40582,220.81374 163.32788,169.69856 C 224.07191,105.91678 156.28351,19.771415 85.887083,47.270351 C 137.26562,38.436202 167.89061,97.800508 133.34237,134.84233 C 99.971709,168.93104 39.116253,146.52992 41.520294,93.345604 z"
     id="path557"
     style="fill:#ffffff;fill-opacity:1;fill-rule:evenodd;stroke:none" />
  <path
     d="M 412.56316,84.605212 C 409.86803,85.857948 407.87765,89.503384 406.74055,92.380336 C 404.04202,100.41208 401.26694,108.42706 398.55485,116.44456 C 397.13948,120.05017 395.7736,123.71876 394.34797,127.29607 C 391.73152,126.94314 395.38043,122.47311 395.17906,120.56047 C 396.04383,116.63436 397.96562,112.79655 398.13043,108.78981 C 397.47268,105.78951 398.19719,101.89577 396.70745,99.454206 C 394.48443,104.58396 391.668,109.49781 389.75485,114.74363 C 388.31613,121.03825 386.38469,127.22085 385.57774,133.64377 C 385.09561,136.96866 384.51122,140.24716 383.43144,143.43491 C 380.76918,143.18651 381.47231,138.49475 379.90643,136.56053 C 378.4854,132.04181 375.62408,128.132 373.55608,123.89031 C 372.49934,122.83977 370.0709,115.45377 370.11474,119.56981 C 369.8771,122.54376 369.67251,125.52045 369.4004,128.49154 C 363.4838,117.43424 357.54928,106.38653 351.62566,95.332981 C 352.10766,98.92371 351.61065,102.79422 352.91551,106.18659 C 355.78862,112.38016 358.41374,118.68561 361.15795,124.93659 C 359.71392,126.30317 359.42305,124.04456 358.70147,123.12656 C 353.22835,113.46355 347.75524,103.80053 342.28212,94.137511 C 340.07163,95.69049 341.61086,98.553255 341.32601,100.79237 C 342.22873,103.93179 344.30924,106.74301 345.72597,109.71652 C 348.31622,114.56283 350.9786,119.38578 353.63908,124.18155 C 351.73219,126.28353 350.69435,120.33157 349.3291,118.9907 C 344.37973,110.405 339.48181,101.78796 334.38572,93.288098 C 332.15279,94.059734 331.46205,95.69539 331.83749,97.859452 C 331.4682,100.02731 332.36621,101.87141 333.62058,103.61378 C 337.44997,110.24159 341.31536,116.84857 345.17641,123.45798 C 343.868,124.97698 343.46811,122.75836 342.70579,121.87023 C 336.49284,112.03874 330.27988,102.20725 324.06693,92.375766 C 322.55498,91.695631 320.41723,89.881183 320.90083,92.893957 C 320.18225,96.665365 324.2809,99.302019 325.62118,102.56404 C 331.14748,111.11377 336.84191,119.71022 342.34504,128.17694 C 341.19292,129.72963 340.66469,127.74677 339.92165,126.89421 C 336.42995,121.94218 332.93825,116.99014 329.44655,112.0381 C 328.14294,111.69889 326.46784,110.85198 326.96018,112.96719 C 326.87371,114.31017 326.5157,115.72656 327.65569,116.73796 C 333.24122,125.12092 338.93143,133.46136 344.45214,141.87061 C 346.24326,145.5342 347.87543,149.30818 349.76453,152.90373 C 352.95412,156.18621 356.1437,159.4687 359.33329,162.75118 C 357.04373,164.59467 354.72395,158.74301 352.44361,157.68617 C 350.0284,154.96778 346.7801,152.79523 345.41626,149.31464 C 343.75963,146.72479 342.80892,143.63237 340.25303,141.73819 C 337.42222,139.61406 335.24687,135.74496 331.96332,134.78348 C 330.90222,137.12394 331.76779,142.38895 334.94684,144.19754 C 335.26369,145.0702 339.72135,148.07234 337.27428,147.45659 C 332.47463,146.92947 327.96667,145.25014 323.4692,143.59221 C 320.75153,146.19923 329.95753,148.2861 324.79051,149.34934 C 321.05316,149.40031 318.17056,146.0116 314.75485,144.75622 C 306.24061,140.10048 297.5174,135.81224 288.81156,131.54293 C 287.00421,130.9977 285.19685,130.45246 283.3895,129.90723 C 282.88665,133.06015 287.81302,133.94967 289.44994,136.17931 C 296.05429,139.74552 302.82057,143.12478 309.43816,146.70672 C 309.22624,148.6959 307.431,147.19183 306.23049,146.99989 C 293.84543,143.01164 281.46038,139.0234 269.07532,135.03516 C 266.99503,134.53781 267.35765,135.62957 268.19942,137.03302 C 268.4068,138.65591 270.01926,138.73676 271.27787,139.20594 C 280.99991,142.46825 290.71316,145.75818 300.44067,149.00328 C 300.82368,150.53579 301.14484,152.08383 301.47884,153.62786 C 299.26902,151.80742 297.09075,149.72577 294.06369,149.52894 C 287.73169,147.96063 281.20693,149.29021 274.78739,149.36347 C 271.36175,148.54245 270.9177,151.30749 274.3291,151.89758 C 277.0706,154.02794 280.60469,152.83175 283.7916,153.00098 C 288.97469,152.84599 294.15746,152.68002 299.33958,152.49531 C 300.25722,155.44826 294.27927,153.47198 294.05253,155.87005 C 293.45488,158.71755 298.82837,158.71812 300.76779,158.13583 C 303.73203,158.18548 305.78643,153.79187 308.30561,154.54019 C 307.64726,157.35833 302.69913,157.98792 302.13772,160.90364 C 301.76519,163.82455 307.72601,162.9647 309.44057,161.71696 C 311.42997,160.06414 314.85494,157.56849 315.03799,161.99615 C 315.61693,165.99709 320.90728,164.448 323.78379,165.80278 C 328.91086,166.58465 334.16048,166.90925 339.24086,167.74901 C 344.10109,169.95475 348.97783,172.14377 353.82784,174.35983 C 352.83036,177.11211 348.55546,172.9393 346.34042,173.10144 C 342.66994,172.077 339.28884,169.99354 335.39048,169.95515 C 332.01966,169.33636 328.63466,169.40823 325.25146,169.80199 C 315.00312,170.65829 304.73423,171.35276 294.4987,172.31004 C 284.97232,173.91876 275.42233,175.45957 265.89789,177.0339 C 263.4784,177.78524 258.21768,179.20308 263.25527,180.17988 C 274.07036,179.67217 284.86326,178.76206 295.65879,177.94623 C 296.43918,179.83431 294.11965,179.18988 292.95808,179.49146 C 283.97996,180.40256 275.00185,181.31366 266.02373,182.22476 C 263.25999,184.26857 259.57106,185.39339 258.06442,188.73692 C 258.49739,193.49659 264.45585,189.14387 267.40796,189.4605 C 275.17645,188.15439 282.91477,186.91787 290.40502,184.52132 C 292.63656,184.69961 298.21532,180.71458 298.55309,183.57753 C 290.08375,186.19019 281.59324,188.83869 273.05223,191.20598 C 271.23372,191.63086 269.41522,192.05575 267.59671,192.48063 C 267.0658,196.85229 273.67787,194.30256 276.37398,194.99741 C 282.30111,193.61137 287.94954,191.21978 293.80784,189.55834 C 296.93158,189.30146 301.66365,185.63972 303.92708,187.14343 C 301.9161,189.19688 297.24506,190.28016 294.3247,191.97929 C 288.29762,194.61588 282.18532,197.03738 276.31106,200.03097 C 272.44197,203.95095 280.42211,203.59111 282.38158,201.56141 C 288.6574,198.68273 294.85543,195.64349 301.03841,192.54355 C 302.55406,193.7971 300.32567,194.39649 299.53622,195.25682 C 296.0335,197.99855 292.61675,200.83494 288.71086,202.99128 C 287.19814,204.20638 284.72393,204.63074 284.42767,206.85773 C 287.85879,208.80876 291.13681,206.44268 294.21165,204.90722 C 302.2496,199.70323 310.38021,194.61301 318.56148,189.64926 C 322.09886,188.06508 325.72773,186.69334 329.32071,185.24489 C 330.70911,186.63066 328.4402,187.05152 327.57982,187.86475 C 323.63178,190.50674 319.66889,193.13063 315.7301,195.7839 C 311.42409,200.23767 307.52549,205.13566 302.44053,208.75068 C 300.06916,210.73422 297.64881,212.52022 295.77465,214.70741 C 292.05647,218.4474 288.20622,222.05438 284.52205,225.82795 C 283.37271,229.63987 280.92339,233.22319 281.19414,237.31268 C 281.2412,241.7158 280.7408,246.16718 281.15568,250.54045 C 281.60754,252.35755 282.6561,256.50091 283.01115,252.35895 C 283.21083,250.46513 284.51798,243.93485 285.92071,248.51708 C 286.69177,250.23126 287.45006,255.39885 288.36364,254.50247 C 289.70195,251.85027 289.94977,248.12975 292.10384,246.11947 C 294.02268,247.23929 295.53907,250.00243 297.36744,246.82349 C 299.68763,244.12207 299.34381,240.06176 300.49823,236.7727 C 301.49303,232.50498 302.491,228.23802 303.49227,223.97182 C 305.31039,223.44554 304.87991,225.64734 305.33291,226.77727 C 305.91484,229.40756 306.49676,232.03784 307.07868,234.66813 C 311.04773,232.94805 309.42728,227.58303 310.70694,224.18872 C 310.96113,221.64519 311.77002,214.94728 314.50177,220.05978 C 316.10666,223.90833 320.55286,219.47167 320.4176,216.67316 C 321.32527,212.23855 322.19436,207.79594 323.12314,203.3657 C 324.31407,205.48812 325.55606,207.58128 326.77247,209.6891 C 330.91665,209.49695 332.34236,205.34057 335.03081,202.87673 C 337.44648,200.36879 339.60104,197.46279 342.28212,195.28055 C 345.33721,193.70598 348.19984,191.60229 351.34252,190.24699 C 354.40858,193.08128 349.78113,196.90765 348.03925,199.33885 C 344.15173,204.14196 339.35336,208.09849 335.28333,212.74893 C 333.67681,214.60329 331.16346,216.15986 331.83749,218.91985 C 333.87965,219.83033 336.0095,220.65775 338.06651,221.58088 C 334.95986,223.13826 331.62079,224.47744 328.75443,226.36276 C 325.97883,228.76372 322.98245,230.89476 320.07155,233.1266 C 319.28564,235.2389 318.77789,237.62412 321.9026,236.74581 C 324.13361,236.36164 330.14102,237.31541 325.4197,239.51293 C 320.98226,242.41327 315.84437,244.22358 311.45158,247.09472 C 310.23513,248.71882 306.96982,251.26776 310.94822,251.15303 C 313.60537,250.77084 317.583,246.72174 319.55711,248.77165 C 316.76416,251.85782 313.14435,254.83567 310.08772,257.91895 C 308.53119,259.1235 305.07862,262.47298 307.1223,263.41437 C 311.9651,261.09908 315.36758,256.7475 319.49315,253.43187 C 320.94298,251.12888 324.8279,249.08292 323.5978,253.57267 C 318.80797,259.53599 314.17785,265.66883 309.2494,271.47602 C 309.74573,277.30792 313.49571,269.80234 315.34295,268.23746 C 318.22365,264.83696 320.90172,261.19332 324.66715,258.70688 C 325.97431,258.42293 329.42162,253.51139 329.60384,255.51923 C 329.51599,257.18901 330.03161,259.05298 328.61259,260.35251 C 325.63432,264.36712 323.6437,268.95944 321.2041,273.30068 C 320.80122,275.1747 320.38388,280.55957 323.09168,278.01964 C 326.31547,272.00745 330.2489,266.3847 332.78704,260.01845 C 335.38866,254.55815 337.14407,248.69726 339.3249,243.09934 C 341.16018,240.36041 342.05723,241.28877 341.80157,244.15184 C 342.09775,246.81479 341.98518,252.51214 343.82364,252.91477 C 347.1655,245.27971 351.36024,238.05911 354.92307,230.53764 C 356.15622,226.86786 357.6214,223.26349 359.14453,219.6933 C 361.06399,219.49212 360.18227,221.57585 360.37146,222.78605 C 360.24237,225.21385 360.62848,227.72597 360.18256,230.10193 C 358.11212,236.04689 356.55977,242.17836 353.67266,247.80616 C 351.92217,251.42511 349.4486,254.68665 347.75611,258.32585 C 346.05985,260.53509 346.68938,260.55155 348.60061,259.25289 C 351.98076,257.70525 354.25044,254.80337 356.59417,252.04229 C 360.28062,249.08593 357.5436,255.80841 356.69394,257.23435 C 354.68892,262.9184 353.39147,268.88229 351.1223,274.49615 C 351.09404,276.19731 350.50411,280.10814 352.67154,277.11418 C 356.73996,273.93346 358.22093,268.83809 360.6546,264.49196 C 362.13027,266.64814 364.90661,267.89398 366.25148,265.23544 C 366.02561,261.87778 364.4771,258.39781 365.98886,255.14579 C 367.48169,249.76686 368.70783,244.28636 369.54984,238.77303 C 369.955,235.42075 370.1809,232.03112 370.59587,228.69078 C 372.4613,227.73012 371.67283,230.69094 371.8228,231.81499 C 371.8228,234.37048 371.8228,236.92598 371.8228,239.48147 C 373.64985,239.68224 377.00315,236.44427 377.95745,238.56914 C 376.11317,240.14911 373.29682,241.12734 371.6268,242.84586 C 371.55581,244.98573 371.48482,247.12559 371.41383,249.26545 C 373.68942,247.88122 375.965,246.49699 378.24059,245.11276 C 379.85424,246.24778 377.71549,247.03322 376.98376,247.9715 C 375.11663,249.71364 373.2495,251.45577 371.38237,253.19791 C 371.35091,254.70798 371.31945,256.21804 371.28799,257.72811 C 372.86993,257.2309 374.46414,256.76842 376.03841,256.24951 C 377.33598,257.72671 375.09752,258.05964 374.16952,258.8297 C 373.11978,259.80455 370.76053,259.97217 371.10126,261.80539 C 370.98228,266.41461 370.81336,271.02106 370.62733,275.6287 C 371.459,273.98149 374.39407,270.01561 373.96489,269.79045 C 373.00304,271.67339 369.5018,271.79957 371.88572,269.84011 C 372.87676,268.63626 378.27897,264.79092 376.37123,268.63348 C 374.51188,271.31509 372.89622,274.88501 370.94421,277.08773 C 370.389,277.03384 369.72281,280.97557 371.40551,280.19698 C 372.80238,281.14747 377.11305,281.58085 374.13598,283.23532 C 372.86175,284.51444 371.26671,285.65255 370.1869,287.01712 C 370.27525,290.87458 369.30301,297.29936 370.05787,299.53979 C 371.19583,297.94038 374.94093,295.05222 374.15488,294.29674 C 372.57539,295.05136 367.76226,294.69169 371.13069,293.46637 C 373.18261,292.68884 378.91492,292.46912 375.25191,295.70001 C 373.30003,299.17892 368.65323,300.2736 369.53032,304.07906 C 369.54821,306.88701 368.39813,308.60195 371.83457,308.08826 C 375.76792,307.74391 376.04176,311.57674 372.4964,312.62497 C 370.05832,314.04777 367.92752,313.95483 369.4004,317.18701 C 370.1598,319.31083 375.40446,320.7444 374.0879,322.94414 C 373.89155,320.46303 373.33406,323.90129 371.97657,321.41211 C 370.30632,320.08004 368.15614,316.9133 368.86254,321.11381 C 368.55562,329.1277 368.23854,337.1412 367.9218,345.15471 C 369.57524,344.64868 372.5073,346.96477 372.53631,348.03768 C 370.83176,349.61851 366.76201,342.71409 367.8205,348.18158 C 367.87746,350.6441 367.22961,355.19509 367.73097,356.34162 C 368.55137,355.65125 369.85375,357.62496 370.86071,357.96572 C 372.00984,358.7604 373.15898,359.55508 374.30812,360.34976 C 373.675,362.30278 372.32718,360.28955 371.24865,359.77076 C 369.9824,358.89413 368.71615,358.01749 367.4499,357.14086 C 367.74693,360.39928 366.31571,366.39339 367.62733,368.07878 C 369.12249,369.18069 373.02823,372.34957 372.93219,374.12082 C 370.99912,374.63703 368.20769,368.8694 366.99082,369.19864 C 366.80269,374.0613 366.62843,378.92449 366.44319,383.78726 C 368.47335,384.46827 372.58489,387.11123 373.6567,388.77552 C 371.82292,390.32975 367.95062,384.55859 366.36342,385.29156 C 366.07543,389.21998 366.31162,393.23541 365.74889,397.11781 C 365.00429,399.94083 372.78086,399.24418 371.09923,402.12828 C 368.23078,401.18264 364.25056,397.07909 364.2277,402.38217 C 363.61514,406.60904 359.7668,410.92599 362.7624,414.93239 C 363.91518,418.18498 367.60971,419.57064 370.37566,421.22434 C 373.64236,420.70899 376.77833,419.09411 380.18024,418.96695 C 385.1944,418.18987 390.29433,417.91031 395.29176,417.10311 C 397.40359,415.56304 400.02073,414.11085 396.83737,412.13575 C 394.30309,409.02503 394.9054,404.59118 393.43564,401.05865 C 393.43215,398.18364 392.84123,396.93396 390.31203,399.00981 C 388.32924,399.4024 385.24744,403.63063 384.12356,400.99573 C 387.08621,399.56179 389.77484,397.69708 392.77498,396.30823 C 392.42019,392.54577 391.6932,388.80427 391.76827,385.01419 C 389.39803,386.54309 385.89739,389.72161 383.62201,389.28278 C 384.54988,387.16576 389.08265,386.23429 391.01324,384.00747 C 392.41646,383.98858 391.49951,381.99824 391.73842,380.82217 C 391.70642,377.5425 391.67443,374.26282 391.64243,370.98315 C 389.44674,373.46171 386.81806,375.22928 383.49436,375.76503 C 381.0222,373.60375 387.2678,374.38252 388.07458,372.54238 C 389.5691,370.85351 392.33231,369.80185 391.59202,367.16188 C 391.56688,364.26198 391.54174,361.36207 391.5166,358.46217 C 389.58454,359.74475 386.04442,364.34628 384.17854,362.44021 C 386.19617,360.64252 390.56338,358.92284 391.47824,356.2336 C 391.43859,352.46723 391.39895,348.70086 391.3593,344.93449 C 389.27663,347.71688 386.43412,349.62259 383.07042,350.4996 C 381.41962,352.33082 378.05147,350.70449 381.40822,349.78824 C 384.68334,348.70244 387.9906,347.51624 390.02741,344.53932 C 391.87864,343.54728 391.25639,341.78428 391.32288,339.95771 C 391.29307,337.27519 391.26327,334.59268 391.23346,331.91016 C 387.32164,335.3786 383.7881,339.22375 379.90795,342.73231 C 377.86501,340.57634 383.70397,338.70592 384.53254,336.5662 C 386.46363,334.25197 389.73869,332.0149 391.22898,330.02595 C 391.19902,327.09907 391.16905,324.17219 391.13908,321.24531 C 389.64829,322.62436 387.23379,324.37251 390.28967,322.72392 C 391.65766,324.26399 389.25623,324.42067 388.24995,325.08938 C 386.86464,325.73887 385.47463,326.37864 384.0921,327.0339 C 382.64587,324.31821 388.77199,322.98703 389.99347,320.5979 C 391.64685,321.0037 391.03399,319.44628 391.10918,317.83813 C 391.08768,315.79642 391.06619,313.75472 391.0447,311.71301 C 389.00105,315.43413 384.92846,313.27638 381.67868,312.60076 C 379.27844,312.40456 381.53714,311.67251 382.53422,311.07919 C 385.10889,309.69651 387.68355,308.31382 390.25821,306.93113 C 391.70997,308.39631 389.31504,308.67434 388.3445,309.39196 C 386.82216,310.1971 385.29983,311.00225 383.7775,311.80739 C 386.63153,313.40641 390.13172,312.38306 391.00714,309.61026 C 391.01515,304.70655 390.87347,299.88725 390.63572,294.97644 C 388.37979,297.24325 387.0848,299.72261 384.28086,300.73357 C 385.59245,300.12719 391.00083,300.91448 387.36391,301.86612 C 385.27792,302.28292 378.31362,302.54854 383.18715,299.8911 C 385.67587,298.91354 387.29217,297.09594 388.87489,295.00756 C 390.75669,293.92361 390.73885,293.18897 390.48411,290.9739 C 390.35638,287.95615 390.22864,284.9384 390.10091,281.92065 C 388.95889,283.32512 384.09376,287.16956 385.33468,287.16591 C 386.79115,286.24815 392.49957,285.98184 389.10555,287.62975 C 386.92893,287.49193 382.22359,290.52349 381.44948,287.86654 C 384.48255,286.12494 386.71231,283.40586 389.24527,281.00837 C 390.72859,281.1987 389.75083,279.01792 389.93748,277.6699 C 389.5725,268.61073 389.20751,259.55155 388.84252,250.49238 C 387.41777,251.75757 381.45106,256.57888 383.63238,251.7931 C 385.09492,250.11702 386.58529,247.185 388.2096,246.61501 C 389.27255,246.06948 388.30217,244.09125 388.55009,242.97144 C 388.79536,240.19839 387.10427,237.83655 386.27714,235.29124 C 386.21963,234.25124 384.27008,232.4335 385.92771,232.12551 C 387.73239,233.65819 388.58631,237.82022 390.04905,240.28319 C 392.27281,245.4308 394.81256,250.46539 396.77037,255.71469 C 397.85242,260.08268 399.00462,264.43641 399.16131,268.95924 C 400.27195,268.55443 402.34442,269.2245 402.26766,267.4927 C 402.52693,265.78883 403.75768,264.0322 402.67662,262.40111 C 397.80443,249.14195 392.26395,236.14734 387.11223,222.99657 C 388.33443,221.72765 388.73875,223.45801 389.21819,224.48834 C 392.21497,230.46242 394.17235,236.88793 396.66918,243.08376 C 399.20315,249.80188 401.86813,256.48193 404.91844,262.98189 C 409.61232,260.25108 405.73069,255.36078 405.06786,251.38776 C 402.87426,244.12128 399.90854,237.11087 397.36654,229.95994 C 396.61202,228.68911 394.96285,228.09283 393.86529,227.08064 C 392.24919,225.88882 390.59241,224.68111 388.99982,223.49993 C 390.32405,220.99975 393.26294,225.39509 395.29434,225.61227 C 398.78811,229.29368 399.64868,223.63539 402.74857,222.98513 C 403.61759,226.17518 397.72488,228.75676 400.86257,232.44072 C 403.1238,240.15473 405.1526,247.94673 408.14749,255.41886 C 408.64349,256.76561 409.14432,258.11058 409.6374,259.4584 C 408.62429,260.91468 410.06701,267.14685 412.13239,265.53994 C 412.84043,262.1758 414.99195,258.846 413.16445,255.44558 C 410.48234,245.19439 406.80008,235.23654 403.70069,225.10651 C 403.74149,221.41434 406.04788,226.68017 406.30521,228.26726 C 409.86845,237.9442 413.72341,247.53221 416.87314,257.3506 C 416.20367,260.23466 416.22485,266.3342 419.98765,262.88751 C 420.15635,259.03697 420.45693,255.09373 418.8551,251.46763 C 415.59733,242.79776 413.00781,233.87402 410.1093,225.07291 C 408.4537,226.87385 405.33991,225.14899 404.85633,223.16018 C 405.41218,218.78703 401.80157,218.90939 398.54049,219.18994 C 397.114,219.05103 401.03007,217.00726 401.48933,216.26419 C 403.2509,215.29572 407.00554,212.33233 403.38497,211.5374 C 402.22834,211.00611 401.07772,210.46165 399.91634,209.94078 C 401.64402,206.96728 403.43406,204.04854 405.72307,201.46061 C 407.13326,198.8898 406.06187,194.27748 403.32628,192.70992 C 401.34189,191.61959 401.56531,189.1058 400.78048,187.24304 C 399.74492,186.14604 400.78383,184.03251 401.6096,185.62273 C 402.1253,187.39485 402.641,189.16698 403.1567,190.9391 C 406.14469,192.54237 407.53158,195.17356 407.4624,198.49064 C 408.82535,201.58678 405.23363,203.4648 403.90881,205.80841 C 403.11938,206.95634 402.45316,208.19331 401.70955,209.37451 C 403.37302,210.15839 405.07169,210.87119 406.71165,211.70253 C 407.05585,214.82871 401.66037,216.89572 402.05561,217.96301 C 407.29249,216.55758 404.11352,223.8562 408.06633,224.45439 C 409.40964,224.44133 410.57767,223.10528 411.84913,222.54989 C 414.11745,222.97864 410.89733,224.03541 411.43114,225.04904 C 415.65782,236.54205 419.99839,248.04458 424.0145,259.58424 C 423.63153,263.75944 427.60912,264.30443 430.08623,266.03348 C 430.42948,268.25931 431.49428,272.48641 433.84269,271.57865 C 433.94351,265.62414 434.31677,259.63502 434.33329,253.70127 C 434.67324,251.66846 431.2195,246.74231 434.05015,246.49699 C 435.63958,251.15309 437.74342,255.69244 438.83469,260.48485 C 439.60351,263.59784 438.07137,268.65494 442.53617,269.118 C 444.50642,269.91914 442.98152,262.76429 445.09252,264.71217 C 446.25653,265.63499 447.42054,266.55781 448.58455,267.48063 C 453.3095,267.59401 449.79641,262.41313 449.8744,259.773 C 448.38808,256.07851 446.9779,252.33896 445.50149,248.63625 C 447.70127,247.72607 444.31971,248.95834 444.95677,246.59901 C 444.44887,242.94584 442.08175,240.19833 439.96247,237.3423 C 439.06375,235.40676 439.124,233.11404 437.44527,235.86308 C 435.44793,237.51713 436.32778,240.24546 437.72933,241.98941 C 440.00765,245.51658 439.78237,250.17754 442.62811,253.3664 C 443.87975,255.4208 445.55918,257.49276 445.12398,260.04106 C 445.23543,261.21439 445.32838,263.54656 443.86559,262.41729 C 443.67017,260.42668 444.40026,258.27358 443.16827,256.69182 C 441.65973,253.72554 439.49468,251.87445 438.89495,248.54187 C 438.24091,245.19114 436.3722,242.32696 434.96248,239.29271 C 435.27829,238.55621 430.26167,239.69684 430.65082,238.1287 C 432.0384,237.93398 431.79244,237.32263 434.14453,237.84556 C 435.92504,236.33995 435.90778,233.50381 434.71081,231.61654 C 432.34808,226.32196 428.70893,221.68069 426.05938,216.54733 C 425.39118,213.19705 426.7222,209.07235 423.50941,206.73786 C 420.18954,203.50509 418.5097,199.14463 416.65292,194.99741 C 414.51989,192.02468 411.04712,190.27332 408.56777,187.57291 C 407.21784,188.00035 402.12859,188.15901 404.65572,186.63477 C 408.1382,185.24186 410.53429,187.22921 412.75191,189.58634 C 415.27901,191.55103 417.96277,193.58298 418.80955,196.80971 C 420.3856,200.57713 422.43716,204.0622 425.35681,206.95289 C 427.92924,209.36826 426.60069,213.22929 427.28631,216.32711 C 430.4526,222.07056 434.688,227.31374 436.81861,233.56704 C 436.35823,236.30199 437.57421,232.69183 438.87314,233.01063 C 438.74993,229.91353 439.8285,225.72604 437.82532,222.83927 C 435.73383,218.95095 433.29853,215.20226 431.40753,211.23063 C 430.09151,208.39584 428.48086,204.85052 427.01386,201.75675 C 425.47387,198.18146 423.23629,194.97225 421.1202,191.7256 C 423.2295,189.51924 424.32825,195.87481 425.965,196.97937 C 429.64922,203.49613 431.96771,210.69532 435.99514,217.02852 C 437.17021,219.80876 439.66113,222.2474 440.18771,225.20794 C 440.59264,226.97806 439.48529,232.71122 440.9219,232.23579 C 441.63927,230.85401 442.36913,229.47861 443.07909,228.09305 C 444.22704,227.54877 446.49886,227.89577 446.77482,226.63919 C 447.17253,222.77544 443.2816,219.96268 442.89034,216.16981 C 441.79077,210.9962 439.71724,206.10346 437.14454,201.50048 C 434.38364,195.43955 430.33108,190.05616 428.14614,183.72926 C 427.56779,180.03859 430.56078,184.75036 430.62345,186.47314 C 432.7482,191.30792 435.85087,195.65131 438.04554,200.4714 C 440.1365,204.39244 442.1358,208.34668 443.28504,212.66457 C 444.07189,216.72485 445.74718,220.47837 447.86097,224.03474 C 448.22413,225.65739 447.81322,226.92186 449.19646,227.06929 C 449.83569,228.56036 446.73035,227.80578 447.95796,230.08996 C 448.3115,231.52013 447.58681,236.92218 446.51518,233.84792 C 446.60928,231.31266 447.80412,227.18993 444.18252,229.13135 C 443.21781,229.96698 442.84906,231.56106 442.108,232.68132 C 441.49778,234.20449 439.21749,234.09703 440.77011,236.25851 C 442.8009,239.28326 445.50378,241.97514 446.03498,245.74096 C 446.4657,249.09918 449.25498,251.37373 450.94266,254.27545 C 452.77265,256.15556 454.91828,261.91252 456.75378,260.87905 C 457.57406,257.30422 454.43437,254.91879 453.2862,251.81294 C 450.83033,246.55939 448.60185,241.19974 446.25653,235.89506 C 448.16271,237.27 450.59162,238.071 451.67839,240.32704 C 456.04189,246.13919 460.33205,252.01053 464.81777,257.72811 C 469.51681,259.9848 466.63108,254.12749 465.19529,252.28558 C 461.61158,245.05324 456.70522,238.58353 452.47116,231.72397 C 451.55145,230.78592 448.61038,226.22227 451.35678,227.62719 C 456.18983,233.59204 461.02289,239.55689 465.85594,245.52174 C 467.48914,246.63736 470.43797,247.56668 469.45679,244.78824 C 465.31197,237.21953 460.03506,230.34757 455.42019,223.05893 C 450.59536,216.19552 446.49666,208.85883 442.16676,201.66687 C 444.44522,199.82306 447.43515,204.45231 449.97453,205.05773 C 454.03631,207.27624 457.6566,210.11013 460.98203,213.31302 C 466.58644,218.18626 471.97378,223.34338 477.79743,227.9447 C 480.69992,229.53437 482.96302,232.31138 486.08455,233.34682 C 486.13633,232.29838 482.8927,228.36079 484.25546,228.38622 C 487.52673,229.30778 490.61944,230.66623 493.6412,232.17703 C 495.66593,233.17365 502.00046,235.55651 498.82574,231.42778 C 497.81606,229.36227 493.00414,228.24385 493.78961,226.00277 C 494.68298,225.52232 496.13299,227.03122 497.24063,227.31612 C 499.78262,228.8443 502.64032,229.53753 505.55812,229.94917 C 509.8232,229.75823 507.14327,225.31651 504.26256,225.28744 C 497.65113,221.76564 491.09143,218.13997 484.51156,214.56536 C 485.87585,211.80241 490.33874,216.18908 492.91131,216.04397 C 494.41464,215.57107 499.93678,216.70637 498.00405,214.09969 C 497.18643,213.09803 495.49546,213.06457 494.32442,212.45471 C 485.30899,209.18927 476.27622,205.96429 467.27163,202.67358 C 463.42964,200.08579 459.52402,197.57705 455.66299,195.02887 C 456.25328,192.66306 460.12426,195.71124 462.04931,195.46931 C 465.42216,196.35056 468.81239,197.07834 472.31637,197.03601 C 474.56683,197.09799 479.28584,197.67021 480.10471,197.29574 C 478.61429,196.49126 472.03896,194.58824 475.7926,193.56268 C 477.6757,193.44664 483.59335,193.32783 478.5485,193.14003 C 474.96982,192.76833 471.23061,192.89612 467.77498,191.94582 C 468.21687,190.6673 470.00523,191.14895 472.33984,191.39716 C 474.8887,192.27093 480.05209,190.77368 481.04853,192.91192 C 483.5784,193.72181 488.02209,192.68154 491.27828,192.87855 C 495.78394,192.48242 500.74067,193.10415 504.96157,191.99147 C 506.43349,189.69898 510.83484,188.95548 510.75415,185.98049 C 510.46056,183.21967 510.42854,180.37393 509.97481,177.66511 C 509.03747,176.64145 508.83895,174.56049 507.25115,174.46772 C 502.99642,173.76956 498.9276,172.60001 494.89327,171.15093 C 486.49683,170.94617 478.06656,171.02172 469.69403,170.52174 C 466.98054,170.34513 463.75073,172.8022 460.63362,172.62954 C 455.81802,173.11353 450.89911,172.71579 446.22843,174.20471 C 444.42765,175.6009 441.92365,173.58663 444.80938,173.22728 C 448.41697,172.27243 452.067,171.61924 455.81126,171.67605 C 459.61804,171.55438 463.44569,171.27024 466.97483,169.71159 C 469.13889,168.24361 469.61768,170.73742 470.04159,168.01523 C 472.02155,167.26454 478.3598,167.79588 476.86685,165.7084 C 469.04643,165.97381 461.22125,166.06837 453.39789,166.21176 C 450.58416,165.93343 446.99587,167.67222 444.21165,169.01167 C 440.94862,170.33116 443.64072,167.02312 445.65879,166.93533 C 449.12248,164.88136 453.43169,165.39062 456.79554,163.16016 C 462.05308,160.71024 466.99323,157.60982 472.11643,154.91771 C 473.44741,153.73976 477.15143,151.90359 473.23249,151.52249 C 470.15785,150.8135 466.8708,152.5846 463.68522,152.62115 C 459.48463,153.3632 463.68998,149.70243 465.2692,148.99694 C 470.17499,146.47486 474.9752,143.71691 479.66676,140.79229 C 481.15529,139.65631 485.54799,138.88148 484.13404,136.98566 C 480.15682,138.31399 476.21947,140.21507 472.14789,141.32711 C 470.77118,141.65531 464.52476,142.42733 467.60997,139.9921 C 473.60678,136.03159 479.50933,131.92542 485.45535,127.8938 C 487.43632,125.23287 486.0012,125.16463 483.62387,126.25102 C 480.8705,127.08913 478.81839,129.34019 476.2538,130.64912 C 475.37343,132.19239 470.43958,133.49918 473.05925,130.82536 C 475.71543,128.51708 478.31049,126.1314 481.08245,123.96134 C 482.48353,122.0106 483.92038,117.36498 480.1145,119.55384 C 477.66185,120.84545 474.50764,121.03794 472.79836,123.42355 C 469.77836,126.56285 466.70102,129.67974 463.71668,132.83298 C 461.53495,130.78714 467.17795,128.53088 467.87314,126.36443 C 470.32431,123.55741 472.90526,120.82814 475.1051,117.82669 C 475.57022,115.3654 475.67795,113.63242 473.17986,115.34742 C 471.96549,115.86973 470.75111,116.39205 469.53673,116.91436 C 469.90204,119.45322 464.51394,122.10463 462.80435,124.62199 C 459.91045,127.09216 455.97534,128.12982 453.42935,131.07124 C 451.39492,128.89941 456.99235,127.25045 458.43144,125.97476 C 462.50093,123.99464 465.25379,120.2652 468.53002,117.26041 C 464.94473,117.98771 460.81398,117.83974 458.71458,121.4131 C 453.28662,126.57256 448.00453,131.91356 442.4499,136.92275 C 435.67747,141.61876 428.79479,146.22076 421.84378,150.60773 C 418.6647,151.88813 414.14647,150.83582 412.64068,154.66982 C 409.98512,158.40492 406.83986,161.74632 403.88027,165.2365 C 407.06194,164.53589 410.08326,165.26292 412.95647,166.67345 C 415.71808,167.6397 418.06525,169.54902 420.71123,170.74196 C 420.12102,173.37105 416.49416,175.36401 413.63908,174.88168 C 411.8453,174.83275 410.2281,173.62017 408.50485,173.10144 C 408.67549,171.03297 410.42989,172.70201 411.601,172.99454 C 413.90058,174.23969 417.02021,173.7544 418.71454,171.71404 C 417.83044,169.89859 413.139,168.06512 410.41598,167.05087 C 407.94473,165.5658 405.11306,166.58777 402.43312,166.62073 C 399.26304,167.34027 403.3183,164.53218 403.78658,163.43518 C 407.295,159.49219 410.65193,155.42635 413.69571,151.11108 C 413.47462,147.92584 417.0068,145.67544 418.18218,142.73653 C 421.64323,137.63657 423.42953,131.62569 426.08373,126.08412 C 427.21331,123.77236 426.63067,121.07177 426.92451,118.57024 C 426.84013,117.21288 427.32114,115.7335 426.84587,114.4605 C 424.38277,118.99207 421.84936,123.51949 419.4843,128.08256 C 416.5699,128.25088 419.18386,123.63215 420.02402,122.43284 C 422.2639,117.90571 424.7904,113.45558 426.88426,108.89391 C 426.94487,106.98475 427.00548,105.0756 427.06609,103.16645 C 425.17945,101.52607 424.22886,107.12239 422.73068,108.43369 C 419.45173,113.89321 416.42348,119.53427 413.00503,124.89134 C 412.6696,126.70269 409.04836,128.01873 410.50023,125.45312 C 415.38536,116.46698 420.40105,107.51355 425.41202,98.621699 C 427.42559,95.051097 426.77916,90.882069 427.06609,86.964692 C 425.13552,83.914131 423.78802,88.606684 422.2415,89.818655 C 420.26292,92.276193 419.53497,95.503514 418.01498,98.26371 C 415.54892,103.61908 412.99203,108.9402 410.48681,114.27174 C 407.6839,113.1169 412.10402,108.93091 412.14125,106.57674 C 414.54429,100.36748 416.93544,94.153629 419.327,87.939944 C 418.12865,85.447737 415.43812,92.023956 414.1676,93.539776 C 411.88562,98.638624 409.23639,103.56481 406.71165,108.54607 C 404.01219,107.36959 408.35846,103.22404 408.24076,100.96707 C 409.54769,97.193042 411.26765,93.455065 412.5317,89.733149 C 412.34169,88.328176 414.33236,84.67606 412.56316,84.605212 z M 429.86601,152.30655 C 430.48727,154.78904 426.74755,155.92047 425.20997,157.84347 C 423.27693,158.56491 416.36522,160.2613 419.34038,161.81564 C 421.30684,160.77367 423.2778,159.74015 425.24143,158.69288 C 427.75408,161.07781 431.55578,163.63052 431.25875,167.27275 C 428.87074,167.87167 429.89,162.59329 427.04728,162.10235 C 425.73682,159.83568 424.07919,160.41431 422.31487,161.66163 C 420.91249,162.41744 419.48115,163.12087 418.10007,163.91519 C 415.75294,160.70968 418.35423,158.11921 421.73114,157.73673 C 425.08025,157.21396 427.0306,154.32816 429.55141,152.40093 L 429.62071,152.34385 L 429.86601,152.30655 z M 447.67222,159.22769 C 447.90453,162.02945 442.97731,160.80753 441.64917,163.17111 C 439.49986,164.21035 437.32569,167.40291 435.40627,167.37577 C 433.28707,166.96282 437.953,164.91584 438.6963,163.76339 C 441.38208,161.61053 444.12382,159.62701 447.67222,159.22769 z M 470.51198,170.17568 C 469.9671,170.69697 470.34944,170.59315 470.51198,170.17568 z M 405.98807,172.91268 C 408.90763,174.01087 412.01902,174.70874 414.49112,176.72671 C 417.68502,177.85674 417.83618,181.50953 418.76315,184.26754 C 418.85275,186.04417 417.31728,191.69791 415.70613,190.48831 C 416.35692,187.88224 418.66863,184.67089 416.71584,181.68994 C 416.45835,178.41313 413.05632,177.50252 410.75274,175.92268 C 409.0177,175.30735 407.28267,174.69202 405.54764,174.07669 C 405.69445,173.68869 405.84126,173.30068 405.98807,172.91268 z M 488.22381,173.22728 C 494.15445,173.47019 500.13467,173.72937 506.03002,174.29691 C 506.687,174.99125 504.84543,175.03303 505.11768,175.398 C 497.48022,175.05021 489.84361,174.12173 482.19792,174.75477 C 478.61822,174.29452 475.49175,177.02899 471.8666,176.25709 C 469.93462,176.63522 465.48688,175.60345 468.53002,174.80026 C 472.00225,175.18931 475.53735,175.23163 478.77705,173.74284 C 481.8466,173.184 485.09787,173.55742 488.22381,173.22728 z M 479.10049,178.19791 C 485.22729,179.07026 491.38102,179.61374 497.57426,179.5393 C 501.4769,179.75764 506.04201,179.3672 509.54805,179.98938 C 508.96537,182.58801 503.51548,180.08115 501.18683,180.85741 C 494.30852,180.7756 487.41648,180.77662 480.61055,179.64506 C 479.29335,179.68226 478.8851,179.47484 479.10049,178.19791 z M 485.73849,185.05613 C 488.2595,187.68241 491.86827,188.15509 495.49674,187.56574 C 499.76566,187.2894 504.13959,188.44565 508.28049,186.85602 C 511.88106,186.52109 508.01809,188.88243 506.13299,188.64763 C 501.9487,189.526 497.67233,188.36459 493.44612,188.89422 C 490.06998,190.08877 487.30356,187.24268 484.8799,186.60925 C 483.06705,187.68017 481.07565,187.91259 479.02787,187.76167 C 476.08437,187.76167 473.14088,187.76167 470.19738,187.76167 C 469.60136,185.79917 471.86247,186.69378 473.03845,186.50328 C 475.98063,186.48211 478.93322,186.54549 481.86894,186.47182 C 483.14427,185.97293 484.38444,185.31345 485.73849,185.05613 z M 365.46794,189.05152 C 368.53401,190.31366 362.97594,193.34959 363.8812,195.34608 C 364.01777,197.44051 364.26478,198.9286 365.24772,196.03558 C 365.6976,194.68245 366.11368,193.31787 366.60049,191.97728 C 367.83959,194.02152 369.46875,195.16552 371.8228,195.18617 C 372.829,196.91213 373.31061,200.82332 374.37017,197.20999 C 375.33989,195.34494 376.08928,193.19034 377.48556,191.66268 C 379.75515,192.959 377.17133,197.57373 377.83161,199.93659 C 377.64493,203.66076 378.43639,207.3878 377.90922,211.12111 C 378.23501,213.34379 376.04232,219.00077 379.9934,216.30359 C 381.35734,215.65481 381.53625,213.73247 382.37218,212.51625 C 383.88511,209.58863 383.32602,206.02239 384.31232,202.92526 C 387.24412,202.17367 384.58223,211.07058 387.41078,208.248 C 388.23556,205.23734 386.00488,202.70113 385.75946,199.37031 C 385.75946,197.39883 385.75946,195.42736 385.75946,193.45588 C 387.72196,192.85986 386.82735,195.12097 387.01785,196.29695 C 386.87336,198.66757 387.12234,201.0246 388.1504,203.2084 C 391.3824,204.95284 390.86327,198.94242 393.43564,197.73441 C 396.23595,196.61515 394.66303,190.77527 397.49394,191.411 C 397.23062,195.01003 395.22638,197.98702 392.74352,200.43994 C 391.72626,202.1551 391.25283,206.29357 388.33916,204.62409 C 390.4528,206.79166 388.05373,211.33883 385.44487,210.56998 C 384.86801,208.64347 384.82192,206.3878 384.51455,209.68159 C 384.42333,212.42953 382.50187,214.60415 381.5124,217.08214 C 379.13682,218.38659 374.86484,219.81576 376.427,215.39642 C 376.71673,210.66155 377.0604,205.92228 376.47884,201.19498 C 376.42357,199.64202 377.26942,194.75783 376.4983,195.71825 C 375.40669,197.927 374.36277,200.17556 373.26995,202.39045 C 371.91777,200.36681 372.45594,195.58935 369.25303,196.07363 C 367.47689,195.72074 366.84951,193.60062 366.41173,196.47602 C 365.62522,197.32619 364.64806,202.07913 363.2343,199.93659 C 362.88968,197.32161 363.10597,193.26102 360.11978,196.44456 C 359.57107,194.31932 359.05196,192.18655 358.51534,190.05823 C 360.27554,188.99005 359.96357,191.39919 360.43133,192.49987 C 360.33023,196.11299 364.19471,192.5918 364.64998,190.71889 C 364.92054,190.16207 365.19333,189.60635 365.46794,189.05152 z M 414.7968,205.0016 C 418.14992,211.79693 421.70422,218.51359 425.30435,225.19875 C 427.24859,229.9425 429.59729,234.57506 430.41646,239.68069 C 429.64777,242.1048 435.3627,245.39386 432.57154,246.02509 C 429.48977,243.61686 429.17214,239.79139 428.32448,236.27258 C 426.31142,229.99442 423.40929,224.00932 420.18787,218.25446 C 417.86518,214.1232 415.89252,209.82892 413.72717,205.6308 C 414.08371,205.42107 414.44026,205.21133 414.7968,205.0016 z M 407.93858,212.4261 C 411.14443,212.79341 405.02556,216.12862 409.0126,216.50427 C 411.07753,216.84282 410.54493,219.76222 412.41598,220.25315 C 417.12544,220.52224 411.90609,227.22194 416.7473,226.23692 C 419.07083,228.066 416.62812,232.80043 420.27079,234.00748 C 423.29822,235.46289 422.44005,239.05109 423.8551,241.53767 C 424.19156,243.44381 425.2827,243.15643 426.59841,242.21636 C 427.57739,241.56795 429.53558,240.55736 429.16692,242.34715 C 427.46015,243.19604 425.7515,244.04118 424.04596,244.89254 C 422.68676,242.25899 421.47619,239.54445 421.18312,236.55571 C 418.51715,234.55036 416.1016,232.31972 416.51934,228.65603 C 417.15283,225.84647 411.8005,228.70817 413.21347,225.17164 C 415.06783,221.57792 410.91774,222.04027 410.06105,219.62827 C 409.82415,217.20889 406.19558,217.60394 405.98807,215.47769 C 406.58472,214.42693 407.33685,213.47438 407.93858,212.4261 z M 388.71668,247.12618 C 388.1904,248.69074 383.15565,253.38947 386.87842,250.42003 C 388.80405,249.25505 389.07896,250.01267 388.73083,247.43033 L 388.72067,247.21203 L 388.71668,247.12618 z M 387.96165,258.29439 C 391.60042,258.91401 383.43704,262.41592 385.19002,262.50398 C 386.25815,261.72847 388.54031,261.82757 387.35513,263.17335 C 385.58583,263.71775 383.81652,264.26215 382.04722,264.80655 C 380.72867,261.98138 386.52621,260.57183 387.89873,258.35731 L 387.96165,258.29439 z M 388.33916,270.34347 C 391.3265,270.43614 386.70301,273.45452 385.85384,274.74783 C 382.59467,277.39735 389.72929,272.12085 389.15712,274.74113 C 387.79205,275.69908 382.83643,278.8165 381.12408,277.09105 C 383.2671,274.65192 386.33912,273.05959 388.33916,270.34347 z M 370.40712,281.13415 C 370.24151,283.43328 369.80251,286.32395 372.01411,283.46517 C 374.47453,281.95501 371.75626,282.02244 370.40712,281.13415 z M 369.33748,308.97602 C 369.2838,311.13602 368.46802,314.5728 371.31945,311.87031 C 373.43082,310.9523 375.01088,309.29451 371.61483,309.32333 C 370.85708,309.20015 370.09482,309.09374 369.33748,308.97602 z M 368.80267,332.57081 C 370.70086,333.72854 375.54972,334.01811 375.42684,336.18086 C 374.06795,335.96954 369.04229,334.81107 368.80267,333.17357 C 368.80267,332.97265 368.80267,332.77173 368.80267,332.57081 z M 360.15124,412.06955 C 352.72055,412.27422 345.26482,412.03407 337.84629,412.28977 C 334.64055,414.33313 330.93566,415.6755 328.4278,418.63205 C 326.53023,421.29933 331.61486,423.58386 334.22842,422.98608 C 335.54599,423.86121 340.2504,422.149 339.45074,424.62199 C 338.21955,428.19251 334.204,428.81994 331.55435,430.97685 C 329.91986,434.37142 333.7987,438.58808 336.71374,435.34976 C 338.44143,433.70872 339.93221,433.52004 341.15614,435.54509 C 343.17873,437.13094 339.7391,441.4003 344.1697,441.16981 C 347.06414,439.71185 349.6469,437.16521 352.36541,435.23475 C 354.16922,432.92873 357.08865,430.36476 358.2322,434.72056 C 360.88099,436.98596 364.20355,436.42319 367.36875,436.21393 C 371.25648,436.08098 375.53682,435.5591 377.77118,431.89654 C 381.40524,430.16036 384.86977,433.70551 386.70226,436.55047 C 389.15578,438.16195 393.24729,438.37482 391.9965,434.29264 C 391.03272,431.62132 391.86634,428.79698 395.07732,430.51822 C 398.59473,431.18981 401.32421,433.85393 404.69822,434.78348 C 404.49399,432.21867 404.45878,427.38789 408.01889,430.67031 C 411.02037,432.84489 414.15546,434.95401 417.78547,435.91603 C 417.91499,434.40082 417.51554,432.74347 418.00569,431.32291 C 420.33858,428.92482 425.00637,435.95987 423.98304,430.59934 C 424.46916,428.75931 421.94914,424.69097 424.51785,424.96804 C 428.06368,426.46371 431.80536,427.49762 435.59168,428.17694 C 433.08506,424.00864 428.60968,421.7191 424.80099,418.92778 C 421.12341,417.397 417.23656,416.18307 413.21316,416.25922 C 408.87119,415.86337 404.42295,416.04437 400.13846,415.40862 C 398.30363,414.07541 398.60617,415.26573 398.94109,415.65596 C 396.37961,419.32731 391.80329,418.61633 387.92847,419.3095 C 382.51471,419.82697 377.0454,420.36834 371.91718,422.29397 C 368.37296,422.75508 365.23736,419.62841 362.67172,417.44793 C 361.54426,415.88579 361.01018,413.83345 360.15124,412.06955 z"
     id="path554"
     style="fill:#ffffff;fill-opacity:1;fill-rule:evenodd;stroke:none" />
</svg>
