<?xml version="1.0" encoding="UTF-8"?>
<svg xmlns="http://www.w3.org/2000/svg" xmlns:xlink="http://www.w3.org/1999/xlink" width="750" height="500">
<rect width="750" height="500" fill="#fff"/>
<g stroke="#000" stroke-width="1.4955">
<g fill="#188400" stroke-linejoin="round" stroke-linecap="round">
<path d="m301.528,400.744l13.8155-11.4748s-3.04435-6.32258-14.0504-6.08871c-10.3024-7.25806-28.0978-24.3528-28.0978-24.3528l-8.89818-24.119s7.25907-2.10686,8.89818-7.96069c1.63811-5.85483-0.46875-13.1139-1.17137-13.8155c-0.70262-0.70262-7.96068,1.17036-10.0685,4.21472c-2.10787,3.04536-5.38609,14.753-10.3034,10.7722c-4.91734-3.98084,0.70262-8.42943,0.70262-8.42943s4.91734-6.0877,4.68347-9.36694c-0.23387-3.27822-6.55545-13.1129-7.25908-13.3468c-0.70262-0.23387-2.10685,12.879-3.98084,14.2843c-1.87299,1.40625-4.44859,7.25908-8.19557,3.98085c-3.74597-3.27823,1.87299-8.19657,1.87299-8.19657s10.5373-5.61895,0.23387-24.119c-3.04436,7.96169-8.89718,13.1129-8.89718,13.1129s-2.81048,4.91835-5.38609,0.70262c-2.5756-4.21472,3.04436-8.19556,3.04436-8.19556s9.13205-5.38609,9.36693-13.3478c0.23387-7.96068-11.005-17.0938-11.005-17.0938s-0.70161,14.753-4.21472,16.626c-3.5131,1.87299-4.91734,4.91734-8.89818,1.63911c-3.98085-3.27822,3.04435-10.5373,3.04435-10.5373s12.1764-12.1764,11.4738-19.2016c-0.70262-7.0252-1.40524-8.19556-1.40524-8.19556s-9.13206,5.61996-10.3024,8.42943c-1.17137,2.81049-4.91734,12.879-9.6008,9.83468c-3.27823-3.74597,2.81048-11.005,2.81048-11.005s4.44859-4.91734,4.21472-7.0252s-3.74597-8.42944-10.5373-14.5182c-0.93649-1.87298-1.40524-9.36693-1.40524-9.36693s-5.15121,6.08871-4.91633,9.36693c0.23387,3.27823-0.46875,9.83468,0.23387,17.0938c0.70262,7.25908-5.61996-2.34173-5.61996-2.34173l1.17137-23.4163s-8.89819-10.7722-19.6694-14.752c3.98085,5.85383,3.74597,11.4738,3.74597,11.4738s-4.44859,9.60081-4.44859,12.1764c0,2.5756,5.15121,13.8155,14.752,21.3085c-14.5182,-15.6885-32.5474-10.5373-37.9335-13.5816c2.57561,3.04436,10.3034,14.5182,9.36694,17.5625c-0.9365,3.04436,13.8155,9.36694,13.8155,9.36694l15.6885,0.23387s7.72681,5.38508,8.42943,8.89717c0.70263,3.51311-11.2389-6.55645-15.9224-6.32157c-4.68347,0.23387-17.0938-1.6381-17.0938-1.6381s7.49294,7.02419,7.72681,10.0686c0.23387,3.04435,3.5121,10.0685,7.96169,11.9425c4.44859,1.87298,16.3901,2.57661,16.3901,2.57661s5.15121-3.04536,6.08871,0.23286c0.9365,3.27823-6.79032,5.85484-6.79032,5.85484s-7.96068,0 -10.5373,-2.10786c-2.57661-2.10787-3.04435-5.61996-14.5171-7.0252c-1.17138,9.6008,6.32157,19.4355,6.32157,19.4355s31.6109-2.57561,31.376,4.21573c-0.23387,6.79032-26.2248,0.70161-27.1613-1.40625c-0.9365-2.10686,1.17137,13.3468,7.25907,16.625c6.0877,3.27822,19.6694,1.64012,21.3085,0.9375c1.63911-0.70263,7.72681-1.40525,7.72681,2.10786c0,3.5131-30.9083,6.32258-31.376,5.38609c-0.46875-0.9375,4.68347,11.9425,17.0938,11.2399c12.4103-0.70262,17.7954-4.4496,17.7954-4.4496s7.49294-1.40625,8.19455,1.63911c0.70262,3.04436-7.49294,4.44859-7.49294,4.44859s-19.6694,0.46875-20.371-0.46875c-0.70262-0.93649,4.4496,12.4113,18.2641,12.1774c10.3034-0.9375,11.005-5.3871,13.1129-6.08871c3.04435-0.70161,9.6008-0.70161,10.5373-0.46774c0.93649,0.23387,17.3276,11.7066,17.3276,11.7066l41.6774,42.1512z"/>
<path d="m180.706,215.754s-0.46875,22.4798,10.7712,29.2712"/>
<path d="m204.355,233.55s7.49294,11.4738-5.15121,15.6885"/>
<path d="m165.485,241.278s-0.93649,12.878,21.7772,11.9425"/>
<path d="m221.682,252.518s-3.74597,9.13205-12.878,8.6633"/>
<path d="m230.112,273.124c0,1.17036,1.63911,13.5817-10.3024,13.3468"/>
<path d="m172.978,267.972s14.9859,9.36795,21.7762,8.66533"/>
<path d="m176.256,290.686s7.02419,7.49395,19.9032,5.61895"/>
<path d="m238.073,295.838c0,0.9375-2.34073,8.19657-7.49294,9.13407"/>
<path d="m187.964,312.465s5.61996,7.25806,20.371,3.27822"/>
<path d="m252.122,309.419s-2.34174,11.4738-8.42944,11.7077"/>
<path d="m266.405,321.831s-4.68347,13.8155-16.625,11.7077"/>
<path d="m211.379,346.417s4.68347,4.21572,16.1562-0.9375"/>
<path d="m198.501,332.368c0.93649,0,6.79032,4.91734,20.8397-2.5756"/>
<path d="m301.506,383.535s-8.74899,3.91734-0.26109,17.1058"/>
</g>
<g fill="#00cede">
<path d="m573.017,219.396s-4.46472,63.8064-4.68145,63.6613c-0.21573-0.14617-9.3115-11.1462-9.3115-11.1462l-28.0716,88.0071,6.56149,19.1976-16.3438,53.5917-13.4788-17.0978-21.7752,8.75605,17.4788-56.4436,16.1482-11.6028,29.0766-86.7006-16.1371,2.02016,40.5343-52.2429z"/>
<path d="m635.053,245.714s-33.9526,54.2066-34.0746,53.9768c-0.12298-0.23084-2.9748-14.2177-2.9748-14.2177l-55.7913,51.754-59.5746,57.4849-0.16431-11.8397-20.3851-2.51714,26.9627-20.63,13.8075-2.2752,87.0413-78.8942-15.1915-5.80846,60.3448-27.0333z"/>
<path stroke-width="1.5272" d="m482.678,382.779c0.36895-0.77016,30.9768-26.9224,30.9768-26.9224"/>
<path d="m616.913,199.858s-16.5948,61.7722-16.7792,61.5877c-0.18447-0.18346-7.00605-12.7228-7.00605-12.7228l-67.3024,115.616,2.76513,20.0988-24.1542,44.255-9.95766-19.3619-23.0474,4.42641,25.8135-46.8367,18.0706-8.29738,68.0383-114.142-16.2258-1.10585,49.7853-43.5171z"/>
<path d="m494.849,408.594c0-0.36794,23.2329-40.9355,23.2329-40.9355"/>
</g>
<g fill="#ffd600">
<g id="wing" stroke-linejoin="round" stroke-linecap="round">
<path stroke-width="1.496" d="m303.496,191.197s-15.07,16.2133-22.6057,4.11128c-7.53574-12.102,10.5028-15.5283,10.7316-15.7572,0.22881-0.22732,10.5043-3.42482,11.4165-22.378,0.91374-18.9532-22.6057-31.284-29.2277-32.8828-6.622-1.59875-26.0304-1.59875-26.0304-1.59875s-71.013-17.1256-78.32-22.378c-7.30693-5.25239-74.4392-17.5832-74.4392-17.5832s-10.7316-1.36993-9.81785,8.22106c0.913741,9.59099,9.81785,10.7321,9.81785,10.7321s-7.53574,5.93735-6.622,11.1897c0.913741,5.25239,6.622,13.7008,18.4961,12.3308-1.36986,18.7243,24.6605,21.693,24.6605,21.693s2.73973,26.9454,26.7168,25.5755c5.70826,18.4955,27.1714,19.182,27.1714,19.182s10.0467,12.5597,24.6605,13.472c8.44798,21.008,26.7153,15.0707,26.7153,15.0707s-1.36986,13.2446,7.07812,13.2446c-4.33839,15.0707,11.8726,17.1256,18.0385,14.1569,1.59867,3.196,7.07813,13.0158,19.6372,6.85113,7.53425,11.1897,19.866,5.93735,19.866,5.93735s2.73973,8.90603,13.4713,5.47971c10.7346-3.42631-11.6423-74.2139-11.415-74.67z"/>
<path d="m256.915,135.936s16.6687,1.82757,14.6139,27.6304"/>
<path d="m193.438,109.22s-31.9675,21.9218,27.8579,28.7715"/>
<path d="m202.571,135.023c-0.22732,0.45614-15.07,18.0394,12.3303,23.2918-13.0152,12.3308,11.4165,16.4406,11.4165,16.4406s-5.02333,13.0158,9.59053,16.4406c-4.79452,13.4734,10.9604,12.7885,10.9604,12.7885s0.45612,16.4406,19.1811,16.2133c-0.22881,11.1897,12.7864,11.8747,12.7864,11.8747s3.88228,12.102,16.4398,8.44839c1.36987,8.44838,10.0467,6.62231,10.0467,6.62231"/>
<path d="m301.67,260.615s0.68493-11.6459-2.05479-13.9296"/>
<path d="m280.891,254.221c0.22881-0.22882,5.48095-10.7321,3.65347-12.5597"/>
<path d="m261.711,247.599,14.1578-13.9296"/>
<path d="m243.9,233.898c0.22881-0.22882,21.4632-13.472,21.4632-13.472"/>
<path d="m236.366,220.425c0.22881-0.22882,12.1015-5.25238,12.5591-9.59099"/>
<path d="m210.106,205.125s28.7701,6.16617,33.795-0.45614"/>
<path d="m186.131,191.425c1.14106,0,43.1552,4.56742,47.0375-0.68497"/>
<path d="m158.273,172.471c0.68493-0.22882,49.7772,9.13484,63.7061,2.05489"/>
<path d="m134.755,147.125c1.14255,0,65.3048,15.5283,74.8953,10.7321"/>
<path d="m110.322,124.747c0.45613,0,76.494,17.812,86.083,10.5033"/>
<path d="m100.504,103.054c0.22731,0,72.8405,23.7479,79.0049,17.8106"/>
</g>
<use xlink:href="#wing" transform="matrix(-1,0,0,1,789.25914,0.52320137)"/>
<g>
<path d="m441.494,180.034c0-3.44758-1.11996-10.1421-4.76411-12.4597-4.67944-2.43347-4.67944-3.93045-5.05343-7.1119s7.85988-9.16935,7.85988-9.16935-7.48589-3.36895-10.2923-2.99496c-2.80645,0.375-8.23387,0.93548-8.98185,1.68447-0.749,0.74899-4.86593-13.4738-2.24597-15.7198,2.61996-2.24596,8.04536,5.23992,8.04536,5.23992s3.55545-8.23387-8.98185-23.9536c4.30443-30.6905-24.3276-37.8024-30.877-37.6149-5.42641-0.747984-19.4617,4.30444-21.7066,11.0413-7.1119,2.43246-7.48589,8.60887-7.48589,8.60887s-14.5958,2.61996-16.4677,15.3458c8.60786-7.11088,14.2218,0.749,14.2218,0.749s7.48589,5.23991,11.4153,5.42741c3.92842,0.1875-3.74295,13.0998-5.98791,15.3458-2.24597,2.24597-11.6028,10.8548-11.2288,11.4153,0.37399,0.56049,7.29839,2.61996,6.9244,5.80141-0.375,3.18146-21.3337,12.9133-20.2107,15.3458,5.42742-1.68447,9.65827-0.3871,9.65827-0.3871,0.75605,5.31351-1.36089,11.4315-4.97178,13.4123l101.131-0.006z"/>
<path stroke-width="1.495" d="m356.438,98.4274l6.78125,6.78125c1.83871,0.5746,12.1825,5.63206,11.6089,9.07964"/>
<path stroke-width="1.495" stroke-linecap="round" d="m374.828,114.288c-0.5746,3.44758-7.35585,5.17238-7.35585,5.17238"/>
<path d="m364.598,89.2329,10.3438,9.88407s1.83871,8.50504,9.19456,7.81552,6.32157-3.79335,6.32157-3.79335-8.84879-6.20665-15.8599-4.7127"/>
</g>
<g>
<path d="m473.38,268.472s9.19456,8.82763,9.37903,10.6673c0.18448,1.83871,2.39113,10.4819,4.78125,11.7702,2.39012,1.28831,11.7702,8.82763,13.0575,11.7702,1.28629,2.94354,9.5625,15.4486,9.5625,15.4486s7.72379,15.8155,12.873,17.1038c5.14919,1.2863,19.6784-0.91935,22.62,6.06956,2.94153,6.98891,2.20665,17.1038,2.20665,17.1038s-3.49496,3.12702-5.14919,1.2873c-1.65424-1.83972-4.59779,9.19456-9.74698,6.06855-7.01411-14.9345-25.371-12.497-25.371-12.497s4.03831-6.26109-12.3286-11.7792c-25.5625,4.41431-33.1028-22.252-33.1028-22.252l-14.5504-12.621,25.7692-38.1401z"/>
<path d="m458.667,306.357,11.4022,5.33367-0.91936-9.74697"/>
<path d="m474.851,304.886,10.4818,5.14919-4.22883-8.45968"/>
<path d="m474.299,291.094,10.2984,5.51714-4.78125-10.6663"/>
<path d="m490.666,341.668s-11.7702-15.4486-11.5857-15.4486c0.18447,0,20.0454,3.86189,20.0454,3.86189l-7.35585-15.8155,18.2066,4.78125"/>
<path d="m524.505,344.059s11.5857,2.5756,11.2177,21.8861"/>
<path d="m530.573,341.117s12.506-0.73488,11.7702,18.7581"/>
</g>
<g stroke-linecap="round">
<path d="m314.899,270.865s-9.19556,8.82762-9.37903,10.6663c-0.18447,1.83871-3.91633,9.33871-6.30645,10.626-2.39113,1.2873-10.626,9.59072-11.9133,12.5343-1.2873,2.94254-9.18145,15.8296-9.18145,15.8296s-9.05847,13.1462-14.2077,14.4335c-6.29335,0.5252-18.3427,1.75-21.2853,8.7379-2.94254,6.98992,1.60685,17.6764,5.03931,17.6764,5.14819,2.28831,7.49799,4.65121,9.15323,2.8125,2.79839,0.82964,1.19758,3.22581,6.34778,0.0998-3.91431-5.01613-3.49597-9.8629,0.42742-11.1341,3.91331-1.33871,10.2873,4.61693,10.2873,4.61693s2.32056-10.8296,18.6885-16.3478c25.5625,4.41432,32.4314-16.2137,34.2208-21.1341,4.03024-5.48589,10.2984-6.94657,15.4476-10.4194l-27.3387-38.998z"/>
<path stroke-linejoin="round" d="m330.058,306.514-11.8498,6.22783,0.91935-8.40525"/>
<path stroke-linejoin="round" d="m314.323,304.82-11.1532,5.14818,5.124-8.68246"/>
<path stroke-linejoin="round" d="m314.65,291.25-9.62701,4.1754,3.43951-7.08871"/>
<path stroke-linejoin="round" d="m298.059,341.601c1.78931-3.57863,10.875-14.7772,10.6905-14.7772-0.18347,0-18.7036,3.8629-18.7036,3.8629l6.01411-15.5938-16.1935,3.21573"/>
<path stroke-linejoin="round" d="m264.536,343.974s-14.0645,2.5746-8.54839,19.9778"/>
<path stroke-linecap="butt" d="m258.468,341.603s-15.3649,0.40827-10.0534,19.5212"/>
</g>
<g stroke-linejoin="round" stroke-linecap="round">
<path d="m435.947,320.267s0.95262,11.25-3.81351,16.0171c21.1643,1.33468,32.6048,22.8821,32.7954,28.0312,0.18951,5.14718-6.48387,9.15121-6.48387,9.15121s2.28931,9.15323-6.48287,10.6784c0.19053,8.77117-5.91028,8.77117-5.91028,8.77117s-2.28831,7.24597-9.34274,6.86492c-2.09778,10.4869-12.9657,10.2964-12.9657,10.2964s-6.29234,15.255-15.6351,9.34375c-5.91028,12.9657-21.5454,12.3942-27.4566,0-3.24093-0.18952-10.4859,4.19456-14.872-8.77117-9.72379,1.71674-13.5373-10.6774-13.5373-10.6774s-6.48388-0.57258-8.96271-7.05544c-7.626-1.5252-6.29133-9.15222-6.29133-9.15222s-7.626-2.09677-7.43649-10.4869c-6.10181-3.624-5.52923-10.1058-5.52923-10.1058s4.76713-22.499,32.4143-27.2671c-4.38609-6.29133-3.81351-15.4446-3.81351-15.4446l83.3236-0.19355z"/>
<path d="m414.972,336.666c0,0.38206,2.86089,12.3942-6.48286,14.3014,18.496-4.95867,37.753,41.9486,37.753,41.9486"/>
<path d="m421.265,332.28s2.47883,9.53428-5.71976,14.3014c29.744,6.48387,36.6079,37.373,36.6079,37.373"/>
<path fill="none" stroke-width="1.8694" d="m427.747,327.513c0-0.19052,5.14818,12.9657-5.91029,15.254,28.4103-2.09678,36.4184,30.3175,36.4184,30.3175"/>
<path d="m406.011,342.005s4.76714,9.15121-4.00403,12.0121c16.5877,1.71572,21.9274,56.25,21.9274,56.25"/>
<path d="m400.291,345.246s2.66835,10.1058-5.91028,13.1562c17.3508-9.15121,14.1089,61.3992,14.1089,61.3992"/>
<path d="m388.851,345.819s-3.62299,10.6784,4.38609,12.7752c-15.8256-4.38508-12.7752,61.2087-12.7752,61.2087"/>
<path d="m381.414,341.624s-2.47883,9.72379,7.24597,14.6814c-16.2066-10.2964-22.88,54.7248-22.88,54.7248"/>
<path d="m407.155,350.586s29.5524,28.4113,29.3629,49.3851"/>
<path d="m360.442,327.704c0,0.19052-3.62298,15.255,6.86492,15.6361"/>
<path d="m367.878,333.234c0,0.38105-2.86088,12.7742,5.52823,13.3468"/>
<path d="m374.551,336.857s-5.14818,12.3942,7.43549,14.1099"/>
<path d="m381.033,351.157c-0.19053,0-24.5958,22.6915-28.4103,49.004"/>
<path d="m376.457,348.869c-0.18951,0-31.0786,19.2581-33.1764,43.8558"/>
<path d="m369.594,345.628s-34.3206,20.0202-32.7954,38.1351"/>
<path d="m361.394,341.242s-25.5494,4.76713-31.8417,32.2248"/>
</g>
</g>
<g stroke="none">
<path fill="#fff" d="m307.51,165.561s24.7084,13.6454,42.4089,12.9081c17.702-0.73731,44.2529-12.1708,44.2529-12.1708s23.6017,13.276,42.7783,11.4335c19.1766-1.84402,45.7274-12.1708,45.7274-12.1708,15.8566,79.1672-20.2818,150.221-88.5057,182.184-72.4024-33.0697-107.558-112.605-86.6618-182.184z"/>
<g fill="#be0a2f">
<path d="m316.616,223.093v49.4984l14.0381,23.6701v-73.1685h-14.0381z"/>
<path d="m344.692,223.093v89.6241l14.0381,13.0667v-102.691h-14.0381z"/>
<path d="m372.768,223.093v113.299l14.0381,7.79483v-121.094h-14.0381z"/>
<path d="m471.036,223.093v49.5118l-14.038,23.875v-73.3868h14.0381z"/>
<path d="m442.96,223.093v90.0653l-14.0381,12.802v-102.868h14.0381z"/>
<path d="M414.884,223.093v113.084l-14.0381,8.36314v-121.447h14.038z"/>
</g>
<path fill="#002768" d="m307.51,165.561s6.17785,3.41136,14.566,6.72999c8.38967,3.32013,18.9912,6.54604,27.8414,6.17664,17.702-0.73731,44.2529-12.1708,44.2529-12.1708s23.6017,13.276,42.7783,11.4335c19.1766-1.84402,45.7274-12.1708,45.7274-12.1708,3.8733,22.9882,5.80846,34.7283,2.39726,57.5325h-182.494c-2.321-22.7564-2.19687-33.0682,4.9321-57.531z"/>
<path fill="none" stroke="#000" d="m485.073,223.092-182.495,0m4.93243-57.5312s24.7077,13.6452,42.4093,12.9073,44.253-12.1704,44.253-12.1704,23.6008,13.2762,42.7782,11.4325c19.1754-1.84375,45.7278-12.1694,45.7278-12.1694,15.8568,79.1673-20.2823,150.222-88.506,182.183-72.403-33.069-107.559-112.605-86.662-182.184z"/>
</g>
<g fill="#00cede">
<path d="m37.9355,188.241,40.5655,0.18447-4.05645,9.77319,17.7016,70.0706,21.3891-69.8861-7.56048-10.1421h42.2248l-9.03529,9.77318-34.8488,100.127,9.03428,13.0917h-40.5657l9.03528-13.0917-34.1119-99.7581-9.77218-10.1421z"/>
<path d="m660.245,190.638h38.5373l-6.26916,8.66634-0.18548,101.971,8.66734,9.58871h-40.75l8.1129-10.3256-0.18447-101.049-7.92843-8.85081z"/>
</g>
</g>
</svg> 