<?xml version="1.0" encoding="UTF-8" standalone="no"?>
<!DOCTYPE svg PUBLIC "-//W3C//DTD SVG 1.1//EN"
 "http://www.w3.org/Graphics/SVG/1.1/DTD/svg11.dtd">
<!-- Generated by graphviz version 5.0.0 (20220707.1540)
 -->
<!-- Title: G Pages: 1 -->
<svg width="926pt" height="178pt"
 viewBox="0.00 0.00 926.00 178.00" xmlns="http://www.w3.org/2000/svg" xmlns:xlink="http://www.w3.org/1999/xlink">
<g id="graph0" class="graph" transform="scale(1 1) rotate(0) translate(4 174)">
<title>G</title>
<g id="clust1" class="cluster">
<title>cluster_11</title>
<polygon fill="transparent" stroke="transparent" points="8,-12 8,-158 336,-158 336,-12 8,-12"/>
<text text-anchor="middle" x="59" y="-126.8" font-family="Helvetica,sans-Serif" font-size="14.00" fill="#4d4d4d">Python Server</text>
</g>
<g id="clust2" class="cluster">
<title>cluster_thread_2</title>
<polygon fill="#91a4a8" stroke="transparent" points="18,-22 18,-109 326,-109 326,-22 18,-22"/>
<text text-anchor="middle" x="94.5" y="-85" font-family="Helvetica,sans-Serif" font-size="10.00" fill="#edebdf">PerspectiveManager &#45; Thread 2</text>
</g>
<g id="clust3" class="cluster">
<title>cluster_browser</title>
<polygon fill="#cadee1" stroke="#cadee1" points="344,-8 344,-162 910,-162 910,-8 344,-8"/>
<text text-anchor="middle" x="377" y="-130.8" font-family="Helvetica,sans-Serif" font-size="14.00" fill="#4d4d4d">Browser</text>
</g>
<g id="clust4" class="cluster">
<title>cluster_webworker2</title>
<polygon fill="#2d4c68" stroke="transparent" points="354,-18 354,-113 662,-113 662,-18 354,-18"/>
<text text-anchor="middle" x="391.5" y="-89" font-family="Helvetica,sans-Serif" font-size="10.00" fill="#edebdf">WebWorker 2</text>
</g>
<g id="clust6" class="cluster">
<title>cluster_41</title>
<polygon fill="white" stroke="transparent" points="678,-18 678,-108 900,-108 900,-18 678,-18"/>
<text text-anchor="middle" x="700" y="-88.6" font-family="monospace" font-size="8.00" fill="#4d4d4d">&lt;html&gt;</text>
</g>
<!-- table_thread_2 -->
<g id="node1" class="node">
<title>table_thread_2</title>
<polygon fill="#e6e2da" stroke="transparent" points="100,-68 28,-68 28,-32 100,-32 100,-68"/>
<text text-anchor="middle" x="64" y="-48.1" font-family="monospace" font-size="8.00">table(df)</text>
</g>
<!-- view_thread_2 -->
<g id="node2" class="node">
<title>view_thread_2</title>
<polygon fill="#edebdf" stroke="transparent" points="316,-68 136,-68 136,-32 316,-32 316,-68"/>
<text text-anchor="start" x="144" y="-57.1" font-family="monospace" font-size="8.00">view({</text>
<text text-anchor="start" x="144" y="-48.1" font-family="monospace" font-size="8.00"> &#160;&#160;&#160;group_by: [&quot;State&quot;]]</text>
<text text-anchor="start" x="144" y="-39.1" font-family="monospace" font-size="8.00">})</text>
</g>
<!-- table_thread_2&#45;&gt;view_thread_2 -->
<g id="edge1" class="edge">
<title>table_thread_2&#45;&gt;view_thread_2</title>
<path fill="none" stroke="#edebdf" d="M100.11,-50C108.52,-50 117.91,-50 127.66,-50"/>
<polygon fill="#edebdf" stroke="#edebdf" points="127.91,-52.8 135.91,-50 127.91,-47.2 127.91,-52.8"/>
</g>
<!-- table12 -->
<g id="node3" class="node">
<title>table12</title>
<polygon fill="#e6e2da" stroke="transparent" points="436,-68 364,-68 364,-32 436,-32 436,-68"/>
<text text-anchor="middle" x="400" y="-48.1" font-family="monospace" font-size="8.00">table(...)</text>
</g>
<!-- view_thread_2&#45;&gt;table12 -->
<g id="edge3" class="edge">
<title>view_thread_2&#45;&gt;table12</title>
<path fill="none" stroke="#d1a043" stroke-width="2" stroke-dasharray="5,2" d="M316.02,-50C332.91,-50 349.64,-50 363.61,-50"/>
</g>
<!-- view12 -->
<g id="node4" class="node">
<title>view12</title>
<polygon fill="#edebdf" stroke="transparent" points="652,-72 472,-72 472,-28 652,-28 652,-72"/>
<text text-anchor="start" x="480" y="-61.6" font-family="monospace" font-size="8.00">view({</text>
<text text-anchor="start" x="480" y="-52.6" font-family="monospace" font-size="8.00"> &#160;&#160;&#160;group_by: [&quot;Category&quot;]</text>
<text text-anchor="start" x="480" y="-43.6" font-family="monospace" font-size="8.00"> &#160;&#160;&#160;filter: [[&quot;State&quot;,&quot;==&quot;,&quot;Texas&quot;]]</text>
<text text-anchor="start" x="480" y="-34.6" font-family="monospace" font-size="8.00">})</text>
</g>
<!-- table12&#45;&gt;view12 -->
<g id="edge2" class="edge">
<title>table12&#45;&gt;view12</title>
<path fill="none" stroke="#e6e2da" d="M436.11,-50C444.52,-50 453.91,-50 463.66,-50"/>
<polygon fill="#e6e2da" stroke="#e6e2da" points="463.91,-52.8 471.91,-50 463.91,-47.2 463.91,-52.8"/>
</g>
<!-- viewer5 -->
<g id="node5" class="node">
<title>viewer5</title>
<polygon fill="white" stroke="#b3b3b3" points="890,-72 688,-72 688,-28 890,-28 890,-72"/>
<text text-anchor="start" x="696" y="-61.6" font-family="monospace" font-size="8.00">&lt;perspective&#45;viewer</text>
<text text-anchor="start" x="696" y="-52.6" font-family="monospace" font-size="8.00"> &#160;&#160;&#160;view=&quot;heatmap&quot;</text>
<text text-anchor="start" x="696" y="-43.6" font-family="monospace" font-size="8.00"> &#160;&#160;&#160;row&#45;pivots=&#39;[&quot;State&quot;]</text>
<text text-anchor="start" x="696" y="-34.6" font-family="monospace" font-size="8.00"> &#160;&#160;&#160;column&#45;pivots=&#39;[&quot;Segment&quot;]&#39;&gt;</text>
</g>
<!-- view12&#45;&gt;viewer5 -->
<g id="edge4" class="edge">
<title>view12&#45;&gt;viewer5</title>
<path fill="none" stroke="#000000" stroke-width="2" stroke-dasharray="5,2" d="M652.25,-50C663.9,-50 675.91,-50 687.73,-50"/>
</g>
</g>
</svg>
