<svg xmlns="http://www.w3.org/2000/svg" xmlns:xlink="http://www.w3.org/1999/xlink" viewBox="0 0 640 640" width="640" height="640"><defs><path d="M570 180l-100 50-150-80-150 80-100-50L320 40l250 140z" id="a"/><path d="M320 320l150 80-150 80-150-80 150-80z" id="b"/><path d="M320 150v170l-150 80V230l150-80z" id="c"/><path d="M470 400V230l100-50v270L320 590V480l150-80z" id="d"/><path d="M320 320l150 80V230l-150-80v170z" id="e"/><path d="M70 450l250 140V480l-150-80V230L70 180v270z" id="f"/></defs><use xlink:href="#a" transform="matrix(.95 0 0 .95 16 6.75)" width="100%" height="100%" fill="#fff" stroke="#000"/><use xlink:href="#b" transform="translate(39.864 45.681) scale(.87543)" width="100%" height="100%" fill="#fff" stroke="#000"/><use xlink:href="#c" transform="translate(34.27 36.36) scale(.87543)" width="100%" height="100%" fill="#757d8b"/><use xlink:href="#d" transform="matrix(.95 0 0 .95 22.25 19.25)" width="100%" height="100%" fill="#757d8b"/><use xlink:href="#d" fill-opacity="0" stroke="#2f3136" stroke-width="0"/><use xlink:href="#e" transform="translate(45.457 36.36) scale(.87543)" width="100%" height="100%" fill="#242526"/><use xlink:href="#f" transform="matrix(.95 0 0 .95 9.75 19.25)" width="100%" height="100%" fill="#242526"/></svg>